  0
SECTION
  2
HEADER
  9
$ACADVER
  1
AC1015
  9
$ACADMAINTVER
 70
     6
  9
$DWGCODEPAGE
  3
ANSI_936
  9
$INSBASE
 10
0.0
 20
0.0
 30
0.0
  9
$EXTMIN
 10
-329.3999999959
 20
167.6921068242
 30
0.0
  9
$EXTMAX
 10
9.3999999959
 20
649.4921068249
 30
0.0
  9
$LIMMIN
 10
0.0
 20
0.0
  9
$LIMMAX
 10
420.0
 20
297.0
  9
$ORTHOMODE
 70
     0
  9
$REGENMODE
 70
     1
  9
$FILLMODE
 70
     1
  9
$QTEXTMODE
 70
     0
  9
$MIRRTEXT
 70
     1
  9
$LTSCALE
 40
1.0
  9
$ATTMODE
 70
     1
  9
$TEXTSIZE
 40
3.5
  9
$TRACEWID
 40
1.0
  9
$TEXTSTYLE
  7
Standard
  9
$CLAYER
  8
0
  9
$CELTYPE
  6
ByLayer
  9
$CECOLOR
 62
   256
  9
$CELTSCALE
 40
1.0
  9
$DISPSILH
 70
     0
  9
$DIMSCALE
 40
1.0
  9
$DIMASZ
 40
4.08
  9
$DIMEXO
 40
0.0
  9
$DIMDLI
 40
3.75
  9
$DIMRND
 40
0.0
  9
$DIMDLE
 40
0.0
  9
$DIMEXE
 40
2.0
  9
$DIMTP
 40
0.0
  9
$DIMTM
 40
0.0
  9
$DIMTXT
 40
3.5
  9
$DIMCEN
 40
2.5
  9
$DIMTSZ
 40
0.0
  9
$DIMTOL
 70
     0
  9
$DIMLIM
 70
     0
  9
$DIMTIH
 70
     1
  9
$DIMTOH
 70
     1
  9
$DIMSE1
 70
     0
  9
$DIMSE2
 70
     0
  9
$DIMTAD
 70
     1
  9
$DIMZIN
 70
     0
  9
$DIMBLK
  1

  9
$DIMASO
 70
     1
  9
$DIMSHO
 70
     1
  9
$DIMPOST
  1

  9
$DIMAPOST
  1

  9
$DIMALT
 70
     0
  9
$DIMALTD
 70
     3
  9
$DIMALTF
 40
0.0393700787
  9
$DIMLFAC
 40
1.0
  9
$DIMTOFL
 70
     1
  9
$DIMTVP
 40
0.0
  9
$DIMTIX
 70
     0
  9
$DIMSOXD
 70
     0
  9
$DIMSAH
 70
     0
  9
$DIMBLK1
  1

  9
$DIMBLK2
  1

  9
$DIMSTYLE
  2
ISO-25
  9
$DIMCLRD
 70
     0
  9
$DIMCLRE
 70
     0
  9
$DIMCLRT
 70
     0
  9
$DIMTFAC
 40
1.0
  9
$DIMGAP
 40
1.524
  9
$DIMJUST
 70
     0
  9
$DIMSD1
 70
     0
  9
$DIMSD2
 70
     0
  9
$DIMTOLJ
 70
     0
  9
$DIMTZIN
 70
     0
  9
$DIMALTZ
 70
     0
  9
$DIMALTTZ
 70
     0
  9
$DIMUPT
 70
     0
  9
$DIMDEC
 70
     2
  9
$DIMTDEC
 70
     2
  9
$DIMALTU
 70
     2
  9
$DIMALTTD
 70
     3
  9
$DIMTXSTY
  7
Standard
  9
$DIMAUNIT
 70
     0
  9
$DIMADEC
 70
     2
  9
$DIMALTRND
 40
0.0
  9
$DIMAZIN
 70
     0
  9
$DIMDSEP
 70
    44
  9
$DIMATFIT
 70
     3
  9
$DIMFRAC
 70
     0
  9
$DIMLDRBLK
  1

  9
$DIMLUNIT
 70
     2
  9
$DIMLWD
 70
    -2
  9
$DIMLWE
 70
    -2
  9
$DIMTMOVE
 70
     0
  9
$LUNITS
 70
     2
  9
$LUPREC
 70
     2
  9
$SKETCHINC
 40
1.0
  9
$FILLETRAD
 40
10.0
  9
$AUNITS
 70
     0
  9
$AUPREC
 70
     2
  9
$MENU
  1
.
  9
$ELEVATION
 40
0.0
  9
$PELEVATION
 40
0.0
  9
$THICKNESS
 40
0.0
  9
$LIMCHECK
 70
     0
  9
$CHAMFERA
 40
0.0
  9
$CHAMFERB
 40
0.0
  9
$CHAMFERC
 40
0.0
  9
$CHAMFERD
 40
0.0
  9
$SKPOLY
 70
     0
  9
$TDCREATE
 40
2459694.923296319
  9
$TDUCREATE
 40
2459694.589962986
  9
$TDUPDATE
 40
2459694.923348588
  9
$TDUUPDATE
 40
2459694.590015254
  9
$TDINDWG
 40
0.0000000116
  9
$TDUSRTIMER
 40
0.0000000116
  9
$USRTIMER
 70
     1
  9
$ANGBASE
 50
0.0
  9
$ANGDIR
 70
     0
  9
$PDMODE
 70
     0
  9
$PDSIZE
 40
-1.0
  9
$PLINEWID
 40
0.0
  9
$SPLFRAME
 70
     0
  9
$SPLINETYPE
 70
     6
  9
$SPLINESEGS
 70
     8
  9
$HANDSEED
  5
555
  9
$SURFTAB1
 70
     6
  9
$SURFTAB2
 70
     6
  9
$SURFTYPE
 70
     6
  9
$SURFU
 70
     6
  9
$SURFV
 70
     6
  9
$UCSBASE
  2

  9
$UCSNAME
  2

  9
$UCSORG
 10
0.0
 20
0.0
 30
0.0
  9
$UCSXDIR
 10
1.0
 20
0.0
 30
0.0
  9
$UCSYDIR
 10
0.0
 20
1.0
 30
0.0
  9
$UCSORTHOREF
  2

  9
$UCSORTHOVIEW
 70
     0
  9
$UCSORGTOP
 10
0.0
 20
0.0
 30
0.0
  9
$UCSORGBOTTOM
 10
0.0
 20
0.0
 30
0.0
  9
$UCSORGLEFT
 10
0.0
 20
0.0
 30
0.0
  9
$UCSORGRIGHT
 10
0.0
 20
0.0
 30
0.0
  9
$UCSORGFRONT
 10
0.0
 20
0.0
 30
0.0
  9
$UCSORGBACK
 10
0.0
 20
0.0
 30
0.0
  9
$PUCSBASE
  2

  9
$PUCSNAME
  2

  9
$PUCSORG
 10
0.0
 20
0.0
 30
0.0
  9
$PUCSXDIR
 10
1.0
 20
0.0
 30
0.0
  9
$PUCSYDIR
 10
0.0
 20
1.0
 30
0.0
  9
$PUCSORTHOREF
  2

  9
$PUCSORTHOVIEW
 70
     0
  9
$PUCSORGTOP
 10
0.0
 20
0.0
 30
0.0
  9
$PUCSORGBOTTOM
 10
0.0
 20
0.0
 30
0.0
  9
$PUCSORGLEFT
 10
0.0
 20
0.0
 30
0.0
  9
$PUCSORGRIGHT
 10
0.0
 20
0.0
 30
0.0
  9
$PUCSORGFRONT
 10
0.0
 20
0.0
 30
0.0
  9
$PUCSORGBACK
 10
0.0
 20
0.0
 30
0.0
  9
$USERI1
 70
     0
  9
$USERI2
 70
     0
  9
$USERI3
 70
     0
  9
$USERI4
 70
     0
  9
$USERI5
 70
     0
  9
$USERR1
 40
0.0
  9
$USERR2
 40
0.0
  9
$USERR3
 40
0.0
  9
$USERR4
 40
0.0
  9
$USERR5
 40
0.0
  9
$WORLDVIEW
 70
     1
  9
$SHADEDGE
 70
     3
  9
$SHADEDIF
 70
    70
  9
$TILEMODE
 70
     1
  9
$MAXACTVP
 70
    64
  9
$PINSBASE
 10
0.0
 20
0.0
 30
0.0
  9
$PLIMCHECK
 70
     0
  9
$PEXTMIN
 10
1.0000000000E+20
 20
1.0000000000E+20
 30
1.0000000000E+20
  9
$PEXTMAX
 10
-1.0000000000E+20
 20
-1.0000000000E+20
 30
-1.0000000000E+20
  9
$PLIMMIN
 10
0.0
 20
0.0
  9
$PLIMMAX
 10
420.0
 20
297.0
  9
$UNITMODE
 70
     0
  9
$VISRETAIN
 70
     1
  9
$PLINEGEN
 70
     0
  9
$PSLTSCALE
 70
     1
  9
$TREEDEPTH
 70
  3020
  9
$CMLSTYLE
  2
Standard
  9
$CMLJUST
 70
     0
  9
$CMLSCALE
 40
20.0
  9
$PROXYGRAPHICS
 70
     1
  9
$MEASUREMENT
 70
     1
  9
$CELWEIGHT
370
    -1
  9
$ENDCAPS
280
     0
  9
$JOINSTYLE
280
     0
  9
$LWDISPLAY
290
     1
  9
$INSUNITS
 70
     4
  9
$HYPERLINKBASE
  1

  9
$STYLESHEET
  1

  9
$XEDIT
290
     1
  9
$CEPSNTYPE
380
     0
  9
$PSTYLEMODE
290
     1
  9
$FINGERPRINTGUID
  2
{e189c8af-8e16-4122-b4ad-40ff5f734999}
  9
$VERSIONGUID
  2
{FAEB1C32-E019-11D5-929B-00C0DF256EC4}
  9
$EXTNAMES
290
     1
  9
$PSVPSCALE
 40
0.0
  9
$OLESTARTUP
290
     0
  0
ENDSEC
  0
SECTION
  2
CLASSES
  0
CLASS
  1
ACDBDICTIONARYWDFLT
  2
AcDbDictionaryWithDefault
  3
ObjectDBX Classes
 90
        0
280
     0
281
     0
  0
CLASS
  1
VISUALSTYLE
  2
AcDbVisualStyle
  3
ObjectDBX Classes
 90
     4095
280
     0
281
     0
  0
CLASS
  1
MATERIAL
  2
AcDbMaterial
  3
ObjectDBX Classes
 90
     1153
280
     0
281
     0
  0
CLASS
  1
SCALE
  2
AcDbScale
  3
ObjectDBX Classes
 90
     1153
280
     0
281
     0
  0
CLASS
  1
TABLESTYLE
  2
AcDbTableStyle
  3
ObjectDBX Classes
 90
     4095
280
     0
281
     0
  0
CLASS
  1
MLEADERSTYLE
  2
AcDbMLeaderStyle
  3
ACDB_MLEADERSTYLE_CLASS
 90
     4095
280
     0
281
     0
  0
CLASS
  1
SUN
  2
AcDbSun
  3
SCENEOE
 90
     1153
280
     0
281
     0
  0
CLASS
  1
ACDBPLACEHOLDER
  2
AcDbPlaceHolder
  3
ObjectDBX Classes
 90
        0
280
     0
281
     0
  0
CLASS
  1
LAYOUT
  2
AcDbLayout
  3
ObjectDBX Classes
 90
        0
280
     0
281
     0
  0
ENDSEC
  0
SECTION
  2
TABLES
  0
TABLE
  2
VPORT
  5
8
330
0
100
AcDbSymbolTable
 70
     1
  0
VPORT
  5
29
330
8
100
AcDbSymbolTableRecord
100
AcDbViewportTableRecord
  2
*Active
 70
     0
 10
0.0
 20
0.0
 11
1.0
 21
1.0
 12
-160.0
 22
408.5921068245
 13
0.0
 23
0.0
 14
10.0
 24
10.0
 15
10.0
 25
10.0
 16
0.0
 26
0.0
 36
1.0
 17
0.0
 27
0.0
 37
0.0
 40
491.4360000007
 41
0.703196347
 42
50.0
 43
0.0
 44
0.0
 50
0.0
 51
0.0
 71
     0
 72
   100
 73
     1
 74
     3
 75
     0
 76
     0
 77
     0
 78
     0
281
     0
 65
     1
110
0.0
120
0.0
130
0.0
111
1.0
121
0.0
131
0.0
112
0.0
122
1.0
132
0.0
 79
     0
146
0.0
  0
ENDTAB
  0
TABLE
  2
LTYPE
  5
5
330
0
100
AcDbSymbolTable
 70
     6
  0
LTYPE
  5
14
330
5
100
AcDbSymbolTableRecord
100
AcDbLinetypeTableRecord
  2
ByBlock
 70
     0
  3

 72
    65
 73
     0
 40
0.0
  0
LTYPE
  5
15
330
5
100
AcDbSymbolTableRecord
100
AcDbLinetypeTableRecord
  2
ByLayer
 70
     0
  3

 72
    65
 73
     0
 40
0.0
  0
LTYPE
  5
16
330
5
100
AcDbSymbolTableRecord
100
AcDbLinetypeTableRecord
  2
Continuous
 70
     0
  3
Solid line
 72
    65
 73
     0
 40
0.0
  0
LTYPE
  5
6E
330
5
100
AcDbSymbolTableRecord
100
AcDbLinetypeTableRecord
  2
HIDDEN
 70
     0
  3
Hidden __ __ __ __ __ __ __ __ __ __ __ __ __ __
 72
    65
 73
     2
 40
1.905
 49
1.27
 74
     0
 49
-0.635
 74
     0
  0
LTYPE
  5
6F
330
5
100
AcDbSymbolTableRecord
100
AcDbLinetypeTableRecord
  2
PHANTOM
 70
     0
  3
Phantom ______  __  __  ______  __  __  ______
 72
    65
 73
     6
 40
12.7
 49
6.35
 74
     0
 49
-1.27
 74
     0
 49
1.27
 74
     0
 49
-1.27
 74
     0
 49
1.27
 74
     0
 49
-1.27
 74
     0
  0
LTYPE
  5
70
330
5
100
AcDbSymbolTableRecord
100
AcDbLinetypeTableRecord
  2
CENTER
 70
     0
  3
Center ____ _ ____ _ ____ _ ____ _ ____ _ ____
 72
    65
 73
     4
 40
10.16
 49
6.35
 74
     0
 49
-1.27
 74
     0
 49
1.27
 74
     0
 49
-1.27
 74
     0
  0
LTYPE
  5
71
330
5
100
AcDbSymbolTableRecord
100
AcDbLinetypeTableRecord
  2
CENTERX2
 70
     0
  3
Center (2x) ________  __  ________  __  _____
 72
    65
 73
     4
 40
20.32
 49
12.7
 74
     0
 49
-2.54
 74
     0
 49
2.54
 74
     0
 49
-2.54
 74
     0
  0
LTYPE
  5
72
330
5
100
AcDbSymbolTableRecord
100
AcDbLinetypeTableRecord
  2
DOT2
 70
     0
  3
Dot (.5x) ........................................
 72
    65
 73
     2
 40
0.635
 49
0.0
 74
     0
 49
-0.635
 74
     0
  0
ENDTAB
  0
TABLE
  2
LAYER
  5
2
330
0
100
AcDbSymbolTable
 70
     1
  0
LAYER
  5
10
330
2
100
AcDbSymbolTableRecord
100
AcDbLayerTableRecord
  2
0
 70
     0
 62
     7
  6
Continuous
370
    -3
390
F
  0
ENDTAB
  0
TABLE
  2
STYLE
  5
3
330
0
100
AcDbSymbolTable
 70
     1
  0
STYLE
  5
11
330
3
100
AcDbSymbolTableRecord
100
AcDbTextStyleTableRecord
  2
Standard
 70
     0
 40
0.0
 41
1.0
 50
0.0
 71
     0
 42
3.5
  3
txt
  4

  0
ENDTAB
  0
TABLE
  2
VIEW
  5
6
330
0
100
AcDbSymbolTable
 70
     0
  0
ENDTAB
  0
TABLE
  2
UCS
  5
7
330
0
100
AcDbSymbolTable
 70
     0
  0
ENDTAB
  0
TABLE
  2
APPID
  5
9
330
0
100
AcDbSymbolTable
 70
     1
  0
APPID
  5
12
330
9
100
AcDbSymbolTableRecord
100
AcDbRegAppTableRecord
  2
ACAD
 70
     0
  0
ENDTAB
  0
TABLE
  2
DIMSTYLE
  5
A
330
0
100
AcDbSymbolTable
 70
     1
100
AcDbDimStyleTable
  0
DIMSTYLE
105
27
330
A
100
AcDbSymbolTableRecord
100
AcDbDimStyleTableRecord
  2
ISO-25
 70
     0
 41
2.5
 42
0.625
 43
3.75
 44
1.25
 73
     0
 74
     0
 77
     1
 78
     8
140
2.5
141
2.5
143
0.0393700787
147
0.625
171
     3
172
     1
178
     0
271
     2
272
     2
274
     3
278
    44
283
     0
284
     8
340
11
  0
ENDTAB
  0
TABLE
  2
BLOCK_RECORD
  5
1
330
0
100
AcDbSymbolTable
 70
     1
  0
BLOCK_RECORD
  5
1F
330
1
100
AcDbSymbolTableRecord
100
AcDbBlockTableRecord
  2
*Model_Space
340
22
  0
BLOCK_RECORD
  5
1B
330
1
100
AcDbSymbolTableRecord
100
AcDbBlockTableRecord
  2
*Paper_Space
340
1E
  0
BLOCK_RECORD
  5
23
330
1
100
AcDbSymbolTableRecord
100
AcDbBlockTableRecord
  2
*Paper_Space0
340
26
  0
ENDTAB
  0
ENDSEC
  0
SECTION
  2
BLOCKS
  0
BLOCK
  5
20
330
1F
100
AcDbEntity
  8
0
100
AcDbBlockBegin
  2
*Model_Space
 70
     0
 10
0.0
 20
0.0
 30
0.0
  3
*Model_Space
  1

  0
ENDBLK
  5
21
330
1F
100
AcDbEntity
  8
0
100
AcDbBlockEnd
  0
BLOCK
  5
1C
330
1B
100
AcDbEntity
 67
     1
  8
0
100
AcDbBlockBegin
  2
*Paper_Space
 70
     0
 10
0.0
 20
0.0
 30
0.0
  3
*Paper_Space
  1

  0
ENDBLK
  5
1D
330
1B
100
AcDbEntity
 67
     1
  8
0
100
AcDbBlockEnd
  0
BLOCK
  5
24
330
23
100
AcDbEntity
  8
0
100
AcDbBlockBegin
  2
*Paper_Space0
 70
     0
 10
0.0
 20
0.0
 30
0.0
  3
*Paper_Space0
  1

  0
ENDBLK
  5
25
330
23
100
AcDbEntity
  8
0
100
AcDbBlockEnd
  0
ENDSEC
  0
SECTION
  2
ENTITIES
  0
CIRCLE
  5
73
330
1F
100
AcDbEntity
  8
0
  6
Continuous
 62
     7
370
    25
100
AcDbCircle
 10
-160.0
 20
615.0921068245
 30
0.0
 40
19.00000000000006
  0
CIRCLE
  5
2BC
330
1F
100
AcDbEntity
  8
0
  6
Continuous
 62
     7
370
    25
100
AcDbCircle
 10
-150.0
 20
289.0460534123
 30
0.0
 40
2.499999999999972
  0
CIRCLE
  5
2BD
330
1F
100
AcDbEntity
  8
0
  6
Continuous
 62
     7
370
    25
100
AcDbCircle
 10
-150.0
 20
394.0460534123
 30
0.0
 40
2.500000000000028
  0
CIRCLE
  5
2BE
330
1F
100
AcDbEntity
  8
0
  6
Continuous
 62
     7
370
    25
100
AcDbCircle
 10
-275.0
 20
434.0460534123
 30
0.0
 40
2.499999999999943
  0
CIRCLE
  5
2BF
330
1F
100
AcDbEntity
  8
0
  6
Continuous
 62
     7
370
    25
100
AcDbCircle
 10
-45.0
 20
539.0460534123
 30
0.0
 40
2.499999999999929
  0
CIRCLE
  5
2C0
330
1F
100
AcDbEntity
  8
0
  6
Continuous
 62
     7
370
    25
100
AcDbCircle
 10
-275.0
 20
539.0460534123
 30
0.0
 40
2.499999999999943
  0
CIRCLE
  5
2C1
330
1F
100
AcDbEntity
  8
0
  6
Continuous
 62
     7
370
    25
100
AcDbCircle
 10
-150.0
 20
434.0460534123
 30
0.0
 40
2.500000000000028
  0
CIRCLE
  5
2C2
330
1F
100
AcDbEntity
  8
0
  6
Continuous
 62
     7
370
    25
100
AcDbCircle
 10
-170.0
 20
394.0460534123
 30
0.0
 40
2.500000000000028
  0
CIRCLE
  5
2C3
330
1F
100
AcDbEntity
  8
0
  6
Continuous
 62
     7
370
    25
100
AcDbCircle
 10
-170.0
 20
289.0460534123
 30
0.0
 40
2.499999999999972
  0
CIRCLE
  5
2C4
330
1F
100
AcDbEntity
  8
0
  6
Continuous
 62
     7
370
    25
100
AcDbCircle
 10
-45.0
 20
289.0460534123
 30
0.0
 40
2.499999999999957
  0
CIRCLE
  5
2C5
330
1F
100
AcDbEntity
  8
0
  6
Continuous
 62
     7
370
    25
100
AcDbCircle
 10
-45.0
 20
394.0460534123
 30
0.0
 40
2.499999999999943
  0
CIRCLE
  5
2C6
330
1F
100
AcDbEntity
  8
0
  6
Continuous
 62
     7
370
    25
100
AcDbCircle
 10
-170.0
 20
434.0460534123
 30
0.0
 40
2.500000000000028
  0
CIRCLE
  5
2C7
330
1F
100
AcDbEntity
  8
0
  6
Continuous
 62
     7
370
    25
100
AcDbCircle
 10
-150.0
 20
539.0460534123
 30
0.0
 40
2.499999999999915
  0
CIRCLE
  5
2C8
330
1F
100
AcDbEntity
  8
0
  6
Continuous
 62
     7
370
    25
100
AcDbCircle
 10
-170.0
 20
539.0460534123
 30
0.0
 40
2.5
  0
CIRCLE
  5
2C9
330
1F
100
AcDbEntity
  8
0
  6
Continuous
 62
     7
370
    25
100
AcDbCircle
 10
-45.0
 20
434.0460534123
 30
0.0
 40
2.500000000000043
  0
CIRCLE
  5
2CA
330
1F
100
AcDbEntity
  8
0
  6
Continuous
 62
     7
370
    25
100
AcDbCircle
 10
-275.0
 20
394.0460534123
 30
0.0
 40
2.500000000000057
  0
CIRCLE
  5
2CB
330
1F
100
AcDbEntity
  8
0
  6
Continuous
 62
     7
370
    25
100
AcDbCircle
 10
-275.0
 20
289.0460534123
 30
0.0
 40
2.5
  0
LINE
  5
2EC
330
1F
100
AcDbEntity
  8
0
  6
Continuous
 62
     7
370
    25
100
AcDbLine
 10
-206.9069358969
 20
534.6435439679
 30
0.0
 11
-203.3700378513
 21
543.1823711982
 31
0.0
  0
LINE
  5
2ED
330
1F
100
AcDbEntity
  8
0
  6
Continuous
 62
     7
370
    25
100
AcDbLine
 10
-208.7546949619
 20
535.4089108326
 30
0.0
 11
-206.9069358969
 21
534.6435439679
 31
0.0
  0
LINE
  5
2EE
330
1F
100
AcDbEntity
  8
0
  6
Continuous
 62
     7
370
    25
100
AcDbLine
 10
-206.2728852258
 20
525.7217739784
 30
0.0
 11
-208.7546949619
 21
535.4089108326
 31
0.0
  0
LINE
  5
2EF
330
1F
100
AcDbEntity
  8
0
  6
Continuous
 62
     7
370
    25
100
AcDbLine
 10
-197.6681405718
 20
530.8167096443
 30
0.0
 11
-206.2728852258
 21
525.7217739784
 31
0.0
  0
LINE
  5
2F0
330
1F
100
AcDbEntity
  8
0
  6
Continuous
 62
     7
370
    25
100
AcDbLine
 10
-199.5158996368
 20
531.582076509
 30
0.0
 11
-197.6681405718
 21
530.8167096443
 31
0.0
  0
LINE
  5
2F1
330
1F
100
AcDbEntity
  8
0
  6
Continuous
 62
     7
370
    25
100
AcDbLine
 10
-195.9790015913
 20
540.1209037393
 30
0.0
 11
-199.5158996368
 21
531.582076509
 31
0.0
  0
LINE
  5
2F2
330
1F
100
AcDbEntity
  8
0
  6
Continuous
 62
     7
370
    25
100
AcDbLine
 10
-238.0930641031
 20
438.4485628566
 30
0.0
 11
-241.6299621487
 21
429.9097356263
 31
0.0
  0
LINE
  5
2F3
330
1F
100
AcDbEntity
  8
0
  6
Continuous
 62
     7
370
    25
100
AcDbLine
 10
-236.2453050381
 20
437.6831959919
 30
0.0
 11
-238.0930641031
 21
438.4485628566
 31
0.0
  0
LINE
  5
2F4
330
1F
100
AcDbEntity
  8
0
  6
Continuous
 62
     7
370
    25
100
AcDbLine
 10
-238.7271147742
 20
447.3703328462
 30
0.0
 11
-236.2453050381
 21
437.6831959919
 31
0.0
  0
LINE
  5
2F5
330
1F
100
AcDbEntity
  8
0
  6
Continuous
 62
     7
370
    25
100
AcDbLine
 10
-247.3318594282
 20
442.2753971803
 30
0.0
 11
-238.7271147742
 21
447.3703328462
 31
0.0
  0
LINE
  5
2F6
330
1F
100
AcDbEntity
  8
0
  6
Continuous
 62
     7
370
    25
100
AcDbLine
 10
-245.4841003632
 20
441.5100303155
 30
0.0
 11
-247.3318594282
 21
442.2753971803
 31
0.0
  0
LINE
  5
2F7
330
1F
100
AcDbEntity
  8
0
  6
Continuous
 62
     7
370
    25
100
AcDbLine
 10
-249.0209984087
 20
432.9712030852
 30
0.0
 11
-245.4841003632
 21
441.5100303155
 31
0.0
  0
LINE
  5
2F8
330
1F
100
AcDbEntity
  8
0
  6
Continuous
 62
     7
370
    25
100
AcDbLine
 10
-279.136317786
 20
322.4160912636
 30
0.0
 11
-270.5974905557
 21
325.9529893092
 31
0.0
  0
LINE
  5
2F9
330
1F
100
AcDbEntity
  8
0
  6
Continuous
 62
     7
370
    25
100
AcDbLine
 10
-267.5360230967
 20
318.5619530491
 30
0.0
 11
-276.0748503271
 21
315.0250550035
 31
0.0
  0
LINE
  5
2FA
330
1F
100
AcDbEntity
  8
0
  6
Continuous
 62
     7
370
    25
100
AcDbLine
 10
-266.770656232
 20
316.7141939841
 30
0.0
 11
-267.5360230967
 21
318.5619530491
 31
0.0
  0
LINE
  5
2FB
330
1F
100
AcDbEntity
  8
0
  6
Continuous
 62
     7
370
    25
100
AcDbLine
 10
-261.6757205661
 20
325.318938638
 30
0.0
 11
-266.770656232
 21
316.7141939841
 31
0.0
  0
LINE
  5
2FC
330
1F
100
AcDbEntity
  8
0
  6
Continuous
 62
     7
370
    25
100
AcDbLine
 10
-271.3628574204
 20
327.8007483742
 30
0.0
 11
-261.6757205661
 21
325.318938638
 31
0.0
  0
LINE
  5
2FD
330
1F
100
AcDbEntity
  8
0
  6
Continuous
 62
     7
370
    25
100
AcDbLine
 10
-270.5974905557
 20
325.9529893092
 30
0.0
 11
-271.3628574204
 21
327.8007483742
 31
0.0
  0
LINE
  5
2FE
330
1F
100
AcDbEntity
  8
0
  6
Continuous
 62
     7
370
    25
100
AcDbLine
 10
-165.863682214
 20
360.6760155609
 30
0.0
 11
-174.4025094443
 21
357.1391175154
 31
0.0
  0
LINE
  5
2FF
330
1F
100
AcDbEntity
  8
0
  6
Continuous
 62
     7
370
    25
100
AcDbLine
 10
-177.4639769033
 20
364.5301537754
 30
0.0
 11
-168.9251496729
 21
368.067051821
 31
0.0
  0
LINE
  5
300
330
1F
100
AcDbEntity
  8
0
  6
Continuous
 62
     7
370
    25
100
AcDbLine
 10
-178.229343768
 20
366.3779128405
 30
0.0
 11
-177.4639769033
 21
364.5301537754
 31
0.0
  0
LINE
  5
301
330
1F
100
AcDbEntity
  8
0
  6
Continuous
 62
     7
370
    25
100
AcDbLine
 10
-183.3242794339
 20
357.7731681865
 30
0.0
 11
-178.229343768
 21
366.3779128405
 31
0.0
  0
LINE
  5
302
330
1F
100
AcDbEntity
  8
0
  6
Continuous
 62
     7
370
    25
100
AcDbLine
 10
-173.6371425796
 20
355.2913584503
 30
0.0
 11
-183.3242794339
 21
357.7731681865
 31
0.0
  0
LINE
  5
303
330
1F
100
AcDbEntity
  8
0
  6
Continuous
 62
     7
370
    25
100
AcDbLine
 10
-174.4025094443
 20
357.1391175154
 30
0.0
 11
-173.6371425796
 21
355.2913584503
 31
0.0
  0
LINE
  5
304
330
1F
100
AcDbEntity
  8
0
  6
Continuous
 62
     7
370
    25
100
AcDbLine
 10
-113.0930641031
 20
293.4485628566
 30
0.0
 11
-116.6299621487
 21
284.9097356263
 31
0.0
  0
LINE
  5
305
330
1F
100
AcDbEntity
  8
0
  6
Continuous
 62
     7
370
    25
100
AcDbLine
 10
-111.2453050381
 20
292.6831959919
 30
0.0
 11
-113.0930641031
 21
293.4485628566
 31
0.0
  0
LINE
  5
306
330
1F
100
AcDbEntity
  8
0
  6
Continuous
 62
     7
370
    25
100
AcDbLine
 10
-113.7271147742
 20
302.3703328462
 30
0.0
 11
-111.2453050381
 21
292.6831959919
 31
0.0
  0
LINE
  5
307
330
1F
100
AcDbEntity
  8
0
  6
Continuous
 62
     7
370
    25
100
AcDbLine
 10
-122.3318594282
 20
297.2753971803
 30
0.0
 11
-113.7271147742
 21
302.3703328462
 31
0.0
  0
LINE
  5
308
330
1F
100
AcDbEntity
  8
0
  6
Continuous
 62
     7
370
    25
100
AcDbLine
 10
-120.4841003632
 20
296.5100303155
 30
0.0
 11
-122.3318594282
 21
297.2753971803
 31
0.0
  0
LINE
  5
309
330
1F
100
AcDbEntity
  8
0
  6
Continuous
 62
     7
370
    25
100
AcDbLine
 10
-124.0209984087
 20
287.9712030852
 30
0.0
 11
-120.4841003632
 21
296.5100303155
 31
0.0
  0
LINE
  5
30A
330
1F
100
AcDbEntity
  8
0
  6
Continuous
 62
     7
370
    25
100
AcDbLine
 10
-81.9069358969
 20
389.6435439679
 30
0.0
 11
-78.3700378513
 21
398.1823711982
 31
0.0
  0
LINE
  5
30B
330
1F
100
AcDbEntity
  8
0
  6
Continuous
 62
     7
370
    25
100
AcDbLine
 10
-83.7546949619
 20
390.4089108326
 30
0.0
 11
-81.9069358969
 21
389.6435439679
 31
0.0
  0
LINE
  5
30C
330
1F
100
AcDbEntity
  8
0
  6
Continuous
 62
     7
370
    25
100
AcDbLine
 10
-81.2728852258
 20
380.7217739784
 30
0.0
 11
-83.7546949619
 21
390.4089108326
 31
0.0
  0
LINE
  5
30D
330
1F
100
AcDbEntity
  8
0
  6
Continuous
 62
     7
370
    25
100
AcDbLine
 10
-72.6681405718
 20
385.8167096443
 30
0.0
 11
-81.2728852258
 21
380.7217739784
 31
0.0
  0
LINE
  5
30E
330
1F
100
AcDbEntity
  8
0
  6
Continuous
 62
     7
370
    25
100
AcDbLine
 10
-74.5158996368
 20
386.582076509
 30
0.0
 11
-72.6681405718
 21
385.8167096443
 31
0.0
  0
LINE
  5
30F
330
1F
100
AcDbEntity
  8
0
  6
Continuous
 62
     7
370
    25
100
AcDbLine
 10
-70.9790015913
 20
395.1209037393
 30
0.0
 11
-74.5158996368
 21
386.582076509
 31
0.0
  0
LINE
  5
310
330
1F
100
AcDbEntity
  8
0
  6
Continuous
 62
     7
370
    25
100
AcDbLine
 10
-113.0930641031
 20
438.4485628566
 30
0.0
 11
-116.6299621487
 21
429.9097356263
 31
0.0
  0
LINE
  5
311
330
1F
100
AcDbEntity
  8
0
  6
Continuous
 62
     7
370
    25
100
AcDbLine
 10
-111.2453050381
 20
437.6831959919
 30
0.0
 11
-113.0930641031
 21
438.4485628566
 31
0.0
  0
LINE
  5
312
330
1F
100
AcDbEntity
  8
0
  6
Continuous
 62
     7
370
    25
100
AcDbLine
 10
-113.7271147742
 20
447.3703328462
 30
0.0
 11
-111.2453050381
 21
437.6831959919
 31
0.0
  0
LINE
  5
313
330
1F
100
AcDbEntity
  8
0
  6
Continuous
 62
     7
370
    25
100
AcDbLine
 10
-122.3318594282
 20
442.2753971803
 30
0.0
 11
-113.7271147742
 21
447.3703328462
 31
0.0
  0
LINE
  5
314
330
1F
100
AcDbEntity
  8
0
  6
Continuous
 62
     7
370
    25
100
AcDbLine
 10
-120.4841003632
 20
441.5100303155
 30
0.0
 11
-122.3318594282
 21
442.2753971803
 31
0.0
  0
LINE
  5
315
330
1F
100
AcDbEntity
  8
0
  6
Continuous
 62
     7
370
    25
100
AcDbLine
 10
-124.0209984087
 20
432.9712030852
 30
0.0
 11
-120.4841003632
 21
441.5100303155
 31
0.0
  0
LINE
  5
316
330
1F
100
AcDbEntity
  8
0
  6
Continuous
 62
     7
370
    25
100
AcDbLine
 10
-81.9069358969
 20
534.6435439679
 30
0.0
 11
-78.3700378513
 21
543.1823711982
 31
0.0
  0
LINE
  5
317
330
1F
100
AcDbEntity
  8
0
  6
Continuous
 62
     7
370
    25
100
AcDbLine
 10
-83.7546949619
 20
535.4089108326
 30
0.0
 11
-81.9069358969
 21
534.6435439679
 31
0.0
  0
LINE
  5
318
330
1F
100
AcDbEntity
  8
0
  6
Continuous
 62
     7
370
    25
100
AcDbLine
 10
-81.2728852258
 20
525.7217739784
 30
0.0
 11
-83.7546949619
 21
535.4089108326
 31
0.0
  0
LINE
  5
319
330
1F
100
AcDbEntity
  8
0
  6
Continuous
 62
     7
370
    25
100
AcDbLine
 10
-72.6681405718
 20
530.8167096443
 30
0.0
 11
-81.2728852258
 21
525.7217739784
 31
0.0
  0
LINE
  5
31A
330
1F
100
AcDbEntity
  8
0
  6
Continuous
 62
     7
370
    25
100
AcDbLine
 10
-74.5158996368
 20
531.582076509
 30
0.0
 11
-72.6681405718
 21
530.8167096443
 31
0.0
  0
LINE
  5
31B
330
1F
100
AcDbEntity
  8
0
  6
Continuous
 62
     7
370
    25
100
AcDbLine
 10
-70.9790015913
 20
540.1209037393
 30
0.0
 11
-74.5158996368
 21
531.582076509
 31
0.0
  0
LINE
  5
31C
330
1F
100
AcDbEntity
  8
0
  6
Continuous
 62
     7
370
    25
100
AcDbLine
 10
-120.4841003632
 20
531.582076509
 30
0.0
 11
-124.0209984087
 21
540.1209037393
 31
0.0
  0
LINE
  5
31D
330
1F
100
AcDbEntity
  8
0
  6
Continuous
 62
     7
370
    25
100
AcDbLine
 10
-122.3318594282
 20
530.8167096443
 30
0.0
 11
-120.4841003632
 21
531.582076509
 31
0.0
  0
LINE
  5
31E
330
1F
100
AcDbEntity
  8
0
  6
Continuous
 62
     7
370
    25
100
AcDbLine
 10
-113.7271147742
 20
525.7217739784
 30
0.0
 11
-122.3318594282
 21
530.8167096443
 31
0.0
  0
LINE
  5
31F
330
1F
100
AcDbEntity
  8
0
  6
Continuous
 62
     7
370
    25
100
AcDbLine
 10
-111.2453050381
 20
535.4089108326
 30
0.0
 11
-113.7271147742
 21
525.7217739784
 31
0.0
  0
LINE
  5
320
330
1F
100
AcDbEntity
  8
0
  6
Continuous
 62
     7
370
    25
100
AcDbLine
 10
-113.0930641031
 20
534.6435439679
 30
0.0
 11
-111.2453050381
 21
535.4089108326
 31
0.0
  0
LINE
  5
321
330
1F
100
AcDbEntity
  8
0
  6
Continuous
 62
     7
370
    25
100
AcDbLine
 10
-116.6299621487
 20
543.1823711982
 30
0.0
 11
-113.0930641031
 21
534.6435439679
 31
0.0
  0
LINE
  5
322
330
1F
100
AcDbEntity
  8
0
  6
Continuous
 62
     7
370
    25
100
AcDbLine
 10
-74.5158996368
 20
441.5100303155
 30
0.0
 11
-70.9790015913
 21
432.9712030852
 31
0.0
  0
LINE
  5
323
330
1F
100
AcDbEntity
  8
0
  6
Continuous
 62
     7
370
    25
100
AcDbLine
 10
-81.2728852258
 20
447.3703328462
 30
0.0
 11
-72.6681405718
 21
442.2753971803
 31
0.0
  0
LINE
  5
324
330
1F
100
AcDbEntity
  8
0
  6
Continuous
 62
     7
370
    25
100
AcDbLine
 10
-83.7546949619
 20
437.6831959919
 30
0.0
 11
-81.2728852258
 21
447.3703328462
 31
0.0
  0
LINE
  5
325
330
1F
100
AcDbEntity
  8
0
  6
Continuous
 62
     7
370
    25
100
AcDbLine
 10
-81.9069358969
 20
438.4485628566
 30
0.0
 11
-83.7546949619
 21
437.6831959919
 31
0.0
  0
LINE
  5
326
330
1F
100
AcDbEntity
  8
0
  6
Continuous
 62
     7
370
    25
100
AcDbLine
 10
-78.3700378513
 20
429.9097356263
 30
0.0
 11
-81.9069358969
 21
438.4485628566
 31
0.0
  0
LINE
  5
327
330
1F
100
AcDbEntity
  8
0
  6
Continuous
 62
     7
370
    25
100
AcDbLine
 10
-120.4841003632
 20
386.582076509
 30
0.0
 11
-124.0209984087
 21
395.1209037393
 31
0.0
  0
LINE
  5
328
330
1F
100
AcDbEntity
  8
0
  6
Continuous
 62
     7
370
    25
100
AcDbLine
 10
-122.3318594282
 20
385.8167096443
 30
0.0
 11
-120.4841003632
 21
386.582076509
 31
0.0
  0
LINE
  5
329
330
1F
100
AcDbEntity
  8
0
  6
Continuous
 62
     7
370
    25
100
AcDbLine
 10
-113.7271147742
 20
380.7217739784
 30
0.0
 11
-122.3318594282
 21
385.8167096443
 31
0.0
  0
LINE
  5
32A
330
1F
100
AcDbEntity
  8
0
  6
Continuous
 62
     7
370
    25
100
AcDbLine
 10
-111.2453050381
 20
390.4089108326
 30
0.0
 11
-113.7271147742
 21
380.7217739784
 31
0.0
  0
LINE
  5
32B
330
1F
100
AcDbEntity
  8
0
  6
Continuous
 62
     7
370
    25
100
AcDbLine
 10
-113.0930641031
 20
389.6435439679
 30
0.0
 11
-111.2453050381
 21
390.4089108326
 31
0.0
  0
LINE
  5
32C
330
1F
100
AcDbEntity
  8
0
  6
Continuous
 62
     7
370
    25
100
AcDbLine
 10
-116.6299621487
 20
398.1823711982
 30
0.0
 11
-113.0930641031
 21
389.6435439679
 31
0.0
  0
LINE
  5
32D
330
1F
100
AcDbEntity
  8
0
  6
Continuous
 62
     7
370
    25
100
AcDbLine
 10
-74.5158996368
 20
296.5100303155
 30
0.0
 11
-70.9790015913
 21
287.9712030852
 31
0.0
  0
LINE
  5
32E
330
1F
100
AcDbEntity
  8
0
  6
Continuous
 62
     7
370
    25
100
AcDbLine
 10
-72.6681405718
 20
297.2753971803
 30
0.0
 11
-74.5158996368
 21
296.5100303155
 31
0.0
  0
LINE
  5
32F
330
1F
100
AcDbEntity
  8
0
  6
Continuous
 62
     7
370
    25
100
AcDbLine
 10
-81.2728852258
 20
302.3703328462
 30
0.0
 11
-72.6681405718
 21
297.2753971803
 31
0.0
  0
LINE
  5
330
330
1F
100
AcDbEntity
  8
0
  6
Continuous
 62
     7
370
    25
100
AcDbLine
 10
-83.7546949619
 20
292.6831959919
 30
0.0
 11
-81.2728852258
 21
302.3703328462
 31
0.0
  0
LINE
  5
331
330
1F
100
AcDbEntity
  8
0
  6
Continuous
 62
     7
370
    25
100
AcDbLine
 10
-81.9069358969
 20
293.4485628566
 30
0.0
 11
-83.7546949619
 21
292.6831959919
 31
0.0
  0
LINE
  5
332
330
1F
100
AcDbEntity
  8
0
  6
Continuous
 62
     7
370
    25
100
AcDbLine
 10
-78.3700378513
 20
284.9097356263
 30
0.0
 11
-81.9069358969
 21
293.4485628566
 31
0.0
  0
LINE
  5
333
330
1F
100
AcDbEntity
  8
0
  6
Continuous
 62
     7
370
    25
100
AcDbLine
 10
-195.9790015913
 20
395.1209037393
 30
0.0
 11
-199.5158996368
 21
386.582076509
 31
0.0
  0
LINE
  5
334
330
1F
100
AcDbEntity
  8
0
  6
Continuous
 62
     7
370
    25
100
AcDbLine
 10
-206.9069358969
 20
389.6435439679
 30
0.0
 11
-203.3700378513
 21
398.1823711982
 31
0.0
  0
LINE
  5
335
330
1F
100
AcDbEntity
  8
0
  6
Continuous
 62
     7
370
    25
100
AcDbLine
 10
-208.7546949619
 20
390.4089108326
 30
0.0
 11
-206.9069358969
 21
389.6435439679
 31
0.0
  0
LINE
  5
336
330
1F
100
AcDbEntity
  8
0
  6
Continuous
 62
     7
370
    25
100
AcDbLine
 10
-206.2728852258
 20
380.7217739784
 30
0.0
 11
-208.7546949619
 21
390.4089108326
 31
0.0
  0
LINE
  5
337
330
1F
100
AcDbEntity
  8
0
  6
Continuous
 62
     7
370
    25
100
AcDbLine
 10
-197.6681405718
 20
385.8167096443
 30
0.0
 11
-206.2728852258
 21
380.7217739784
 31
0.0
  0
LINE
  5
338
330
1F
100
AcDbEntity
  8
0
  6
Continuous
 62
     7
370
    25
100
AcDbLine
 10
-199.5158996368
 20
386.582076509
 30
0.0
 11
-197.6681405718
 21
385.8167096443
 31
0.0
  0
LINE
  5
339
330
1F
100
AcDbEntity
  8
0
  6
Continuous
 62
     7
370
    25
100
AcDbLine
 10
-249.0209984087
 20
287.9712030852
 30
0.0
 11
-245.4841003632
 21
296.5100303155
 31
0.0
  0
LINE
  5
33A
330
1F
100
AcDbEntity
  8
0
  6
Continuous
 62
     7
370
    25
100
AcDbLine
 10
-238.0930641031
 20
293.4485628566
 30
0.0
 11
-241.6299621487
 21
284.9097356263
 31
0.0
  0
LINE
  5
33B
330
1F
100
AcDbEntity
  8
0
  6
Continuous
 62
     7
370
    25
100
AcDbLine
 10
-236.2453050381
 20
292.6831959919
 30
0.0
 11
-238.0930641031
 21
293.4485628566
 31
0.0
  0
LINE
  5
33C
330
1F
100
AcDbEntity
  8
0
  6
Continuous
 62
     7
370
    25
100
AcDbLine
 10
-238.7271147742
 20
302.3703328462
 30
0.0
 11
-236.2453050381
 21
292.6831959919
 31
0.0
  0
LINE
  5
33D
330
1F
100
AcDbEntity
  8
0
  6
Continuous
 62
     7
370
    25
100
AcDbLine
 10
-247.3318594282
 20
297.2753971803
 30
0.0
 11
-238.7271147742
 21
302.3703328462
 31
0.0
  0
LINE
  5
33E
330
1F
100
AcDbEntity
  8
0
  6
Continuous
 62
     7
370
    25
100
AcDbLine
 10
-245.4841003632
 20
296.5100303155
 30
0.0
 11
-247.3318594282
 21
297.2753971803
 31
0.0
  0
LINE
  5
33F
330
1F
100
AcDbEntity
  8
0
  6
Continuous
 62
     7
370
    25
100
AcDbLine
 10
-267.5360230967
 20
463.5619530491
 30
0.0
 11
-276.0748503271
 21
460.0250550035
 31
0.0
  0
LINE
  5
340
330
1F
100
AcDbEntity
  8
0
  6
Continuous
 62
     7
370
    25
100
AcDbLine
 10
-266.770656232
 20
461.7141939841
 30
0.0
 11
-267.5360230967
 21
463.5619530491
 31
0.0
  0
LINE
  5
341
330
1F
100
AcDbEntity
  8
0
  6
Continuous
 62
     7
370
    25
100
AcDbLine
 10
-261.6757205661
 20
470.318938638
 30
0.0
 11
-266.770656232
 21
461.7141939841
 31
0.0
  0
LINE
  5
342
330
1F
100
AcDbEntity
  8
0
  6
Continuous
 62
     7
370
    25
100
AcDbLine
 10
-271.3628574204
 20
472.8007483742
 30
0.0
 11
-261.6757205661
 21
470.318938638
 31
0.0
  0
LINE
  5
343
330
1F
100
AcDbEntity
  8
0
  6
Continuous
 62
     7
370
    25
100
AcDbLine
 10
-270.5974905556
 20
470.9529893092
 30
0.0
 11
-271.3628574204
 21
472.8007483742
 31
0.0
  0
LINE
  5
344
330
1F
100
AcDbEntity
  8
0
  6
Continuous
 62
     7
370
    25
100
AcDbLine
 10
-279.136317786
 20
467.4160912636
 30
0.0
 11
-270.5974905556
 21
470.9529893092
 31
0.0
  0
LINE
  5
345
330
1F
100
AcDbEntity
  8
0
  6
Continuous
 62
     7
370
    25
100
AcDbLine
 10
-177.4639769033
 20
509.5301537754
 30
0.0
 11
-168.9251496729
 21
513.067051821
 31
0.0
  0
LINE
  5
346
330
1F
100
AcDbEntity
  8
0
  6
Continuous
 62
     7
370
    25
100
AcDbLine
 10
-178.229343768
 20
511.3779128405
 30
0.0
 11
-177.4639769033
 21
509.5301537754
 31
0.0
  0
LINE
  5
347
330
1F
100
AcDbEntity
  8
0
  6
Continuous
 62
     7
370
    25
100
AcDbLine
 10
-183.3242794339
 20
502.7731681865
 30
0.0
 11
-178.229343768
 21
511.3779128405
 31
0.0
  0
LINE
  5
348
330
1F
100
AcDbEntity
  8
0
  6
Continuous
 62
     7
370
    25
100
AcDbLine
 10
-173.6371425796
 20
500.2913584503
 30
0.0
 11
-183.3242794339
 21
502.7731681865
 31
0.0
  0
LINE
  5
349
330
1F
100
AcDbEntity
  8
0
  6
Continuous
 62
     7
370
    25
100
AcDbLine
 10
-174.4025094443
 20
502.1391175154
 30
0.0
 11
-173.6371425796
 21
500.2913584503
 31
0.0
  0
LINE
  5
34A
330
1F
100
AcDbEntity
  8
0
  6
Continuous
 62
     7
370
    25
100
AcDbLine
 10
-165.863682214
 20
505.6760155609
 30
0.0
 11
-174.4025094443
 21
502.1391175154
 31
0.0
  0
LINE
  5
34B
330
1F
100
AcDbEntity
  8
0
  6
Continuous
 62
     7
370
    25
100
AcDbLine
 10
-245.4841003632
 20
531.582076509
 30
0.0
 11
-249.0209984087
 21
540.1209037393
 31
0.0
  0
LINE
  5
34C
330
1F
100
AcDbEntity
  8
0
  6
Continuous
 62
     7
370
    25
100
AcDbLine
 10
-247.3318594282
 20
530.8167096443
 30
0.0
 11
-245.4841003632
 21
531.582076509
 31
0.0
  0
LINE
  5
34D
330
1F
100
AcDbEntity
  8
0
  6
Continuous
 62
     7
370
    25
100
AcDbLine
 10
-238.7271147742
 20
525.7217739784
 30
0.0
 11
-247.3318594282
 21
530.8167096443
 31
0.0
  0
LINE
  5
34E
330
1F
100
AcDbEntity
  8
0
  6
Continuous
 62
     7
370
    25
100
AcDbLine
 10
-236.2453050381
 20
535.4089108326
 30
0.0
 11
-238.7271147742
 21
525.7217739784
 31
0.0
  0
LINE
  5
34F
330
1F
100
AcDbEntity
  8
0
  6
Continuous
 62
     7
370
    25
100
AcDbLine
 10
-238.0930641031
 20
534.6435439679
 30
0.0
 11
-236.2453050381
 21
535.4089108326
 31
0.0
  0
LINE
  5
350
330
1F
100
AcDbEntity
  8
0
  6
Continuous
 62
     7
370
    25
100
AcDbLine
 10
-241.6299621487
 20
543.1823711982
 30
0.0
 11
-238.0930641031
 21
534.6435439679
 31
0.0
  0
LINE
  5
351
330
1F
100
AcDbEntity
  8
0
  6
Continuous
 62
     7
370
    25
100
AcDbLine
 10
-199.5158996368
 20
441.5100303155
 30
0.0
 11
-195.9790015913
 21
432.9712030852
 31
0.0
  0
LINE
  5
352
330
1F
100
AcDbEntity
  8
0
  6
Continuous
 62
     7
370
    25
100
AcDbLine
 10
-197.6681405718
 20
442.2753971803
 30
0.0
 11
-199.5158996368
 21
441.5100303155
 31
0.0
  0
LINE
  5
353
330
1F
100
AcDbEntity
  8
0
  6
Continuous
 62
     7
370
    25
100
AcDbLine
 10
-206.2728852258
 20
447.3703328462
 30
0.0
 11
-197.6681405718
 21
442.2753971803
 31
0.0
  0
LINE
  5
354
330
1F
100
AcDbEntity
  8
0
  6
Continuous
 62
     7
370
    25
100
AcDbLine
 10
-208.7546949619
 20
437.6831959919
 30
0.0
 11
-206.2728852258
 21
447.3703328462
 31
0.0
  0
LINE
  5
355
330
1F
100
AcDbEntity
  8
0
  6
Continuous
 62
     7
370
    25
100
AcDbLine
 10
-206.9069358969
 20
438.4485628566
 30
0.0
 11
-208.7546949619
 21
437.6831959919
 31
0.0
  0
LINE
  5
356
330
1F
100
AcDbEntity
  8
0
  6
Continuous
 62
     7
370
    25
100
AcDbLine
 10
-203.3700378513
 20
429.9097356263
 30
0.0
 11
-206.9069358969
 21
438.4485628566
 31
0.0
  0
LINE
  5
357
330
1F
100
AcDbEntity
  8
0
  6
Continuous
 62
     7
370
    25
100
AcDbLine
 10
-276.0748503271
 20
368.067051821
 30
0.0
 11
-267.5360230967
 21
364.5301537754
 31
0.0
  0
LINE
  5
358
330
1F
100
AcDbEntity
  8
0
  6
Continuous
 62
     7
370
    25
100
AcDbLine
 10
-270.5974905557
 20
357.1391175154
 30
0.0
 11
-279.136317786
 21
360.6760155609
 31
0.0
  0
LINE
  5
359
330
1F
100
AcDbEntity
  8
0
  6
Continuous
 62
     7
370
    25
100
AcDbLine
 10
-271.3628574204
 20
355.2913584503
 30
0.0
 11
-270.5974905557
 21
357.1391175154
 31
0.0
  0
LINE
  5
35A
330
1F
100
AcDbEntity
  8
0
  6
Continuous
 62
     7
370
    25
100
AcDbLine
 10
-261.6757205661
 20
357.7731681865
 30
0.0
 11
-271.3628574204
 21
355.2913584503
 31
0.0
  0
LINE
  5
35B
330
1F
100
AcDbEntity
  8
0
  6
Continuous
 62
     7
370
    25
100
AcDbLine
 10
-266.770656232
 20
366.3779128405
 30
0.0
 11
-261.6757205661
 21
357.7731681865
 31
0.0
  0
LINE
  5
35C
330
1F
100
AcDbEntity
  8
0
  6
Continuous
 62
     7
370
    25
100
AcDbLine
 10
-267.5360230967
 20
364.5301537754
 30
0.0
 11
-266.770656232
 21
366.3779128405
 31
0.0
  0
LINE
  5
35D
330
1F
100
AcDbEntity
  8
0
  6
Continuous
 62
     7
370
    25
100
AcDbLine
 10
-168.9251496729
 20
315.0250550035
 30
0.0
 11
-177.4639769033
 21
318.5619530491
 31
0.0
  0
LINE
  5
35E
330
1F
100
AcDbEntity
  8
0
  6
Continuous
 62
     7
370
    25
100
AcDbLine
 10
-174.4025094443
 20
325.9529893092
 30
0.0
 11
-165.863682214
 21
322.4160912636
 31
0.0
  0
LINE
  5
35F
330
1F
100
AcDbEntity
  8
0
  6
Continuous
 62
     7
370
    25
100
AcDbLine
 10
-173.6371425796
 20
327.8007483742
 30
0.0
 11
-174.4025094443
 21
325.9529893092
 31
0.0
  0
LINE
  5
360
330
1F
100
AcDbEntity
  8
0
  6
Continuous
 62
     7
370
    25
100
AcDbLine
 10
-183.3242794339
 20
325.318938638
 30
0.0
 11
-173.6371425796
 21
327.8007483742
 31
0.0
  0
LINE
  5
361
330
1F
100
AcDbEntity
  8
0
  6
Continuous
 62
     7
370
    25
100
AcDbLine
 10
-178.229343768
 20
316.7141939841
 30
0.0
 11
-183.3242794339
 21
325.318938638
 31
0.0
  0
LINE
  5
362
330
1F
100
AcDbEntity
  8
0
  6
Continuous
 62
     7
370
    25
100
AcDbLine
 10
-177.4639769033
 20
318.5619530491
 30
0.0
 11
-178.229343768
 21
316.7141939841
 31
0.0
  0
LINE
  5
363
330
1F
100
AcDbEntity
  8
0
  6
Continuous
 62
     7
370
    25
100
AcDbLine
 10
-142.5360230967
 20
318.5619530491
 30
0.0
 11
-151.0748503271
 21
315.0250550035
 31
0.0
  0
LINE
  5
364
330
1F
100
AcDbEntity
  8
0
  6
Continuous
 62
     7
370
    25
100
AcDbLine
 10
-141.770656232
 20
316.7141939841
 30
0.0
 11
-142.5360230967
 21
318.5619530491
 31
0.0
  0
LINE
  5
365
330
1F
100
AcDbEntity
  8
0
  6
Continuous
 62
     7
370
    25
100
AcDbLine
 10
-136.6757205661
 20
325.318938638
 30
0.0
 11
-141.770656232
 21
316.7141939841
 31
0.0
  0
LINE
  5
366
330
1F
100
AcDbEntity
  8
0
  6
Continuous
 62
     7
370
    25
100
AcDbLine
 10
-146.3628574204
 20
327.8007483742
 30
0.0
 11
-136.6757205661
 21
325.318938638
 31
0.0
  0
LINE
  5
367
330
1F
100
AcDbEntity
  8
0
  6
Continuous
 62
     7
370
    25
100
AcDbLine
 10
-145.5974905557
 20
325.9529893092
 30
0.0
 11
-146.3628574204
 21
327.8007483742
 31
0.0
  0
LINE
  5
368
330
1F
100
AcDbEntity
  8
0
  6
Continuous
 62
     7
370
    25
100
AcDbLine
 10
-154.136317786
 20
322.4160912636
 30
0.0
 11
-145.5974905557
 21
325.9529893092
 31
0.0
  0
LINE
  5
369
330
1F
100
AcDbEntity
  8
0
  6
Continuous
 62
     7
370
    25
100
AcDbLine
 10
-52.4639769033
 20
364.5301537754
 30
0.0
 11
-43.9251496729
 21
368.067051821
 31
0.0
  0
LINE
  5
36A
330
1F
100
AcDbEntity
  8
0
  6
Continuous
 62
     7
370
    25
100
AcDbLine
 10
-53.229343768
 20
366.3779128405
 30
0.0
 11
-52.4639769033
 21
364.5301537754
 31
0.0
  0
LINE
  5
36B
330
1F
100
AcDbEntity
  8
0
  6
Continuous
 62
     7
370
    25
100
AcDbLine
 10
-58.3242794339
 20
357.7731681865
 30
0.0
 11
-53.229343768
 21
366.3779128405
 31
0.0
  0
LINE
  5
36C
330
1F
100
AcDbEntity
  8
0
  6
Continuous
 62
     7
370
    25
100
AcDbLine
 10
-48.6371425796
 20
355.2913584503
 30
0.0
 11
-58.3242794339
 21
357.7731681865
 31
0.0
  0
LINE
  5
36D
330
1F
100
AcDbEntity
  8
0
  6
Continuous
 62
     7
370
    25
100
AcDbLine
 10
-49.4025094443
 20
357.1391175153
 30
0.0
 11
-48.6371425796
 21
355.2913584503
 31
0.0
  0
LINE
  5
36E
330
1F
100
AcDbEntity
  8
0
  6
Continuous
 62
     7
370
    25
100
AcDbLine
 10
-40.863682214
 20
360.6760155609
 30
0.0
 11
-49.4025094443
 21
357.1391175153
 31
0.0
  0
LINE
  5
36F
330
1F
100
AcDbEntity
  8
0
  6
Continuous
 62
     7
370
    25
100
AcDbLine
 10
-142.5360230967
 20
463.5619530491
 30
0.0
 11
-151.0748503271
 21
460.0250550035
 31
0.0
  0
LINE
  5
370
330
1F
100
AcDbEntity
  8
0
  6
Continuous
 62
     7
370
    25
100
AcDbLine
 10
-141.770656232
 20
461.7141939841
 30
0.0
 11
-142.5360230967
 21
463.5619530491
 31
0.0
  0
LINE
  5
371
330
1F
100
AcDbEntity
  8
0
  6
Continuous
 62
     7
370
    25
100
AcDbLine
 10
-136.6757205661
 20
470.318938638
 30
0.0
 11
-141.770656232
 21
461.7141939841
 31
0.0
  0
LINE
  5
372
330
1F
100
AcDbEntity
  8
0
  6
Continuous
 62
     7
370
    25
100
AcDbLine
 10
-146.3628574204
 20
472.8007483742
 30
0.0
 11
-136.6757205661
 21
470.318938638
 31
0.0
  0
LINE
  5
373
330
1F
100
AcDbEntity
  8
0
  6
Continuous
 62
     7
370
    25
100
AcDbLine
 10
-145.5974905556
 20
470.9529893092
 30
0.0
 11
-146.3628574204
 21
472.8007483742
 31
0.0
  0
LINE
  5
374
330
1F
100
AcDbEntity
  8
0
  6
Continuous
 62
     7
370
    25
100
AcDbLine
 10
-154.136317786
 20
467.4160912636
 30
0.0
 11
-145.5974905556
 21
470.9529893092
 31
0.0
  0
LINE
  5
375
330
1F
100
AcDbEntity
  8
0
  6
Continuous
 62
     7
370
    25
100
AcDbLine
 10
-52.4639769033
 20
509.5301537754
 30
0.0
 11
-43.9251496729
 21
513.067051821
 31
0.0
  0
LINE
  5
376
330
1F
100
AcDbEntity
  8
0
  6
Continuous
 62
     7
370
    25
100
AcDbLine
 10
-53.229343768
 20
511.3779128405
 30
0.0
 11
-52.4639769033
 21
509.5301537754
 31
0.0
  0
LINE
  5
377
330
1F
100
AcDbEntity
  8
0
  6
Continuous
 62
     7
370
    25
100
AcDbLine
 10
-58.3242794339
 20
502.7731681865
 30
0.0
 11
-53.229343768
 21
511.3779128405
 31
0.0
  0
LINE
  5
378
330
1F
100
AcDbEntity
  8
0
  6
Continuous
 62
     7
370
    25
100
AcDbLine
 10
-48.6371425796
 20
500.2913584503
 30
0.0
 11
-58.3242794339
 21
502.7731681865
 31
0.0
  0
LINE
  5
379
330
1F
100
AcDbEntity
  8
0
  6
Continuous
 62
     7
370
    25
100
AcDbLine
 10
-49.4025094443
 20
502.1391175153
 30
0.0
 11
-48.6371425796
 21
500.2913584503
 31
0.0
  0
LINE
  5
37A
330
1F
100
AcDbEntity
  8
0
  6
Continuous
 62
     7
370
    25
100
AcDbLine
 10
-40.863682214
 20
505.6760155609
 30
0.0
 11
-49.4025094443
 21
502.1391175153
 31
0.0
  0
LINE
  5
37B
330
1F
100
AcDbEntity
  8
0
  6
Continuous
 62
     7
370
    25
100
AcDbLine
 10
-145.5974905556
 20
502.1391175154
 30
0.0
 11
-154.136317786
 21
505.6760155609
 31
0.0
  0
LINE
  5
37C
330
1F
100
AcDbEntity
  8
0
  6
Continuous
 62
     7
370
    25
100
AcDbLine
 10
-146.3628574204
 20
500.2913584503
 30
0.0
 11
-145.5974905556
 21
502.1391175154
 31
0.0
  0
LINE
  5
37D
330
1F
100
AcDbEntity
  8
0
  6
Continuous
 62
     7
370
    25
100
AcDbLine
 10
-136.6757205661
 20
502.7731681865
 30
0.0
 11
-146.3628574204
 21
500.2913584503
 31
0.0
  0
LINE
  5
37E
330
1F
100
AcDbEntity
  8
0
  6
Continuous
 62
     7
370
    25
100
AcDbLine
 10
-141.770656232
 20
511.3779128405
 30
0.0
 11
-136.6757205661
 21
502.7731681865
 31
0.0
  0
LINE
  5
37F
330
1F
100
AcDbEntity
  8
0
  6
Continuous
 62
     7
370
    25
100
AcDbLine
 10
-142.5360230967
 20
509.5301537754
 30
0.0
 11
-141.770656232
 21
511.3779128405
 31
0.0
  0
LINE
  5
380
330
1F
100
AcDbEntity
  8
0
  6
Continuous
 62
     7
370
    25
100
AcDbLine
 10
-151.0748503271
 20
513.067051821
 30
0.0
 11
-142.5360230967
 21
509.5301537754
 31
0.0
  0
LINE
  5
381
330
1F
100
AcDbEntity
  8
0
  6
Continuous
 62
     7
370
    25
100
AcDbLine
 10
-49.4025094443
 20
470.9529893092
 30
0.0
 11
-40.863682214
 21
467.4160912636
 31
0.0
  0
LINE
  5
382
330
1F
100
AcDbEntity
  8
0
  6
Continuous
 62
     7
370
    25
100
AcDbLine
 10
-48.6371425796
 20
472.8007483742
 30
0.0
 11
-49.4025094443
 21
470.9529893092
 31
0.0
  0
LINE
  5
383
330
1F
100
AcDbEntity
  8
0
  6
Continuous
 62
     7
370
    25
100
AcDbLine
 10
-58.3242794339
 20
470.318938638
 30
0.0
 11
-48.6371425796
 21
472.8007483742
 31
0.0
  0
LINE
  5
384
330
1F
100
AcDbEntity
  8
0
  6
Continuous
 62
     7
370
    25
100
AcDbLine
 10
-53.229343768
 20
461.7141939841
 30
0.0
 11
-58.3242794339
 21
470.318938638
 31
0.0
  0
LINE
  5
385
330
1F
100
AcDbEntity
  8
0
  6
Continuous
 62
     7
370
    25
100
AcDbLine
 10
-52.4639769033
 20
463.5619530491
 30
0.0
 11
-53.229343768
 21
461.7141939841
 31
0.0
  0
LINE
  5
386
330
1F
100
AcDbEntity
  8
0
  6
Continuous
 62
     7
370
    25
100
AcDbLine
 10
-43.9251496729
 20
460.0250550035
 30
0.0
 11
-52.4639769033
 21
463.5619530491
 31
0.0
  0
LINE
  5
387
330
1F
100
AcDbEntity
  8
0
  6
Continuous
 62
     7
370
    25
100
AcDbLine
 10
-145.5974905557
 20
357.1391175153
 30
0.0
 11
-154.136317786
 21
360.6760155609
 31
0.0
  0
LINE
  5
388
330
1F
100
AcDbEntity
  8
0
  6
Continuous
 62
     7
370
    25
100
AcDbLine
 10
-146.3628574204
 20
355.2913584503
 30
0.0
 11
-145.5974905557
 21
357.1391175153
 31
0.0
  0
LINE
  5
389
330
1F
100
AcDbEntity
  8
0
  6
Continuous
 62
     7
370
    25
100
AcDbLine
 10
-136.6757205661
 20
357.7731681865
 30
0.0
 11
-146.3628574204
 21
355.2913584503
 31
0.0
  0
LINE
  5
38A
330
1F
100
AcDbEntity
  8
0
  6
Continuous
 62
     7
370
    25
100
AcDbLine
 10
-141.770656232
 20
366.3779128405
 30
0.0
 11
-136.6757205661
 21
357.7731681865
 31
0.0
  0
LINE
  5
38B
330
1F
100
AcDbEntity
  8
0
  6
Continuous
 62
     7
370
    25
100
AcDbLine
 10
-142.5360230967
 20
364.5301537754
 30
0.0
 11
-141.770656232
 21
366.3779128405
 31
0.0
  0
LINE
  5
38C
330
1F
100
AcDbEntity
  8
0
  6
Continuous
 62
     7
370
    25
100
AcDbLine
 10
-151.0748503271
 20
368.067051821
 30
0.0
 11
-142.5360230967
 21
364.5301537754
 31
0.0
  0
LINE
  5
38D
330
1F
100
AcDbEntity
  8
0
  6
Continuous
 62
     7
370
    25
100
AcDbLine
 10
-49.4025094444
 20
325.9529893092
 30
0.0
 11
-40.863682214
 21
322.4160912636
 31
0.0
  0
LINE
  5
38E
330
1F
100
AcDbEntity
  8
0
  6
Continuous
 62
     7
370
    25
100
AcDbLine
 10
-48.6371425796
 20
327.8007483742
 30
0.0
 11
-49.4025094444
 21
325.9529893092
 31
0.0
  0
LINE
  5
38F
330
1F
100
AcDbEntity
  8
0
  6
Continuous
 62
     7
370
    25
100
AcDbLine
 10
-58.3242794339
 20
325.318938638
 30
0.0
 11
-48.6371425796
 21
327.8007483742
 31
0.0
  0
LINE
  5
390
330
1F
100
AcDbEntity
  8
0
  6
Continuous
 62
     7
370
    25
100
AcDbLine
 10
-53.229343768
 20
316.714193984
 30
0.0
 11
-58.3242794339
 21
325.318938638
 31
0.0
  0
LINE
  5
391
330
1F
100
AcDbEntity
  8
0
  6
Continuous
 62
     7
370
    25
100
AcDbLine
 10
-52.4639769033
 20
318.5619530491
 30
0.0
 11
-53.229343768
 21
316.714193984
 31
0.0
  0
LINE
  5
392
330
1F
100
AcDbEntity
  8
0
  6
Continuous
 62
     7
370
    25
100
AcDbLine
 10
-43.9251496729
 20
315.0250550035
 30
0.0
 11
-52.4639769033
 21
318.5619530491
 31
0.0
  0
LINE
  5
393
330
1F
100
AcDbEntity
  8
0
  6
Continuous
 62
     7
370
    25
100
AcDbLine
 10
-241.6299621487
 20
398.1823711982
 30
0.0
 11
-238.0930641031
 21
389.6435439679
 31
0.0
  0
LINE
  5
394
330
1F
100
AcDbEntity
  8
0
  6
Continuous
 62
     7
370
    25
100
AcDbLine
 10
-245.4841003632
 20
386.582076509
 30
0.0
 11
-249.0209984087
 21
395.1209037393
 31
0.0
  0
LINE
  5
395
330
1F
100
AcDbEntity
  8
0
  6
Continuous
 62
     7
370
    25
100
AcDbLine
 10
-247.3318594282
 20
385.8167096443
 30
0.0
 11
-245.4841003632
 21
386.582076509
 31
0.0
  0
LINE
  5
396
330
1F
100
AcDbEntity
  8
0
  6
Continuous
 62
     7
370
    25
100
AcDbLine
 10
-238.7271147742
 20
380.7217739784
 30
0.0
 11
-247.3318594282
 21
385.8167096443
 31
0.0
  0
LINE
  5
397
330
1F
100
AcDbEntity
  8
0
  6
Continuous
 62
     7
370
    25
100
AcDbLine
 10
-236.2453050381
 20
390.4089108326
 30
0.0
 11
-238.7271147742
 21
380.7217739784
 31
0.0
  0
LINE
  5
398
330
1F
100
AcDbEntity
  8
0
  6
Continuous
 62
     7
370
    25
100
AcDbLine
 10
-238.0930641031
 20
389.6435439679
 30
0.0
 11
-236.2453050381
 21
390.4089108326
 31
0.0
  0
LINE
  5
399
330
1F
100
AcDbEntity
  8
0
  6
Continuous
 62
     7
370
    25
100
AcDbLine
 10
-203.3700378513
 20
284.9097356263
 30
0.0
 11
-206.9069358969
 21
293.4485628566
 31
0.0
  0
LINE
  5
39A
330
1F
100
AcDbEntity
  8
0
  6
Continuous
 62
     7
370
    25
100
AcDbLine
 10
-199.5158996368
 20
296.5100303155
 30
0.0
 11
-195.9790015913
 21
287.9712030852
 31
0.0
  0
LINE
  5
39B
330
1F
100
AcDbEntity
  8
0
  6
Continuous
 62
     7
370
    25
100
AcDbLine
 10
-197.6681405718
 20
297.2753971803
 30
0.0
 11
-199.5158996368
 21
296.5100303155
 31
0.0
  0
LINE
  5
39C
330
1F
100
AcDbEntity
  8
0
  6
Continuous
 62
     7
370
    25
100
AcDbLine
 10
-206.2728852258
 20
302.3703328462
 30
0.0
 11
-197.6681405718
 21
297.2753971803
 31
0.0
  0
LINE
  5
39D
330
1F
100
AcDbEntity
  8
0
  6
Continuous
 62
     7
370
    25
100
AcDbLine
 10
-208.7546949619
 20
292.6831959919
 30
0.0
 11
-206.2728852258
 21
302.3703328462
 31
0.0
  0
LINE
  5
39E
330
1F
100
AcDbEntity
  8
0
  6
Continuous
 62
     7
370
    25
100
AcDbLine
 10
-206.9069358969
 20
293.4485628566
 30
0.0
 11
-208.7546949619
 21
292.6831959919
 31
0.0
  0
LINE
  5
39F
330
1F
100
AcDbEntity
  8
0
  6
Continuous
 62
     7
370
    25
100
AcDbLine
 10
-270.5974905556
 20
502.1391175154
 30
0.0
 11
-279.136317786
 21
505.6760155609
 31
0.0
  0
LINE
  5
3A0
330
1F
100
AcDbEntity
  8
0
  6
Continuous
 62
     7
370
    25
100
AcDbLine
 10
-271.3628574204
 20
500.2913584503
 30
0.0
 11
-270.5974905556
 21
502.1391175154
 31
0.0
  0
LINE
  5
3A1
330
1F
100
AcDbEntity
  8
0
  6
Continuous
 62
     7
370
    25
100
AcDbLine
 10
-261.6757205661
 20
502.7731681865
 30
0.0
 11
-271.3628574204
 21
500.2913584503
 31
0.0
  0
LINE
  5
3A2
330
1F
100
AcDbEntity
  8
0
  6
Continuous
 62
     7
370
    25
100
AcDbLine
 10
-266.770656232
 20
511.3779128405
 30
0.0
 11
-261.6757205661
 21
502.7731681865
 31
0.0
  0
LINE
  5
3A3
330
1F
100
AcDbEntity
  8
0
  6
Continuous
 62
     7
370
    25
100
AcDbLine
 10
-267.5360230967
 20
509.5301537754
 30
0.0
 11
-266.770656232
 21
511.3779128405
 31
0.0
  0
LINE
  5
3A4
330
1F
100
AcDbEntity
  8
0
  6
Continuous
 62
     7
370
    25
100
AcDbLine
 10
-276.0748503271
 20
513.067051821
 30
0.0
 11
-267.5360230967
 21
509.5301537754
 31
0.0
  0
LINE
  5
3A5
330
1F
100
AcDbEntity
  8
0
  6
Continuous
 62
     7
370
    25
100
AcDbLine
 10
-174.4025094443
 20
470.9529893092
 30
0.0
 11
-165.863682214
 21
467.4160912636
 31
0.0
  0
LINE
  5
3A6
330
1F
100
AcDbEntity
  8
0
  6
Continuous
 62
     7
370
    25
100
AcDbLine
 10
-173.6371425796
 20
472.8007483742
 30
0.0
 11
-174.4025094443
 21
470.9529893092
 31
0.0
  0
LINE
  5
3A7
330
1F
100
AcDbEntity
  8
0
  6
Continuous
 62
     7
370
    25
100
AcDbLine
 10
-183.3242794339
 20
470.318938638
 30
0.0
 11
-173.6371425796
 21
472.8007483742
 31
0.0
  0
LINE
  5
3A8
330
1F
100
AcDbEntity
  8
0
  6
Continuous
 62
     7
370
    25
100
AcDbLine
 10
-178.229343768
 20
461.7141939841
 30
0.0
 11
-183.3242794339
 21
470.318938638
 31
0.0
  0
LINE
  5
3A9
330
1F
100
AcDbEntity
  8
0
  6
Continuous
 62
     7
370
    25
100
AcDbLine
 10
-177.4639769033
 20
463.5619530491
 30
0.0
 11
-178.229343768
 21
461.7141939841
 31
0.0
  0
LINE
  5
3AA
330
1F
100
AcDbEntity
  8
0
  6
Continuous
 62
     7
370
    25
100
AcDbLine
 10
-168.9251496729
 20
460.0250550035
 30
0.0
 11
-177.4639769033
 21
463.5619530491
 31
0.0
  0
LINE
  5
3AB
330
1F
100
AcDbEntity
  8
0
  6
Continuous
 62
     7
370
    25
100
AcDbLine
 10
-72.6681405718
 20
442.2753971803
 30
0.0
 11
-74.5158996368
 21
441.5100303155
 31
0.0
  0
LINE
  5
3AC
330
1F
100
AcDbEntity
  8
0
  6
Continuous
 62
     7
370
    25
100
AcDbLine
 10
-244.5262794416
 20
459.3954183176
 30
0.0
 11
-244.5262794416
 21
470.3954183176
 31
0.0
  0
LINE
  5
3AD
330
1F
100
AcDbEntity
  8
0
  6
Continuous
 62
     7
370
    25
100
AcDbLine
 10
-244.5262794416
 20
470.3954183176
 30
0.0
 11
-235.0
 21
475.8954183176
 31
0.0
  0
LINE
  5
3AE
330
1F
100
AcDbEntity
  8
0
  6
Continuous
 62
     7
370
    25
100
AcDbLine
 10
-235.0
 20
475.8954183176
 30
0.0
 11
-225.4737205584
 21
470.3954183176
 31
0.0
  0
LINE
  5
3AF
330
1F
100
AcDbEntity
  8
0
  6
Continuous
 62
     7
370
    25
100
AcDbLine
 10
-225.4737205584
 20
470.3954183176
 30
0.0
 11
-225.4737205584
 21
459.3954183176
 31
0.0
  0
LINE
  5
3B0
330
1F
100
AcDbEntity
  8
0
  6
Continuous
 62
     7
370
    25
100
AcDbLine
 10
-225.4737205584
 20
459.3954183176
 30
0.0
 11
-235.0
 21
453.8954183176
 31
0.0
  0
LINE
  5
3B1
330
1F
100
AcDbEntity
  8
0
  6
Continuous
 62
     7
370
    25
100
AcDbLine
 10
-235.0
 20
453.8954183176
 30
0.0
 11
-244.5262794416
 21
459.3954183176
 31
0.0
  0
LINE
  5
3B2
330
1F
100
AcDbEntity
  8
0
  6
Continuous
 62
     7
370
    25
100
AcDbLine
 10
-235.0
 20
519.1966885069
 30
0.0
 11
-225.4737205584
 21
513.6966885069
 31
0.0
  0
LINE
  5
3B3
330
1F
100
AcDbEntity
  8
0
  6
Continuous
 62
     7
370
    25
100
AcDbLine
 10
-225.4737205584
 20
513.6966885069
 30
0.0
 11
-225.4737205584
 21
502.6966885069
 31
0.0
  0
LINE
  5
3B4
330
1F
100
AcDbEntity
  8
0
  6
Continuous
 62
     7
370
    25
100
AcDbLine
 10
-225.4737205584
 20
502.6966885069
 30
0.0
 11
-235.0
 21
497.1966885069
 31
0.0
  0
LINE
  5
3B5
330
1F
100
AcDbEntity
  8
0
  6
Continuous
 62
     7
370
    25
100
AcDbLine
 10
-235.0
 20
497.1966885069
 30
0.0
 11
-244.5262794416
 21
502.6966885069
 31
0.0
  0
LINE
  5
3B6
330
1F
100
AcDbEntity
  8
0
  6
Continuous
 62
     7
370
    25
100
AcDbLine
 10
-244.5262794416
 20
502.6966885069
 30
0.0
 11
-244.5262794416
 21
513.6966885069
 31
0.0
  0
LINE
  5
3B7
330
1F
100
AcDbEntity
  8
0
  6
Continuous
 62
     7
370
    25
100
AcDbLine
 10
-244.5262794416
 20
513.6966885069
 30
0.0
 11
-235.0
 21
519.1966885069
 31
0.0
  0
LINE
  5
3B8
330
1F
100
AcDbEntity
  8
0
  6
Continuous
 62
     7
370
    25
100
AcDbLine
 10
-232.0262794416
 20
492.0460534123
 30
0.0
 11
-222.5
 21
497.5460534123
 31
0.0
  0
LINE
  5
3B9
330
1F
100
AcDbEntity
  8
0
  6
Continuous
 62
     7
370
    25
100
AcDbLine
 10
-222.5
 20
497.5460534123
 30
0.0
 11
-212.9737205584
 21
492.0460534123
 31
0.0
  0
LINE
  5
3BA
330
1F
100
AcDbEntity
  8
0
  6
Continuous
 62
     7
370
    25
100
AcDbLine
 10
-212.9737205584
 20
492.0460534123
 30
0.0
 11
-212.9737205584
 21
481.0460534123
 31
0.0
  0
LINE
  5
3BB
330
1F
100
AcDbEntity
  8
0
  6
Continuous
 62
     7
370
    25
100
AcDbLine
 10
-212.9737205584
 20
481.0460534123
 30
0.0
 11
-222.5
 21
475.5460534123
 31
0.0
  0
LINE
  5
3BC
330
1F
100
AcDbEntity
  8
0
  6
Continuous
 62
     7
370
    25
100
AcDbLine
 10
-222.5
 20
475.5460534123
 30
0.0
 11
-232.0262794416
 21
481.0460534123
 31
0.0
  0
LINE
  5
3BD
330
1F
100
AcDbEntity
  8
0
  6
Continuous
 62
     7
370
    25
100
AcDbLine
 10
-232.0262794416
 20
481.0460534123
 30
0.0
 11
-232.0262794416
 21
492.0460534123
 31
0.0
  0
LINE
  5
3BE
330
1F
100
AcDbEntity
  8
0
  6
Continuous
 62
     7
370
    25
100
AcDbLine
 10
-86.5
 20
536.5460534123
 30
0.0
 11
-92.0
 21
527.0197739706
 31
0.0
  0
LINE
  5
3BF
330
1F
100
AcDbEntity
  8
0
  6
Continuous
 62
     7
370
    25
100
AcDbLine
 10
-92.0
 20
527.0197739706
 30
0.0
 11
-103.0
 21
527.0197739706
 31
0.0
  0
LINE
  5
3C0
330
1F
100
AcDbEntity
  8
0
  6
Continuous
 62
     7
370
    25
100
AcDbLine
 10
-103.0
 20
527.0197739706
 30
0.0
 11
-108.5
 21
536.5460534123
 31
0.0
  0
LINE
  5
3C1
330
1F
100
AcDbEntity
  8
0
  6
Continuous
 62
     7
370
    25
100
AcDbLine
 10
-108.5
 20
536.5460534123
 30
0.0
 11
-103.0
 21
546.0723328539
 31
0.0
  0
LINE
  5
3C2
330
1F
100
AcDbEntity
  8
0
  6
Continuous
 62
     7
370
    25
100
AcDbLine
 10
-103.0
 20
546.0723328539
 30
0.0
 11
-92.0
 21
546.0723328539
 31
0.0
  0
LINE
  5
3C3
330
1F
100
AcDbEntity
  8
0
  6
Continuous
 62
     7
370
    25
100
AcDbLine
 10
-92.0
 20
546.0723328539
 30
0.0
 11
-86.5
 21
536.5460534123
 31
0.0
  0
LINE
  5
3C4
330
1F
100
AcDbEntity
  8
0
  6
Continuous
 62
     7
370
    25
100
AcDbLine
 10
-157.0262794416
 20
481.0460534123
 30
0.0
 11
-157.0262794416
 21
492.0460534123
 31
0.0
  0
LINE
  5
3C5
330
1F
100
AcDbEntity
  8
0
  6
Continuous
 62
     7
370
    25
100
AcDbLine
 10
-157.0262794416
 20
492.0460534123
 30
0.0
 11
-147.5
 21
497.5460534123
 31
0.0
  0
LINE
  5
3C6
330
1F
100
AcDbEntity
  8
0
  6
Continuous
 62
     7
370
    25
100
AcDbLine
 10
-147.5
 20
497.5460534123
 30
0.0
 11
-137.9737205584
 21
492.0460534123
 31
0.0
  0
LINE
  5
3C7
330
1F
100
AcDbEntity
  8
0
  6
Continuous
 62
     7
370
    25
100
AcDbLine
 10
-137.9737205584
 20
492.0460534123
 30
0.0
 11
-137.9737205584
 21
481.0460534123
 31
0.0
  0
LINE
  5
3C8
330
1F
100
AcDbEntity
  8
0
  6
Continuous
 62
     7
370
    25
100
AcDbLine
 10
-137.9737205584
 20
481.0460534123
 30
0.0
 11
-147.5
 21
475.5460534123
 31
0.0
  0
LINE
  5
3C9
330
1F
100
AcDbEntity
  8
0
  6
Continuous
 62
     7
370
    25
100
AcDbLine
 10
-147.5
 20
475.5460534123
 30
0.0
 11
-157.0262794416
 21
481.0460534123
 31
0.0
  0
LINE
  5
3CA
330
1F
100
AcDbEntity
  8
0
  6
Continuous
 62
     7
370
    25
100
AcDbLine
 10
-72.5
 20
497.5460534123
 30
0.0
 11
-62.9737205584
 21
492.0460534123
 31
0.0
  0
LINE
  5
3CB
330
1F
100
AcDbEntity
  8
0
  6
Continuous
 62
     7
370
    25
100
AcDbLine
 10
-62.9737205584
 20
492.0460534123
 30
0.0
 11
-62.9737205584
 21
481.0460534123
 31
0.0
  0
LINE
  5
3CC
330
1F
100
AcDbEntity
  8
0
  6
Continuous
 62
     7
370
    25
100
AcDbLine
 10
-62.9737205584
 20
481.0460534123
 30
0.0
 11
-72.5
 21
475.5460534123
 31
0.0
  0
LINE
  5
3CD
330
1F
100
AcDbEntity
  8
0
  6
Continuous
 62
     7
370
    25
100
AcDbLine
 10
-72.5
 20
475.5460534123
 30
0.0
 11
-82.0262794416
 21
481.0460534123
 31
0.0
  0
LINE
  5
3CE
330
1F
100
AcDbEntity
  8
0
  6
Continuous
 62
     7
370
    25
100
AcDbLine
 10
-82.0262794416
 20
481.0460534123
 30
0.0
 11
-82.0262794416
 21
492.0460534123
 31
0.0
  0
LINE
  5
3CF
330
1F
100
AcDbEntity
  8
0
  6
Continuous
 62
     7
370
    25
100
AcDbLine
 10
-82.0262794416
 20
492.0460534123
 30
0.0
 11
-72.5
 21
497.5460534123
 31
0.0
  0
LINE
  5
3D0
330
1F
100
AcDbEntity
  8
0
  6
Continuous
 62
     7
370
    25
100
AcDbLine
 10
-143.4805231485
 20
448.3437048568
 30
0.0
 11
-140.6335136524
 21
458.968888946
 31
0.0
  0
LINE
  5
3D1
330
1F
100
AcDbEntity
  8
0
  6
Continuous
 62
     7
370
    25
100
AcDbLine
 10
-140.6335136524
 20
458.968888946
 30
0.0
 11
-130.0083295632
 21
461.8158984421
 31
0.0
  0
LINE
  5
3D2
330
1F
100
AcDbEntity
  8
0
  6
Continuous
 62
     7
370
    25
100
AcDbLine
 10
-130.0083295632
 20
461.8158984421
 30
0.0
 11
-122.2301549701
 21
454.0377238491
 31
0.0
  0
LINE
  5
3D3
330
1F
100
AcDbEntity
  8
0
  6
Continuous
 62
     7
370
    25
100
AcDbLine
 10
-122.2301549701
 20
454.0377238491
 30
0.0
 11
-125.0771644663
 21
443.4125397599
 31
0.0
  0
LINE
  5
3D4
330
1F
100
AcDbEntity
  8
0
  6
Continuous
 62
     7
370
    25
100
AcDbLine
 10
-125.0771644663
 20
443.4125397599
 30
0.0
 11
-135.7023485555
 21
440.5655302638
 31
0.0
  0
LINE
  5
3D5
330
1F
100
AcDbEntity
  8
0
  6
Continuous
 62
     7
370
    25
100
AcDbLine
 10
-135.7023485555
 20
440.5655302638
 30
0.0
 11
-143.4805231485
 21
448.3437048568
 31
0.0
  0
LINE
  5
3D6
330
1F
100
AcDbEntity
  8
0
  6
Continuous
 62
     7
370
    25
100
AcDbLine
 10
-125.0771644663
 20
384.6795670646
 30
0.0
 11
-122.2301549701
 21
374.0543829755
 31
0.0
  0
LINE
  5
3D7
330
1F
100
AcDbEntity
  8
0
  6
Continuous
 62
     7
370
    25
100
AcDbLine
 10
-122.2301549701
 20
374.0543829755
 30
0.0
 11
-130.0083295632
 21
366.2762083824
 31
0.0
  0
LINE
  5
3D8
330
1F
100
AcDbEntity
  8
0
  6
Continuous
 62
     7
370
    25
100
AcDbLine
 10
-130.0083295632
 20
366.2762083824
 30
0.0
 11
-140.6335136524
 21
369.1232178785
 31
0.0
  0
LINE
  5
3D9
330
1F
100
AcDbEntity
  8
0
  6
Continuous
 62
     7
370
    25
100
AcDbLine
 10
-140.6335136524
 20
369.1232178785
 30
0.0
 11
-143.4805231485
 21
379.7484019677
 31
0.0
  0
LINE
  5
3DA
330
1F
100
AcDbEntity
  8
0
  6
Continuous
 62
     7
370
    25
100
AcDbLine
 10
-143.4805231485
 20
379.7484019677
 30
0.0
 11
-135.7023485555
 21
387.5265765608
 31
0.0
  0
LINE
  5
3DB
330
1F
100
AcDbEntity
  8
0
  6
Continuous
 62
     7
370
    25
100
AcDbLine
 10
-135.7023485555
 20
387.5265765608
 30
0.0
 11
-125.0771644663
 21
384.6795670646
 31
0.0
  0
LINE
  5
3DC
330
1F
100
AcDbEntity
  8
0
  6
Continuous
 62
     7
370
    25
100
AcDbLine
 10
-69.9228355337
 20
384.6795670646
 30
0.0
 11
-59.2976514445
 21
387.5265765608
 31
0.0
  0
LINE
  5
3DD
330
1F
100
AcDbEntity
  8
0
  6
Continuous
 62
     7
370
    25
100
AcDbLine
 10
-59.2976514445
 20
387.5265765608
 30
0.0
 11
-51.5194768515
 21
379.7484019677
 31
0.0
  0
LINE
  5
3DE
330
1F
100
AcDbEntity
  8
0
  6
Continuous
 62
     7
370
    25
100
AcDbLine
 10
-51.5194768515
 20
379.7484019677
 30
0.0
 11
-54.3664863476
 21
369.1232178785
 31
0.0
  0
LINE
  5
3DF
330
1F
100
AcDbEntity
  8
0
  6
Continuous
 62
     7
370
    25
100
AcDbLine
 10
-54.3664863476
 20
369.1232178785
 30
0.0
 11
-64.9916704368
 21
366.2762083824
 31
0.0
  0
LINE
  5
3E0
330
1F
100
AcDbEntity
  8
0
  6
Continuous
 62
     7
370
    25
100
AcDbLine
 10
-64.9916704368
 20
366.2762083824
 30
0.0
 11
-72.7698450299
 21
374.0543829755
 31
0.0
  0
LINE
  5
3E1
330
1F
100
AcDbEntity
  8
0
  6
Continuous
 62
     7
370
    25
100
AcDbLine
 10
-72.7698450299
 20
374.0543829755
 30
0.0
 11
-69.9228355337
 21
384.6795670646
 31
0.0
  0
LINE
  5
3E2
330
1F
100
AcDbEntity
  8
0
  6
Continuous
 62
     7
370
    25
100
AcDbLine
 10
-103.0
 20
282.0197739706
 30
0.0
 11
-108.5
 21
291.5460534123
 31
0.0
  0
LINE
  5
3E3
330
1F
100
AcDbEntity
  8
0
  6
Continuous
 62
     7
370
    25
100
AcDbLine
 10
-108.5
 20
291.5460534123
 30
0.0
 11
-103.0
 21
301.0723328539
 31
0.0
  0
LINE
  5
3E4
330
1F
100
AcDbEntity
  8
0
  6
Continuous
 62
     7
370
    25
100
AcDbLine
 10
-103.0
 20
301.0723328539
 30
0.0
 11
-92.0
 21
301.0723328539
 31
0.0
  0
LINE
  5
3E5
330
1F
100
AcDbEntity
  8
0
  6
Continuous
 62
     7
370
    25
100
AcDbLine
 10
-92.0
 20
301.0723328539
 30
0.0
 11
-86.5
 21
291.5460534123
 31
0.0
  0
LINE
  5
3E6
330
1F
100
AcDbEntity
  8
0
  6
Continuous
 62
     7
370
    25
100
AcDbLine
 10
-86.5
 20
291.5460534123
 30
0.0
 11
-92.0
 21
282.0197739706
 31
0.0
  0
LINE
  5
3E7
330
1F
100
AcDbEntity
  8
0
  6
Continuous
 62
     7
370
    25
100
AcDbLine
 10
-92.0
 20
282.0197739706
 30
0.0
 11
-103.0
 21
282.0197739706
 31
0.0
  0
LINE
  5
3E8
330
1F
100
AcDbEntity
  8
0
  6
Continuous
 62
     7
370
    25
100
AcDbLine
 10
-110.0
 20
308.8954183176
 30
0.0
 11
-119.5262794416
 21
314.3954183176
 31
0.0
  0
LINE
  5
3E9
330
1F
100
AcDbEntity
  8
0
  6
Continuous
 62
     7
370
    25
100
AcDbLine
 10
-119.5262794416
 20
314.3954183176
 30
0.0
 11
-119.5262794416
 21
325.3954183176
 31
0.0
  0
LINE
  5
3EA
330
1F
100
AcDbEntity
  8
0
  6
Continuous
 62
     7
370
    25
100
AcDbLine
 10
-119.5262794416
 20
325.3954183176
 30
0.0
 11
-110.0
 21
330.8954183176
 31
0.0
  0
LINE
  5
3EB
330
1F
100
AcDbEntity
  8
0
  6
Continuous
 62
     7
370
    25
100
AcDbLine
 10
-110.0
 20
330.8954183176
 30
0.0
 11
-100.4737205584
 21
325.3954183176
 31
0.0
  0
LINE
  5
3EC
330
1F
100
AcDbEntity
  8
0
  6
Continuous
 62
     7
370
    25
100
AcDbLine
 10
-100.4737205584
 20
325.3954183176
 30
0.0
 11
-100.4737205584
 21
314.3954183176
 31
0.0
  0
LINE
  5
3ED
330
1F
100
AcDbEntity
  8
0
  6
Continuous
 62
     7
370
    25
100
AcDbLine
 10
-100.4737205584
 20
314.3954183176
 30
0.0
 11
-110.0
 21
308.8954183176
 31
0.0
  0
LINE
  5
3EE
330
1F
100
AcDbEntity
  8
0
  6
Continuous
 62
     7
370
    25
100
AcDbLine
 10
-228.0
 20
382.0197739706
 30
0.0
 11
-233.5
 21
391.5460534123
 31
0.0
  0
LINE
  5
3EF
330
1F
100
AcDbEntity
  8
0
  6
Continuous
 62
     7
370
    25
100
AcDbLine
 10
-233.5
 20
391.5460534123
 30
0.0
 11
-228.0
 21
401.0723328539
 31
0.0
  0
LINE
  5
3F0
330
1F
100
AcDbEntity
  8
0
  6
Continuous
 62
     7
370
    25
100
AcDbLine
 10
-228.0
 20
401.0723328539
 30
0.0
 11
-217.0
 21
401.0723328539
 31
0.0
  0
LINE
  5
3F1
330
1F
100
AcDbEntity
  8
0
  6
Continuous
 62
     7
370
    25
100
AcDbLine
 10
-217.0
 20
401.0723328539
 30
0.0
 11
-211.5
 21
391.5460534123
 31
0.0
  0
LINE
  5
3F2
330
1F
100
AcDbEntity
  8
0
  6
Continuous
 62
     7
370
    25
100
AcDbLine
 10
-211.5
 20
391.5460534123
 30
0.0
 11
-217.0
 21
382.0197739706
 31
0.0
  0
LINE
  5
3F3
330
1F
100
AcDbEntity
  8
0
  6
Continuous
 62
     7
370
    25
100
AcDbLine
 10
-217.0
 20
382.0197739706
 30
0.0
 11
-228.0
 21
382.0197739706
 31
0.0
  0
LINE
  5
3F4
330
1F
100
AcDbEntity
  8
0
  6
Continuous
 62
     7
370
    25
100
AcDbLine
 10
-211.5
 20
291.5460534123
 30
0.0
 11
-217.0
 21
282.0197739706
 31
0.0
  0
LINE
  5
3F5
330
1F
100
AcDbEntity
  8
0
  6
Continuous
 62
     7
370
    25
100
AcDbLine
 10
-217.0
 20
282.0197739706
 30
0.0
 11
-228.0
 21
282.0197739706
 31
0.0
  0
LINE
  5
3F6
330
1F
100
AcDbEntity
  8
0
  6
Continuous
 62
     7
370
    25
100
AcDbLine
 10
-228.0
 20
282.0197739706
 30
0.0
 11
-233.5
 21
291.5460534123
 31
0.0
  0
LINE
  5
3F7
330
1F
100
AcDbEntity
  8
0
  6
Continuous
 62
     7
370
    25
100
AcDbLine
 10
-233.5
 20
291.5460534123
 30
0.0
 11
-228.0
 21
301.0723328539
 31
0.0
  0
LINE
  5
3F8
330
1F
100
AcDbEntity
  8
0
  6
Continuous
 62
     7
370
    25
100
AcDbLine
 10
-228.0
 20
301.0723328539
 30
0.0
 11
-217.0
 21
301.0723328539
 31
0.0
  0
LINE
  5
3F9
330
1F
100
AcDbEntity
  8
0
  6
Continuous
 62
     7
370
    25
100
AcDbLine
 10
-217.0
 20
301.0723328539
 30
0.0
 11
-211.5
 21
291.5460534123
 31
0.0
  0
LINE
  5
3FA
330
1F
100
AcDbEntity
  8
0
  6
Continuous
 62
     7
370
    25
100
AcDbLine
 10
-210.0
 20
352.1966885069
 30
0.0
 11
-219.5262794416
 21
357.6966885069
 31
0.0
  0
LINE
  5
3FB
330
1F
100
AcDbEntity
  8
0
  6
Continuous
 62
     7
370
    25
100
AcDbLine
 10
-219.5262794416
 20
357.6966885069
 30
0.0
 11
-219.5262794416
 21
368.6966885069
 31
0.0
  0
LINE
  5
3FC
330
1F
100
AcDbEntity
  8
0
  6
Continuous
 62
     7
370
    25
100
AcDbLine
 10
-219.5262794416
 20
368.6966885069
 30
0.0
 11
-210.0
 21
374.1966885069
 31
0.0
  0
LINE
  5
3FD
330
1F
100
AcDbEntity
  8
0
  6
Continuous
 62
     7
370
    25
100
AcDbLine
 10
-210.0
 20
374.1966885069
 30
0.0
 11
-200.4737205584
 21
368.6966885069
 31
0.0
  0
LINE
  5
3FE
330
1F
100
AcDbEntity
  8
0
  6
Continuous
 62
     7
370
    25
100
AcDbLine
 10
-200.4737205584
 20
368.6966885069
 30
0.0
 11
-200.4737205584
 21
357.6966885069
 31
0.0
  0
LINE
  5
3FF
330
1F
100
AcDbEntity
  8
0
  6
Continuous
 62
     7
370
    25
100
AcDbLine
 10
-200.4737205584
 20
357.6966885069
 30
0.0
 11
-210.0
 21
352.1966885069
 31
0.0
  0
LINE
  5
400
330
1F
100
AcDbEntity
  8
0
  6
Continuous
 62
     7
370
    25
100
AcDbLine
 10
-219.5262794416
 20
325.3954183176
 30
0.0
 11
-210.0
 21
330.8954183176
 31
0.0
  0
LINE
  5
401
330
1F
100
AcDbEntity
  8
0
  6
Continuous
 62
     7
370
    25
100
AcDbLine
 10
-210.0
 20
330.8954183176
 30
0.0
 11
-200.4737205584
 21
325.3954183176
 31
0.0
  0
LINE
  5
402
330
1F
100
AcDbEntity
  8
0
  6
Continuous
 62
     7
370
    25
100
AcDbLine
 10
-200.4737205584
 20
325.3954183176
 30
0.0
 11
-200.4737205584
 21
314.3954183176
 31
0.0
  0
LINE
  5
403
330
1F
100
AcDbEntity
  8
0
  6
Continuous
 62
     7
370
    25
100
AcDbLine
 10
-200.4737205584
 20
314.3954183176
 30
0.0
 11
-210.0
 21
308.8954183176
 31
0.0
  0
LINE
  5
404
330
1F
100
AcDbEntity
  8
0
  6
Continuous
 62
     7
370
    25
100
AcDbLine
 10
-210.0
 20
308.8954183176
 30
0.0
 11
-219.5262794416
 21
314.3954183176
 31
0.0
  0
LINE
  5
405
330
1F
100
AcDbEntity
  8
0
  6
Continuous
 62
     7
370
    25
100
AcDbLine
 10
-219.5262794416
 20
314.3954183176
 30
0.0
 11
-219.5262794416
 21
325.3954183176
 31
0.0
  0
LINE
  5
406
330
1F
100
AcDbEntity
  8
0
  6
Continuous
 62
     7
370
    25
100
AcDbLine
 10
-235.0
 20
330.8954183176
 30
0.0
 11
-225.4737205584
 21
325.3954183176
 31
0.0
  0
LINE
  5
407
330
1F
100
AcDbEntity
  8
0
  6
Continuous
 62
     7
370
    25
100
AcDbLine
 10
-225.4737205584
 20
325.3954183176
 30
0.0
 11
-225.4737205584
 21
314.3954183176
 31
0.0
  0
LINE
  5
408
330
1F
100
AcDbEntity
  8
0
  6
Continuous
 62
     7
370
    25
100
AcDbLine
 10
-225.4737205584
 20
314.3954183176
 30
0.0
 11
-235.0
 21
308.8954183176
 31
0.0
  0
LINE
  5
409
330
1F
100
AcDbEntity
  8
0
  6
Continuous
 62
     7
370
    25
100
AcDbLine
 10
-235.0
 20
308.8954183176
 30
0.0
 11
-244.5262794416
 21
314.3954183176
 31
0.0
  0
LINE
  5
40A
330
1F
100
AcDbEntity
  8
0
  6
Continuous
 62
     7
370
    25
100
AcDbLine
 10
-244.5262794416
 20
314.3954183176
 30
0.0
 11
-244.5262794416
 21
325.3954183176
 31
0.0
  0
LINE
  5
40B
330
1F
100
AcDbEntity
  8
0
  6
Continuous
 62
     7
370
    25
100
AcDbLine
 10
-244.5262794416
 20
325.3954183176
 30
0.0
 11
-235.0
 21
330.8954183176
 31
0.0
  0
LINE
  5
40C
330
1F
100
AcDbEntity
  8
0
  6
Continuous
 62
     7
370
    25
100
AcDbLine
 10
-207.0262794416
 20
336.0460534123
 30
0.0
 11
-207.0262794416
 21
347.0460534123
 31
0.0
  0
LINE
  5
40D
330
1F
100
AcDbEntity
  8
0
  6
Continuous
 62
     7
370
    25
100
AcDbLine
 10
-207.0262794416
 20
347.0460534123
 30
0.0
 11
-197.5
 21
352.5460534123
 31
0.0
  0
LINE
  5
40E
330
1F
100
AcDbEntity
  8
0
  6
Continuous
 62
     7
370
    25
100
AcDbLine
 10
-197.5
 20
352.5460534123
 30
0.0
 11
-187.9737205584
 21
347.0460534123
 31
0.0
  0
LINE
  5
40F
330
1F
100
AcDbEntity
  8
0
  6
Continuous
 62
     7
370
    25
100
AcDbLine
 10
-187.9737205584
 20
347.0460534123
 30
0.0
 11
-187.9737205584
 21
336.0460534123
 31
0.0
  0
LINE
  5
410
330
1F
100
AcDbEntity
  8
0
  6
Continuous
 62
     7
370
    25
100
AcDbLine
 10
-187.9737205584
 20
336.0460534123
 30
0.0
 11
-197.5
 21
330.5460534123
 31
0.0
  0
LINE
  5
411
330
1F
100
AcDbEntity
  8
0
  6
Continuous
 62
     7
370
    25
100
AcDbLine
 10
-197.5
 20
330.5460534123
 30
0.0
 11
-207.0262794416
 21
336.0460534123
 31
0.0
  0
LINE
  5
412
330
1F
100
AcDbEntity
  8
0
  6
Continuous
 62
     7
370
    25
100
AcDbLine
 10
-265.6335136524
 20
369.1232178785
 30
0.0
 11
-268.4805231485
 21
379.7484019677
 31
0.0
  0
LINE
  5
413
330
1F
100
AcDbEntity
  8
0
  6
Continuous
 62
     7
370
    25
100
AcDbLine
 10
-268.4805231485
 20
379.7484019677
 30
0.0
 11
-260.7023485555
 21
387.5265765608
 31
0.0
  0
LINE
  5
414
330
1F
100
AcDbEntity
  8
0
  6
Continuous
 62
     7
370
    25
100
AcDbLine
 10
-260.7023485555
 20
387.5265765608
 30
0.0
 11
-250.0771644663
 21
384.6795670646
 31
0.0
  0
LINE
  5
415
330
1F
100
AcDbEntity
  8
0
  6
Continuous
 62
     7
370
    25
100
AcDbLine
 10
-250.0771644663
 20
384.6795670646
 30
0.0
 11
-247.2301549701
 21
374.0543829755
 31
0.0
  0
LINE
  5
416
330
1F
100
AcDbEntity
  8
0
  6
Continuous
 62
     7
370
    25
100
AcDbLine
 10
-247.2301549701
 20
374.0543829755
 30
0.0
 11
-255.0083295632
 21
366.2762083824
 31
0.0
  0
LINE
  5
417
330
1F
100
AcDbEntity
  8
0
  6
Continuous
 62
     7
370
    25
100
AcDbLine
 10
-255.0083295632
 20
366.2762083824
 30
0.0
 11
-265.6335136524
 21
369.1232178785
 31
0.0
  0
LINE
  5
418
330
1F
100
AcDbEntity
  8
0
  6
Continuous
 62
     7
370
    25
100
AcDbLine
 10
-135.7023485555
 20
295.5655302638
 30
0.0
 11
-143.4805231485
 21
303.3437048568
 31
0.0
  0
LINE
  5
419
330
1F
100
AcDbEntity
  8
0
  6
Continuous
 62
     7
370
    25
100
AcDbLine
 10
-143.4805231485
 20
303.3437048568
 30
0.0
 11
-140.6335136524
 21
313.968888946
 31
0.0
  0
LINE
  5
41A
330
1F
100
AcDbEntity
  8
0
  6
Continuous
 62
     7
370
    25
100
AcDbLine
 10
-140.6335136524
 20
313.968888946
 30
0.0
 11
-130.0083295632
 21
316.8158984421
 31
0.0
  0
LINE
  5
41B
330
1F
100
AcDbEntity
  8
0
  6
Continuous
 62
     7
370
    25
100
AcDbLine
 10
-130.0083295632
 20
316.8158984421
 30
0.0
 11
-122.2301549701
 21
309.0377238491
 31
0.0
  0
LINE
  5
41C
330
1F
100
AcDbEntity
  8
0
  6
Continuous
 62
     7
370
    25
100
AcDbLine
 10
-122.2301549701
 20
309.0377238491
 30
0.0
 11
-125.0771644663
 21
298.4125397599
 31
0.0
  0
LINE
  5
41D
330
1F
100
AcDbEntity
  8
0
  6
Continuous
 62
     7
370
    25
100
AcDbLine
 10
-125.0771644663
 20
298.4125397599
 30
0.0
 11
-135.7023485555
 21
295.5655302638
 31
0.0
  0
LINE
  5
41E
330
1F
100
AcDbEntity
  8
0
  6
Continuous
 62
     7
370
    25
100
AcDbLine
 10
-94.5262794416
 20
314.3954183176
 30
0.0
 11
-94.5262794416
 21
325.3954183176
 31
0.0
  0
LINE
  5
41F
330
1F
100
AcDbEntity
  8
0
  6
Continuous
 62
     7
370
    25
100
AcDbLine
 10
-94.5262794416
 20
325.3954183176
 30
0.0
 11
-85.0
 21
330.8954183176
 31
0.0
  0
LINE
  5
420
330
1F
100
AcDbEntity
  8
0
  6
Continuous
 62
     7
370
    25
100
AcDbLine
 10
-85.0
 20
330.8954183176
 30
0.0
 11
-75.4737205584
 21
325.3954183176
 31
0.0
  0
LINE
  5
421
330
1F
100
AcDbEntity
  8
0
  6
Continuous
 62
     7
370
    25
100
AcDbLine
 10
-75.4737205584
 20
325.3954183176
 30
0.0
 11
-75.4737205584
 21
314.3954183176
 31
0.0
  0
LINE
  5
422
330
1F
100
AcDbEntity
  8
0
  6
Continuous
 62
     7
370
    25
100
AcDbLine
 10
-75.4737205584
 20
314.3954183176
 30
0.0
 11
-85.0
 21
308.8954183176
 31
0.0
  0
LINE
  5
423
330
1F
100
AcDbEntity
  8
0
  6
Continuous
 62
     7
370
    25
100
AcDbLine
 10
-85.0
 20
308.8954183176
 30
0.0
 11
-94.5262794416
 21
314.3954183176
 31
0.0
  0
LINE
  5
424
330
1F
100
AcDbEntity
  8
0
  6
Continuous
 62
     7
370
    25
100
AcDbLine
 10
-47.5
 20
330.5460534123
 30
0.0
 11
-57.0262794416
 21
336.0460534123
 31
0.0
  0
LINE
  5
425
330
1F
100
AcDbEntity
  8
0
  6
Continuous
 62
     7
370
    25
100
AcDbLine
 10
-57.0262794416
 20
336.0460534123
 30
0.0
 11
-57.0262794416
 21
347.0460534123
 31
0.0
  0
LINE
  5
426
330
1F
100
AcDbEntity
  8
0
  6
Continuous
 62
     7
370
    25
100
AcDbLine
 10
-57.0262794416
 20
347.0460534123
 30
0.0
 11
-47.5
 21
352.5460534123
 31
0.0
  0
LINE
  5
427
330
1F
100
AcDbEntity
  8
0
  6
Continuous
 62
     7
370
    25
100
AcDbLine
 10
-47.5
 20
352.5460534123
 30
0.0
 11
-37.9737205584
 21
347.0460534123
 31
0.0
  0
LINE
  5
428
330
1F
100
AcDbEntity
  8
0
  6
Continuous
 62
     7
370
    25
100
AcDbLine
 10
-37.9737205584
 20
347.0460534123
 30
0.0
 11
-37.9737205584
 21
336.0460534123
 31
0.0
  0
LINE
  5
429
330
1F
100
AcDbEntity
  8
0
  6
Continuous
 62
     7
370
    25
100
AcDbLine
 10
-37.9737205584
 20
336.0460534123
 30
0.0
 11
-47.5
 21
330.5460534123
 31
0.0
  0
LINE
  5
42A
330
1F
100
AcDbEntity
  8
0
  6
Continuous
 62
     7
370
    25
100
AcDbLine
 10
-110.0
 20
374.1966885069
 30
0.0
 11
-100.4737205584
 21
368.6966885069
 31
0.0
  0
LINE
  5
42B
330
1F
100
AcDbEntity
  8
0
  6
Continuous
 62
     7
370
    25
100
AcDbLine
 10
-100.4737205584
 20
368.6966885069
 30
0.0
 11
-100.4737205584
 21
357.6966885069
 31
0.0
  0
LINE
  5
42C
330
1F
100
AcDbEntity
  8
0
  6
Continuous
 62
     7
370
    25
100
AcDbLine
 10
-100.4737205584
 20
357.6966885069
 30
0.0
 11
-110.0
 21
352.1966885069
 31
0.0
  0
LINE
  5
42D
330
1F
100
AcDbEntity
  8
0
  6
Continuous
 62
     7
370
    25
100
AcDbLine
 10
-110.0
 20
352.1966885069
 30
0.0
 11
-119.5262794416
 21
357.6966885069
 31
0.0
  0
LINE
  5
42E
330
1F
100
AcDbEntity
  8
0
  6
Continuous
 62
     7
370
    25
100
AcDbLine
 10
-119.5262794416
 20
357.6966885069
 30
0.0
 11
-119.5262794416
 21
368.6966885069
 31
0.0
  0
LINE
  5
42F
330
1F
100
AcDbEntity
  8
0
  6
Continuous
 62
     7
370
    25
100
AcDbLine
 10
-119.5262794416
 20
368.6966885069
 30
0.0
 11
-110.0
 21
374.1966885069
 31
0.0
  0
LINE
  5
430
330
1F
100
AcDbEntity
  8
0
  6
Continuous
 62
     7
370
    25
100
AcDbLine
 10
-100.4737205584
 20
470.3954183176
 30
0.0
 11
-100.4737205584
 21
459.3954183176
 31
0.0
  0
LINE
  5
431
330
1F
100
AcDbEntity
  8
0
  6
Continuous
 62
     7
370
    25
100
AcDbLine
 10
-100.4737205584
 20
459.3954183176
 30
0.0
 11
-110.0
 21
453.8954183176
 31
0.0
  0
LINE
  5
432
330
1F
100
AcDbEntity
  8
0
  6
Continuous
 62
     7
370
    25
100
AcDbLine
 10
-110.0
 20
453.8954183176
 30
0.0
 11
-119.5262794416
 21
459.3954183176
 31
0.0
  0
LINE
  5
433
330
1F
100
AcDbEntity
  8
0
  6
Continuous
 62
     7
370
    25
100
AcDbLine
 10
-119.5262794416
 20
459.3954183176
 30
0.0
 11
-119.5262794416
 21
470.3954183176
 31
0.0
  0
LINE
  5
434
330
1F
100
AcDbEntity
  8
0
  6
Continuous
 62
     7
370
    25
100
AcDbLine
 10
-119.5262794416
 20
470.3954183176
 30
0.0
 11
-110.0
 21
475.8954183176
 31
0.0
  0
LINE
  5
435
330
1F
100
AcDbEntity
  8
0
  6
Continuous
 62
     7
370
    25
100
AcDbLine
 10
-110.0
 20
475.8954183176
 30
0.0
 11
-100.4737205584
 21
470.3954183176
 31
0.0
  0
LINE
  5
436
330
1F
100
AcDbEntity
  8
0
  6
Continuous
 62
     7
370
    25
100
AcDbLine
 10
-57.0262794416
 20
481.0460534123
 30
0.0
 11
-57.0262794416
 21
492.0460534123
 31
0.0
  0
LINE
  5
437
330
1F
100
AcDbEntity
  8
0
  6
Continuous
 62
     7
370
    25
100
AcDbLine
 10
-57.0262794416
 20
492.0460534123
 30
0.0
 11
-47.5
 21
497.5460534123
 31
0.0
  0
LINE
  5
438
330
1F
100
AcDbEntity
  8
0
  6
Continuous
 62
     7
370
    25
100
AcDbLine
 10
-47.5
 20
497.5460534123
 30
0.0
 11
-37.9737205584
 21
492.0460534123
 31
0.0
  0
LINE
  5
439
330
1F
100
AcDbEntity
  8
0
  6
Continuous
 62
     7
370
    25
100
AcDbLine
 10
-37.9737205584
 20
492.0460534123
 30
0.0
 11
-37.9737205584
 21
481.0460534123
 31
0.0
  0
LINE
  5
43A
330
1F
100
AcDbEntity
  8
0
  6
Continuous
 62
     7
370
    25
100
AcDbLine
 10
-37.9737205584
 20
481.0460534123
 30
0.0
 11
-47.5
 21
475.5460534123
 31
0.0
  0
LINE
  5
43B
330
1F
100
AcDbEntity
  8
0
  6
Continuous
 62
     7
370
    25
100
AcDbLine
 10
-47.5
 20
475.5460534123
 30
0.0
 11
-57.0262794416
 21
481.0460534123
 31
0.0
  0
LINE
  5
43C
330
1F
100
AcDbEntity
  8
0
  6
Continuous
 62
     7
370
    25
100
AcDbLine
 10
-75.4737205584
 20
513.6966885069
 30
0.0
 11
-75.4737205584
 21
502.6966885069
 31
0.0
  0
LINE
  5
43D
330
1F
100
AcDbEntity
  8
0
  6
Continuous
 62
     7
370
    25
100
AcDbLine
 10
-75.4737205584
 20
502.6966885069
 30
0.0
 11
-85.0
 21
497.1966885069
 31
0.0
  0
LINE
  5
43E
330
1F
100
AcDbEntity
  8
0
  6
Continuous
 62
     7
370
    25
100
AcDbLine
 10
-85.0
 20
497.1966885069
 30
0.0
 11
-94.5262794416
 21
502.6966885069
 31
0.0
  0
LINE
  5
43F
330
1F
100
AcDbEntity
  8
0
  6
Continuous
 62
     7
370
    25
100
AcDbLine
 10
-94.5262794416
 20
502.6966885069
 30
0.0
 11
-94.5262794416
 21
513.6966885069
 31
0.0
  0
LINE
  5
440
330
1F
100
AcDbEntity
  8
0
  6
Continuous
 62
     7
370
    25
100
AcDbLine
 10
-94.5262794416
 20
513.6966885069
 30
0.0
 11
-85.0
 21
519.1966885069
 31
0.0
  0
LINE
  5
441
330
1F
100
AcDbEntity
  8
0
  6
Continuous
 62
     7
370
    25
100
AcDbLine
 10
-85.0
 20
519.1966885069
 30
0.0
 11
-75.4737205584
 21
513.6966885069
 31
0.0
  0
LINE
  5
442
330
1F
100
AcDbEntity
  8
0
  6
Continuous
 62
     7
370
    25
100
AcDbLine
 10
-69.9228355337
 20
529.6795670646
 30
0.0
 11
-59.2976514445
 21
532.5265765608
 31
0.0
  0
LINE
  5
443
330
1F
100
AcDbEntity
  8
0
  6
Continuous
 62
     7
370
    25
100
AcDbLine
 10
-59.2976514445
 20
532.5265765608
 30
0.0
 11
-51.5194768515
 21
524.7484019677
 31
0.0
  0
LINE
  5
444
330
1F
100
AcDbEntity
  8
0
  6
Continuous
 62
     7
370
    25
100
AcDbLine
 10
-51.5194768515
 20
524.7484019677
 30
0.0
 11
-54.3664863476
 21
514.1232178785
 31
0.0
  0
LINE
  5
445
330
1F
100
AcDbEntity
  8
0
  6
Continuous
 62
     7
370
    25
100
AcDbLine
 10
-54.3664863476
 20
514.1232178785
 30
0.0
 11
-64.9916704368
 21
511.2762083824
 31
0.0
  0
LINE
  5
446
330
1F
100
AcDbEntity
  8
0
  6
Continuous
 62
     7
370
    25
100
AcDbLine
 10
-64.9916704368
 20
511.2762083824
 30
0.0
 11
-72.7698450299
 21
519.0543829755
 31
0.0
  0
LINE
  5
447
330
1F
100
AcDbEntity
  8
0
  6
Continuous
 62
     7
370
    25
100
AcDbLine
 10
-72.7698450299
 20
519.0543829755
 30
0.0
 11
-69.9228355337
 21
529.6795670646
 31
0.0
  0
LINE
  5
448
330
1F
100
AcDbEntity
  8
0
  6
Continuous
 62
     7
370
    25
100
AcDbLine
 10
-200.4737205584
 20
513.6966885069
 30
0.0
 11
-200.4737205584
 21
502.6966885069
 31
0.0
  0
LINE
  5
449
330
1F
100
AcDbEntity
  8
0
  6
Continuous
 62
     7
370
    25
100
AcDbLine
 10
-200.4737205584
 20
502.6966885069
 30
0.0
 11
-210.0
 21
497.1966885069
 31
0.0
  0
LINE
  5
44A
330
1F
100
AcDbEntity
  8
0
  6
Continuous
 62
     7
370
    25
100
AcDbLine
 10
-210.0
 20
497.1966885069
 30
0.0
 11
-219.5262794416
 21
502.6966885069
 31
0.0
  0
LINE
  5
44B
330
1F
100
AcDbEntity
  8
0
  6
Continuous
 62
     7
370
    25
100
AcDbLine
 10
-219.5262794416
 20
502.6966885069
 30
0.0
 11
-219.5262794416
 21
513.6966885069
 31
0.0
  0
LINE
  5
44C
330
1F
100
AcDbEntity
  8
0
  6
Continuous
 62
     7
370
    25
100
AcDbLine
 10
-219.5262794416
 20
513.6966885069
 30
0.0
 11
-210.0
 21
519.1966885069
 31
0.0
  0
LINE
  5
44D
330
1F
100
AcDbEntity
  8
0
  6
Continuous
 62
     7
370
    25
100
AcDbLine
 10
-210.0
 20
519.1966885069
 30
0.0
 11
-200.4737205584
 21
513.6966885069
 31
0.0
  0
LINE
  5
44E
330
1F
100
AcDbEntity
  8
0
  6
Continuous
 62
     7
370
    25
100
AcDbLine
 10
-265.6335136524
 20
514.1232178785
 30
0.0
 11
-268.4805231485
 21
524.7484019677
 31
0.0
  0
LINE
  5
44F
330
1F
100
AcDbEntity
  8
0
  6
Continuous
 62
     7
370
    25
100
AcDbLine
 10
-268.4805231485
 20
524.7484019677
 30
0.0
 11
-260.7023485555
 21
532.5265765608
 31
0.0
  0
LINE
  5
450
330
1F
100
AcDbEntity
  8
0
  6
Continuous
 62
     7
370
    25
100
AcDbLine
 10
-260.7023485555
 20
532.5265765608
 30
0.0
 11
-250.0771644663
 21
529.6795670646
 31
0.0
  0
LINE
  5
451
330
1F
100
AcDbEntity
  8
0
  6
Continuous
 62
     7
370
    25
100
AcDbLine
 10
-250.0771644663
 20
529.6795670646
 30
0.0
 11
-247.2301549701
 21
519.0543829755
 31
0.0
  0
LINE
  5
452
330
1F
100
AcDbEntity
  8
0
  6
Continuous
 62
     7
370
    25
100
AcDbLine
 10
-247.2301549701
 20
519.0543829755
 30
0.0
 11
-255.0083295632
 21
511.2762083824
 31
0.0
  0
LINE
  5
453
330
1F
100
AcDbEntity
  8
0
  6
Continuous
 62
     7
370
    25
100
AcDbLine
 10
-255.0083295632
 20
511.2762083824
 30
0.0
 11
-265.6335136524
 21
514.1232178785
 31
0.0
  0
LINE
  5
454
330
1F
100
AcDbEntity
  8
0
  6
Continuous
 62
     7
370
    25
100
AcDbLine
 10
-260.7023485555
 20
440.5655302638
 30
0.0
 11
-268.4805231485
 21
448.3437048568
 31
0.0
  0
LINE
  5
455
330
1F
100
AcDbEntity
  8
0
  6
Continuous
 62
     7
370
    25
100
AcDbLine
 10
-268.4805231485
 20
448.3437048568
 30
0.0
 11
-265.6335136524
 21
458.968888946
 31
0.0
  0
LINE
  5
456
330
1F
100
AcDbEntity
  8
0
  6
Continuous
 62
     7
370
    25
100
AcDbLine
 10
-265.6335136524
 20
458.968888946
 30
0.0
 11
-255.0083295632
 21
461.8158984421
 31
0.0
  0
LINE
  5
457
330
1F
100
AcDbEntity
  8
0
  6
Continuous
 62
     7
370
    25
100
AcDbLine
 10
-255.0083295632
 20
461.8158984421
 30
0.0
 11
-247.2301549701
 21
454.0377238491
 31
0.0
  0
LINE
  5
458
330
1F
100
AcDbEntity
  8
0
  6
Continuous
 62
     7
370
    25
100
AcDbLine
 10
-247.2301549701
 20
454.0377238491
 30
0.0
 11
-250.0771644663
 21
443.4125397599
 31
0.0
  0
LINE
  5
459
330
1F
100
AcDbEntity
  8
0
  6
Continuous
 62
     7
370
    25
100
AcDbLine
 10
-250.0771644663
 20
443.4125397599
 30
0.0
 11
-260.7023485555
 21
440.5655302638
 31
0.0
  0
LINE
  5
45A
330
1F
100
AcDbEntity
  8
0
  6
Continuous
 62
     7
370
    25
100
AcDbLine
 10
-211.5
 20
436.5460534123
 30
0.0
 11
-217.0
 21
427.0197739706
 31
0.0
  0
LINE
  5
45B
330
1F
100
AcDbEntity
  8
0
  6
Continuous
 62
     7
370
    25
100
AcDbLine
 10
-217.0
 20
427.0197739706
 30
0.0
 11
-228.0
 21
427.0197739706
 31
0.0
  0
LINE
  5
45C
330
1F
100
AcDbEntity
  8
0
  6
Continuous
 62
     7
370
    25
100
AcDbLine
 10
-228.0
 20
427.0197739706
 30
0.0
 11
-233.5
 21
436.5460534123
 31
0.0
  0
LINE
  5
45D
330
1F
100
AcDbEntity
  8
0
  6
Continuous
 62
     7
370
    25
100
AcDbLine
 10
-233.5
 20
436.5460534123
 30
0.0
 11
-228.0
 21
446.0723328539
 31
0.0
  0
LINE
  5
45E
330
1F
100
AcDbEntity
  8
0
  6
Continuous
 62
     7
370
    25
100
AcDbLine
 10
-228.0
 20
446.0723328539
 30
0.0
 11
-217.0
 21
446.0723328539
 31
0.0
  0
LINE
  5
45F
330
1F
100
AcDbEntity
  8
0
  6
Continuous
 62
     7
370
    25
100
AcDbLine
 10
-217.0
 20
446.0723328539
 30
0.0
 11
-211.5
 21
436.5460534123
 31
0.0
  0
LINE
  5
460
330
1F
100
AcDbEntity
  8
0
  6
Continuous
 62
     7
370
    25
100
AcDbLine
 10
-200.4737205584
 20
459.3954183176
 30
0.0
 11
-210.0
 21
453.8954183176
 31
0.0
  0
LINE
  5
461
330
1F
100
AcDbEntity
  8
0
  6
Continuous
 62
     7
370
    25
100
AcDbLine
 10
-210.0
 20
453.8954183176
 30
0.0
 11
-219.5262794416
 21
459.3954183176
 31
0.0
  0
LINE
  5
462
330
1F
100
AcDbEntity
  8
0
  6
Continuous
 62
     7
370
    25
100
AcDbLine
 10
-219.5262794416
 20
459.3954183176
 30
0.0
 11
-219.5262794416
 21
470.3954183176
 31
0.0
  0
LINE
  5
463
330
1F
100
AcDbEntity
  8
0
  6
Continuous
 62
     7
370
    25
100
AcDbLine
 10
-219.5262794416
 20
470.3954183176
 30
0.0
 11
-210.0
 21
475.8954183176
 31
0.0
  0
LINE
  5
464
330
1F
100
AcDbEntity
  8
0
  6
Continuous
 62
     7
370
    25
100
AcDbLine
 10
-210.0
 20
475.8954183176
 30
0.0
 11
-200.4737205584
 21
470.3954183176
 31
0.0
  0
LINE
  5
465
330
1F
100
AcDbEntity
  8
0
  6
Continuous
 62
     7
370
    25
100
AcDbLine
 10
-200.4737205584
 20
470.3954183176
 30
0.0
 11
-200.4737205584
 21
459.3954183176
 31
0.0
  0
LINE
  5
466
330
1F
100
AcDbEntity
  8
0
  6
Continuous
 62
     7
370
    25
100
AcDbLine
 10
-237.9737205584
 20
481.0460534123
 30
0.0
 11
-247.5
 21
475.5460534123
 31
0.0
  0
LINE
  5
467
330
1F
100
AcDbEntity
  8
0
  6
Continuous
 62
     7
370
    25
100
AcDbLine
 10
-247.5
 20
475.5460534123
 30
0.0
 11
-257.0262794416
 21
481.0460534123
 31
0.0
  0
LINE
  5
468
330
1F
100
AcDbEntity
  8
0
  6
Continuous
 62
     7
370
    25
100
AcDbLine
 10
-257.0262794416
 20
481.0460534123
 30
0.0
 11
-257.0262794416
 21
492.0460534123
 31
0.0
  0
LINE
  5
469
330
1F
100
AcDbEntity
  8
0
  6
Continuous
 62
     7
370
    25
100
AcDbLine
 10
-257.0262794416
 20
492.0460534123
 30
0.0
 11
-247.5
 21
497.5460534123
 31
0.0
  0
LINE
  5
46A
330
1F
100
AcDbEntity
  8
0
  6
Continuous
 62
     7
370
    25
100
AcDbLine
 10
-247.5
 20
497.5460534123
 30
0.0
 11
-237.9737205584
 21
492.0460534123
 31
0.0
  0
LINE
  5
46B
330
1F
100
AcDbEntity
  8
0
  6
Continuous
 62
     7
370
    25
100
AcDbLine
 10
-237.9737205584
 20
492.0460534123
 30
0.0
 11
-237.9737205584
 21
481.0460534123
 31
0.0
  0
LINE
  5
46C
330
1F
100
AcDbEntity
  8
0
  6
Continuous
 62
     7
370
    25
100
AcDbLine
 10
-217.0
 20
527.0197739706
 30
0.0
 11
-228.0
 21
527.0197739706
 31
0.0
  0
LINE
  5
46D
330
1F
100
AcDbEntity
  8
0
  6
Continuous
 62
     7
370
    25
100
AcDbLine
 10
-228.0
 20
527.0197739706
 30
0.0
 11
-233.5
 21
536.5460534123
 31
0.0
  0
LINE
  5
46E
330
1F
100
AcDbEntity
  8
0
  6
Continuous
 62
     7
370
    25
100
AcDbLine
 10
-233.5
 20
536.5460534123
 30
0.0
 11
-228.0
 21
546.0723328539
 31
0.0
  0
LINE
  5
46F
330
1F
100
AcDbEntity
  8
0
  6
Continuous
 62
     7
370
    25
100
AcDbLine
 10
-228.0
 20
546.0723328539
 30
0.0
 11
-217.0
 21
546.0723328539
 31
0.0
  0
LINE
  5
470
330
1F
100
AcDbEntity
  8
0
  6
Continuous
 62
     7
370
    25
100
AcDbLine
 10
-217.0
 20
546.0723328539
 30
0.0
 11
-211.5
 21
536.5460534123
 31
0.0
  0
LINE
  5
471
330
1F
100
AcDbEntity
  8
0
  6
Continuous
 62
     7
370
    25
100
AcDbLine
 10
-211.5
 20
536.5460534123
 30
0.0
 11
-217.0
 21
527.0197739706
 31
0.0
  0
LINE
  5
472
330
1F
100
AcDbEntity
  8
0
  6
Continuous
 62
     7
370
    25
100
AcDbLine
 10
-207.0262794416
 20
481.0460534123
 30
0.0
 11
-207.0262794416
 21
492.0460534123
 31
0.0
  0
LINE
  5
473
330
1F
100
AcDbEntity
  8
0
  6
Continuous
 62
     7
370
    25
100
AcDbLine
 10
-207.0262794416
 20
492.0460534123
 30
0.0
 11
-197.5
 21
497.5460534123
 31
0.0
  0
LINE
  5
474
330
1F
100
AcDbEntity
  8
0
  6
Continuous
 62
     7
370
    25
100
AcDbLine
 10
-197.5
 20
497.5460534123
 30
0.0
 11
-187.9737205584
 21
492.0460534123
 31
0.0
  0
LINE
  5
475
330
1F
100
AcDbEntity
  8
0
  6
Continuous
 62
     7
370
    25
100
AcDbLine
 10
-187.9737205584
 20
492.0460534123
 30
0.0
 11
-187.9737205584
 21
481.0460534123
 31
0.0
  0
LINE
  5
476
330
1F
100
AcDbEntity
  8
0
  6
Continuous
 62
     7
370
    25
100
AcDbLine
 10
-187.9737205584
 20
481.0460534123
 30
0.0
 11
-197.5
 21
475.5460534123
 31
0.0
  0
LINE
  5
477
330
1F
100
AcDbEntity
  8
0
  6
Continuous
 62
     7
370
    25
100
AcDbLine
 10
-197.5
 20
475.5460534123
 30
0.0
 11
-207.0262794416
 21
481.0460534123
 31
0.0
  0
LINE
  5
478
330
1F
100
AcDbEntity
  8
0
  6
Continuous
 62
     7
370
    25
100
AcDbLine
 10
-135.7023485555
 20
532.5265765608
 30
0.0
 11
-125.0771644663
 21
529.6795670646
 31
0.0
  0
LINE
  5
479
330
1F
100
AcDbEntity
  8
0
  6
Continuous
 62
     7
370
    25
100
AcDbLine
 10
-125.0771644663
 20
529.6795670646
 30
0.0
 11
-122.2301549701
 21
519.0543829755
 31
0.0
  0
LINE
  5
47A
330
1F
100
AcDbEntity
  8
0
  6
Continuous
 62
     7
370
    25
100
AcDbLine
 10
-122.2301549701
 20
519.0543829755
 30
0.0
 11
-130.0083295632
 21
511.2762083824
 31
0.0
  0
LINE
  5
47B
330
1F
100
AcDbEntity
  8
0
  6
Continuous
 62
     7
370
    25
100
AcDbLine
 10
-130.0083295632
 20
511.2762083824
 30
0.0
 11
-140.6335136524
 21
514.1232178785
 31
0.0
  0
LINE
  5
47C
330
1F
100
AcDbEntity
  8
0
  6
Continuous
 62
     7
370
    25
100
AcDbLine
 10
-140.6335136524
 20
514.1232178785
 30
0.0
 11
-143.4805231485
 21
524.7484019677
 31
0.0
  0
LINE
  5
47D
330
1F
100
AcDbEntity
  8
0
  6
Continuous
 62
     7
370
    25
100
AcDbLine
 10
-143.4805231485
 20
524.7484019677
 30
0.0
 11
-135.7023485555
 21
532.5265765608
 31
0.0
  0
LINE
  5
47E
330
1F
100
AcDbEntity
  8
0
  6
Continuous
 62
     7
370
    25
100
AcDbLine
 10
-122.5
 20
475.5460534123
 30
0.0
 11
-132.0262794416
 21
481.0460534123
 31
0.0
  0
LINE
  5
47F
330
1F
100
AcDbEntity
  8
0
  6
Continuous
 62
     7
370
    25
100
AcDbLine
 10
-132.0262794416
 20
481.0460534123
 30
0.0
 11
-132.0262794416
 21
492.0460534123
 31
0.0
  0
LINE
  5
480
330
1F
100
AcDbEntity
  8
0
  6
Continuous
 62
     7
370
    25
100
AcDbLine
 10
-132.0262794416
 20
492.0460534123
 30
0.0
 11
-122.5
 21
497.5460534123
 31
0.0
  0
LINE
  5
481
330
1F
100
AcDbEntity
  8
0
  6
Continuous
 62
     7
370
    25
100
AcDbLine
 10
-122.5
 20
497.5460534123
 30
0.0
 11
-112.9737205584
 21
492.0460534123
 31
0.0
  0
LINE
  5
482
330
1F
100
AcDbEntity
  8
0
  6
Continuous
 62
     7
370
    25
100
AcDbLine
 10
-112.9737205584
 20
492.0460534123
 30
0.0
 11
-112.9737205584
 21
481.0460534123
 31
0.0
  0
LINE
  5
483
330
1F
100
AcDbEntity
  8
0
  6
Continuous
 62
     7
370
    25
100
AcDbLine
 10
-112.9737205584
 20
481.0460534123
 30
0.0
 11
-122.5
 21
475.5460534123
 31
0.0
  0
LINE
  5
484
330
1F
100
AcDbEntity
  8
0
  6
Continuous
 62
     7
370
    25
100
AcDbLine
 10
-72.7698450299
 20
454.0377238491
 30
0.0
 11
-64.9916704368
 21
461.8158984421
 31
0.0
  0
LINE
  5
485
330
1F
100
AcDbEntity
  8
0
  6
Continuous
 62
     7
370
    25
100
AcDbLine
 10
-64.9916704368
 20
461.8158984421
 30
0.0
 11
-54.3664863476
 21
458.968888946
 31
0.0
  0
LINE
  5
486
330
1F
100
AcDbEntity
  8
0
  6
Continuous
 62
     7
370
    25
100
AcDbLine
 10
-54.3664863476
 20
458.968888946
 30
0.0
 11
-51.5194768515
 21
448.3437048568
 31
0.0
  0
LINE
  5
487
330
1F
100
AcDbEntity
  8
0
  6
Continuous
 62
     7
370
    25
100
AcDbLine
 10
-51.5194768515
 20
448.3437048568
 30
0.0
 11
-59.2976514445
 21
440.5655302638
 31
0.0
  0
LINE
  5
488
330
1F
100
AcDbEntity
  8
0
  6
Continuous
 62
     7
370
    25
100
AcDbLine
 10
-59.2976514445
 20
440.5655302638
 30
0.0
 11
-69.9228355337
 21
443.4125397599
 31
0.0
  0
LINE
  5
489
330
1F
100
AcDbEntity
  8
0
  6
Continuous
 62
     7
370
    25
100
AcDbLine
 10
-69.9228355337
 20
443.4125397599
 30
0.0
 11
-72.7698450299
 21
454.0377238491
 31
0.0
  0
LINE
  5
48A
330
1F
100
AcDbEntity
  8
0
  6
Continuous
 62
     7
370
    25
100
AcDbLine
 10
-147.5
 20
330.5460534123
 30
0.0
 11
-157.0262794416
 21
336.0460534123
 31
0.0
  0
LINE
  5
48B
330
1F
100
AcDbEntity
  8
0
  6
Continuous
 62
     7
370
    25
100
AcDbLine
 10
-157.0262794416
 20
336.0460534123
 30
0.0
 11
-157.0262794416
 21
347.0460534123
 31
0.0
  0
LINE
  5
48C
330
1F
100
AcDbEntity
  8
0
  6
Continuous
 62
     7
370
    25
100
AcDbLine
 10
-157.0262794416
 20
347.0460534123
 30
0.0
 11
-147.5
 21
352.5460534123
 31
0.0
  0
LINE
  5
48D
330
1F
100
AcDbEntity
  8
0
  6
Continuous
 62
     7
370
    25
100
AcDbLine
 10
-147.5
 20
352.5460534123
 30
0.0
 11
-137.9737205584
 21
347.0460534123
 31
0.0
  0
LINE
  5
48E
330
1F
100
AcDbEntity
  8
0
  6
Continuous
 62
     7
370
    25
100
AcDbLine
 10
-137.9737205584
 20
347.0460534123
 30
0.0
 11
-137.9737205584
 21
336.0460534123
 31
0.0
  0
LINE
  5
48F
330
1F
100
AcDbEntity
  8
0
  6
Continuous
 62
     7
370
    25
100
AcDbLine
 10
-137.9737205584
 20
336.0460534123
 30
0.0
 11
-147.5
 21
330.5460534123
 31
0.0
  0
LINE
  5
490
330
1F
100
AcDbEntity
  8
0
  6
Continuous
 62
     7
370
    25
100
AcDbLine
 10
-94.5262794416
 20
357.6966885069
 30
0.0
 11
-94.5262794416
 21
368.6966885069
 31
0.0
  0
LINE
  5
491
330
1F
100
AcDbEntity
  8
0
  6
Continuous
 62
     7
370
    25
100
AcDbLine
 10
-94.5262794416
 20
368.6966885069
 30
0.0
 11
-85.0
 21
374.1966885069
 31
0.0
  0
LINE
  5
492
330
1F
100
AcDbEntity
  8
0
  6
Continuous
 62
     7
370
    25
100
AcDbLine
 10
-85.0
 20
374.1966885069
 30
0.0
 11
-75.4737205584
 21
368.6966885069
 31
0.0
  0
LINE
  5
493
330
1F
100
AcDbEntity
  8
0
  6
Continuous
 62
     7
370
    25
100
AcDbLine
 10
-75.4737205584
 20
368.6966885069
 30
0.0
 11
-75.4737205584
 21
357.6966885069
 31
0.0
  0
LINE
  5
494
330
1F
100
AcDbEntity
  8
0
  6
Continuous
 62
     7
370
    25
100
AcDbLine
 10
-75.4737205584
 20
357.6966885069
 30
0.0
 11
-85.0
 21
352.1966885069
 31
0.0
  0
LINE
  5
495
330
1F
100
AcDbEntity
  8
0
  6
Continuous
 62
     7
370
    25
100
AcDbLine
 10
-85.0
 20
352.1966885069
 30
0.0
 11
-94.5262794416
 21
357.6966885069
 31
0.0
  0
LINE
  5
496
330
1F
100
AcDbEntity
  8
0
  6
Continuous
 62
     7
370
    25
100
AcDbLine
 10
-51.5194768515
 20
303.3437048568
 30
0.0
 11
-59.2976514445
 21
295.5655302637
 31
0.0
  0
LINE
  5
497
330
1F
100
AcDbEntity
  8
0
  6
Continuous
 62
     7
370
    25
100
AcDbLine
 10
-59.2976514445
 20
295.5655302637
 30
0.0
 11
-69.9228355337
 21
298.4125397599
 31
0.0
  0
LINE
  5
498
330
1F
100
AcDbEntity
  8
0
  6
Continuous
 62
     7
370
    25
100
AcDbLine
 10
-69.9228355337
 20
298.4125397599
 30
0.0
 11
-72.7698450299
 21
309.0377238491
 31
0.0
  0
LINE
  5
499
330
1F
100
AcDbEntity
  8
0
  6
Continuous
 62
     7
370
    25
100
AcDbLine
 10
-72.7698450299
 20
309.0377238491
 30
0.0
 11
-64.9916704368
 21
316.8158984421
 31
0.0
  0
LINE
  5
49A
330
1F
100
AcDbEntity
  8
0
  6
Continuous
 62
     7
370
    25
100
AcDbLine
 10
-64.9916704368
 20
316.8158984421
 30
0.0
 11
-54.3664863476
 21
313.968888946
 31
0.0
  0
LINE
  5
49B
330
1F
100
AcDbEntity
  8
0
  6
Continuous
 62
     7
370
    25
100
AcDbLine
 10
-54.3664863476
 20
313.968888946
 30
0.0
 11
-51.5194768515
 21
303.3437048568
 31
0.0
  0
LINE
  5
49C
330
1F
100
AcDbEntity
  8
0
  6
Continuous
 62
     7
370
    25
100
AcDbLine
 10
-132.0262794416
 20
336.0460534123
 30
0.0
 11
-132.0262794416
 21
347.0460534123
 31
0.0
  0
LINE
  5
49D
330
1F
100
AcDbEntity
  8
0
  6
Continuous
 62
     7
370
    25
100
AcDbLine
 10
-132.0262794416
 20
347.0460534123
 30
0.0
 11
-122.5
 21
352.5460534123
 31
0.0
  0
LINE
  5
49E
330
1F
100
AcDbEntity
  8
0
  6
Continuous
 62
     7
370
    25
100
AcDbLine
 10
-122.5
 20
352.5460534123
 30
0.0
 11
-112.9737205584
 21
347.0460534123
 31
0.0
  0
LINE
  5
49F
330
1F
100
AcDbEntity
  8
0
  6
Continuous
 62
     7
370
    25
100
AcDbLine
 10
-112.9737205584
 20
347.0460534123
 30
0.0
 11
-112.9737205584
 21
336.0460534123
 31
0.0
  0
LINE
  5
4A0
330
1F
100
AcDbEntity
  8
0
  6
Continuous
 62
     7
370
    25
100
AcDbLine
 10
-112.9737205584
 20
336.0460534123
 30
0.0
 11
-122.5
 21
330.5460534123
 31
0.0
  0
LINE
  5
4A1
330
1F
100
AcDbEntity
  8
0
  6
Continuous
 62
     7
370
    25
100
AcDbLine
 10
-122.5
 20
330.5460534123
 30
0.0
 11
-132.0262794416
 21
336.0460534123
 31
0.0
  0
LINE
  5
4A2
330
1F
100
AcDbEntity
  8
0
  6
Continuous
 62
     7
370
    25
100
AcDbLine
 10
-194.9228355337
 20
384.6795670646
 30
0.0
 11
-184.2976514445
 21
387.5265765608
 31
0.0
  0
LINE
  5
4A3
330
1F
100
AcDbEntity
  8
0
  6
Continuous
 62
     7
370
    25
100
AcDbLine
 10
-184.2976514445
 20
387.5265765608
 30
0.0
 11
-176.5194768515
 21
379.7484019677
 31
0.0
  0
LINE
  5
4A4
330
1F
100
AcDbEntity
  8
0
  6
Continuous
 62
     7
370
    25
100
AcDbLine
 10
-176.5194768515
 20
379.7484019677
 30
0.0
 11
-179.3664863476
 21
369.1232178785
 31
0.0
  0
LINE
  5
4A5
330
1F
100
AcDbEntity
  8
0
  6
Continuous
 62
     7
370
    25
100
AcDbLine
 10
-179.3664863476
 20
369.1232178785
 30
0.0
 11
-189.9916704368
 21
366.2762083824
 31
0.0
  0
LINE
  5
4A6
330
1F
100
AcDbEntity
  8
0
  6
Continuous
 62
     7
370
    25
100
AcDbLine
 10
-189.9916704368
 20
366.2762083824
 30
0.0
 11
-197.7698450299
 21
374.0543829755
 31
0.0
  0
LINE
  5
4A7
330
1F
100
AcDbEntity
  8
0
  6
Continuous
 62
     7
370
    25
100
AcDbLine
 10
-197.7698450299
 20
374.0543829755
 30
0.0
 11
-194.9228355337
 21
384.6795670646
 31
0.0
  0
LINE
  5
4A8
330
1F
100
AcDbEntity
  8
0
  6
Continuous
 62
     7
370
    25
100
AcDbLine
 10
-250.0771644663
 20
298.4125397599
 30
0.0
 11
-260.7023485555
 21
295.5655302638
 31
0.0
  0
LINE
  5
4A9
330
1F
100
AcDbEntity
  8
0
  6
Continuous
 62
     7
370
    25
100
AcDbLine
 10
-260.7023485555
 20
295.5655302638
 30
0.0
 11
-268.4805231485
 21
303.3437048568
 31
0.0
  0
LINE
  5
4AA
330
1F
100
AcDbEntity
  8
0
  6
Continuous
 62
     7
370
    25
100
AcDbLine
 10
-268.4805231485
 20
303.3437048568
 30
0.0
 11
-265.6335136524
 21
313.968888946
 31
0.0
  0
LINE
  5
4AB
330
1F
100
AcDbEntity
  8
0
  6
Continuous
 62
     7
370
    25
100
AcDbLine
 10
-265.6335136524
 20
313.968888946
 30
0.0
 11
-255.0083295632
 21
316.8158984421
 31
0.0
  0
LINE
  5
4AC
330
1F
100
AcDbEntity
  8
0
  6
Continuous
 62
     7
370
    25
100
AcDbLine
 10
-255.0083295632
 20
316.8158984421
 30
0.0
 11
-247.2301549701
 21
309.0377238491
 31
0.0
  0
LINE
  5
4AD
330
1F
100
AcDbEntity
  8
0
  6
Continuous
 62
     7
370
    25
100
AcDbLine
 10
-247.2301549701
 20
309.0377238491
 30
0.0
 11
-250.0771644663
 21
298.4125397599
 31
0.0
  0
LINE
  5
4AE
330
1F
100
AcDbEntity
  8
0
  6
Continuous
 62
     7
370
    25
100
AcDbLine
 10
-225.4737205584
 20
357.6966885069
 30
0.0
 11
-235.0
 21
352.1966885069
 31
0.0
  0
LINE
  5
4AF
330
1F
100
AcDbEntity
  8
0
  6
Continuous
 62
     7
370
    25
100
AcDbLine
 10
-235.0
 20
352.1966885069
 30
0.0
 11
-244.5262794416
 21
357.6966885069
 31
0.0
  0
LINE
  5
4B0
330
1F
100
AcDbEntity
  8
0
  6
Continuous
 62
     7
370
    25
100
AcDbLine
 10
-244.5262794416
 20
357.6966885069
 30
0.0
 11
-244.5262794416
 21
368.6966885069
 31
0.0
  0
LINE
  5
4B1
330
1F
100
AcDbEntity
  8
0
  6
Continuous
 62
     7
370
    25
100
AcDbLine
 10
-244.5262794416
 20
368.6966885069
 30
0.0
 11
-235.0
 21
374.1966885069
 31
0.0
  0
LINE
  5
4B2
330
1F
100
AcDbEntity
  8
0
  6
Continuous
 62
     7
370
    25
100
AcDbLine
 10
-235.0
 20
374.1966885069
 30
0.0
 11
-225.4737205584
 21
368.6966885069
 31
0.0
  0
LINE
  5
4B3
330
1F
100
AcDbEntity
  8
0
  6
Continuous
 62
     7
370
    25
100
AcDbLine
 10
-225.4737205584
 20
368.6966885069
 30
0.0
 11
-225.4737205584
 21
357.6966885069
 31
0.0
  0
LINE
  5
4B4
330
1F
100
AcDbEntity
  8
0
  6
Continuous
 62
     7
370
    25
100
AcDbLine
 10
-232.0262794416
 20
347.0460534123
 30
0.0
 11
-222.5
 21
352.5460534123
 31
0.0
  0
LINE
  5
4B5
330
1F
100
AcDbEntity
  8
0
  6
Continuous
 62
     7
370
    25
100
AcDbLine
 10
-222.5
 20
352.5460534123
 30
0.0
 11
-212.9737205584
 21
347.0460534123
 31
0.0
  0
LINE
  5
4B6
330
1F
100
AcDbEntity
  8
0
  6
Continuous
 62
     7
370
    25
100
AcDbLine
 10
-212.9737205584
 20
347.0460534123
 30
0.0
 11
-212.9737205584
 21
336.0460534123
 31
0.0
  0
LINE
  5
4B7
330
1F
100
AcDbEntity
  8
0
  6
Continuous
 62
     7
370
    25
100
AcDbLine
 10
-212.9737205584
 20
336.0460534123
 30
0.0
 11
-222.5
 21
330.5460534123
 31
0.0
  0
LINE
  5
4B8
330
1F
100
AcDbEntity
  8
0
  6
Continuous
 62
     7
370
    25
100
AcDbLine
 10
-222.5
 20
330.5460534123
 30
0.0
 11
-232.0262794416
 21
336.0460534123
 31
0.0
  0
LINE
  5
4B9
330
1F
100
AcDbEntity
  8
0
  6
Continuous
 62
     7
370
    25
100
AcDbLine
 10
-232.0262794416
 20
336.0460534123
 30
0.0
 11
-232.0262794416
 21
347.0460534123
 31
0.0
  0
LINE
  5
4BA
330
1F
100
AcDbEntity
  8
0
  6
Continuous
 62
     7
370
    25
100
AcDbLine
 10
-237.9737205584
 20
347.0460534123
 30
0.0
 11
-237.9737205584
 21
336.0460534123
 31
0.0
  0
LINE
  5
4BB
330
1F
100
AcDbEntity
  8
0
  6
Continuous
 62
     7
370
    25
100
AcDbLine
 10
-237.9737205584
 20
336.0460534123
 30
0.0
 11
-247.5
 21
330.5460534123
 31
0.0
  0
LINE
  5
4BC
330
1F
100
AcDbEntity
  8
0
  6
Continuous
 62
     7
370
    25
100
AcDbLine
 10
-247.5
 20
330.5460534123
 30
0.0
 11
-257.0262794416
 21
336.0460534123
 31
0.0
  0
LINE
  5
4BD
330
1F
100
AcDbEntity
  8
0
  6
Continuous
 62
     7
370
    25
100
AcDbLine
 10
-257.0262794416
 20
336.0460534123
 30
0.0
 11
-257.0262794416
 21
347.0460534123
 31
0.0
  0
LINE
  5
4BE
330
1F
100
AcDbEntity
  8
0
  6
Continuous
 62
     7
370
    25
100
AcDbLine
 10
-257.0262794416
 20
347.0460534123
 30
0.0
 11
-247.5
 21
352.5460534123
 31
0.0
  0
LINE
  5
4BF
330
1F
100
AcDbEntity
  8
0
  6
Continuous
 62
     7
370
    25
100
AcDbLine
 10
-247.5
 20
352.5460534123
 30
0.0
 11
-237.9737205584
 21
347.0460534123
 31
0.0
  0
LINE
  5
4C0
330
1F
100
AcDbEntity
  8
0
  6
Continuous
 62
     7
370
    25
100
AcDbLine
 10
-176.5194768515
 20
303.3437048568
 30
0.0
 11
-184.2976514445
 21
295.5655302638
 31
0.0
  0
LINE
  5
4C1
330
1F
100
AcDbEntity
  8
0
  6
Continuous
 62
     7
370
    25
100
AcDbLine
 10
-184.2976514445
 20
295.5655302638
 30
0.0
 11
-194.9228355337
 21
298.4125397599
 31
0.0
  0
LINE
  5
4C2
330
1F
100
AcDbEntity
  8
0
  6
Continuous
 62
     7
370
    25
100
AcDbLine
 10
-194.9228355337
 20
298.4125397599
 30
0.0
 11
-197.7698450299
 21
309.0377238491
 31
0.0
  0
LINE
  5
4C3
330
1F
100
AcDbEntity
  8
0
  6
Continuous
 62
     7
370
    25
100
AcDbLine
 10
-197.7698450299
 20
309.0377238491
 30
0.0
 11
-189.9916704368
 21
316.8158984421
 31
0.0
  0
LINE
  5
4C4
330
1F
100
AcDbEntity
  8
0
  6
Continuous
 62
     7
370
    25
100
AcDbLine
 10
-189.9916704368
 20
316.8158984421
 30
0.0
 11
-179.3664863476
 21
313.968888946
 31
0.0
  0
LINE
  5
4C5
330
1F
100
AcDbEntity
  8
0
  6
Continuous
 62
     7
370
    25
100
AcDbLine
 10
-179.3664863476
 20
313.968888946
 30
0.0
 11
-176.5194768515
 21
303.3437048568
 31
0.0
  0
LINE
  5
4C6
330
1F
100
AcDbEntity
  8
0
  6
Continuous
 62
     7
370
    25
100
AcDbLine
 10
-282.0262794416
 20
347.0460534123
 30
0.0
 11
-272.5
 21
352.5460534123
 31
0.0
  0
LINE
  5
4C7
330
1F
100
AcDbEntity
  8
0
  6
Continuous
 62
     7
370
    25
100
AcDbLine
 10
-272.5
 20
352.5460534123
 30
0.0
 11
-262.9737205584
 21
347.0460534123
 31
0.0
  0
LINE
  5
4C8
330
1F
100
AcDbEntity
  8
0
  6
Continuous
 62
     7
370
    25
100
AcDbLine
 10
-262.9737205584
 20
347.0460534123
 30
0.0
 11
-262.9737205584
 21
336.0460534123
 31
0.0
  0
LINE
  5
4C9
330
1F
100
AcDbEntity
  8
0
  6
Continuous
 62
     7
370
    25
100
AcDbLine
 10
-262.9737205584
 20
336.0460534123
 30
0.0
 11
-272.5
 21
330.5460534123
 31
0.0
  0
LINE
  5
4CA
330
1F
100
AcDbEntity
  8
0
  6
Continuous
 62
     7
370
    25
100
AcDbLine
 10
-272.5
 20
330.5460534123
 30
0.0
 11
-282.0262794416
 21
336.0460534123
 31
0.0
  0
LINE
  5
4CB
330
1F
100
AcDbEntity
  8
0
  6
Continuous
 62
     7
370
    25
100
AcDbLine
 10
-282.0262794416
 20
336.0460534123
 30
0.0
 11
-282.0262794416
 21
347.0460534123
 31
0.0
  0
LINE
  5
4CC
330
1F
100
AcDbEntity
  8
0
  6
Continuous
 62
     7
370
    25
100
AcDbLine
 10
-162.9737205584
 20
336.0460534123
 30
0.0
 11
-172.5
 21
330.5460534123
 31
0.0
  0
LINE
  5
4CD
330
1F
100
AcDbEntity
  8
0
  6
Continuous
 62
     7
370
    25
100
AcDbLine
 10
-172.5
 20
330.5460534123
 30
0.0
 11
-182.0262794416
 21
336.0460534123
 31
0.0
  0
LINE
  5
4CE
330
1F
100
AcDbEntity
  8
0
  6
Continuous
 62
     7
370
    25
100
AcDbLine
 10
-182.0262794416
 20
336.0460534123
 30
0.0
 11
-182.0262794416
 21
347.0460534123
 31
0.0
  0
LINE
  5
4CF
330
1F
100
AcDbEntity
  8
0
  6
Continuous
 62
     7
370
    25
100
AcDbLine
 10
-182.0262794416
 20
347.0460534123
 30
0.0
 11
-172.5
 21
352.5460534123
 31
0.0
  0
LINE
  5
4D0
330
1F
100
AcDbEntity
  8
0
  6
Continuous
 62
     7
370
    25
100
AcDbLine
 10
-172.5
 20
352.5460534123
 30
0.0
 11
-162.9737205584
 21
347.0460534123
 31
0.0
  0
LINE
  5
4D1
330
1F
100
AcDbEntity
  8
0
  6
Continuous
 62
     7
370
    25
100
AcDbLine
 10
-162.9737205584
 20
347.0460534123
 30
0.0
 11
-162.9737205584
 21
336.0460534123
 31
0.0
  0
LINE
  5
4D2
330
1F
100
AcDbEntity
  8
0
  6
Continuous
 62
     7
370
    25
100
AcDbLine
 10
-107.0262794416
 20
347.0460534123
 30
0.0
 11
-97.5
 21
352.5460534123
 31
0.0
  0
LINE
  5
4D3
330
1F
100
AcDbEntity
  8
0
  6
Continuous
 62
     7
370
    25
100
AcDbLine
 10
-97.5
 20
352.5460534123
 30
0.0
 11
-87.9737205584
 21
347.0460534123
 31
0.0
  0
LINE
  5
4D4
330
1F
100
AcDbEntity
  8
0
  6
Continuous
 62
     7
370
    25
100
AcDbLine
 10
-87.9737205584
 20
347.0460534123
 30
0.0
 11
-87.9737205584
 21
336.0460534123
 31
0.0
  0
LINE
  5
4D5
330
1F
100
AcDbEntity
  8
0
  6
Continuous
 62
     7
370
    25
100
AcDbLine
 10
-87.9737205584
 20
336.0460534123
 30
0.0
 11
-97.5
 21
330.5460534123
 31
0.0
  0
LINE
  5
4D6
330
1F
100
AcDbEntity
  8
0
  6
Continuous
 62
     7
370
    25
100
AcDbLine
 10
-97.5
 20
330.5460534123
 30
0.0
 11
-107.0262794416
 21
336.0460534123
 31
0.0
  0
LINE
  5
4D7
330
1F
100
AcDbEntity
  8
0
  6
Continuous
 62
     7
370
    25
100
AcDbLine
 10
-107.0262794416
 20
336.0460534123
 30
0.0
 11
-107.0262794416
 21
347.0460534123
 31
0.0
  0
LINE
  5
4D8
330
1F
100
AcDbEntity
  8
0
  6
Continuous
 62
     7
370
    25
100
AcDbLine
 10
-62.9737205584
 20
336.0460534123
 30
0.0
 11
-72.5
 21
330.5460534123
 31
0.0
  0
LINE
  5
4D9
330
1F
100
AcDbEntity
  8
0
  6
Continuous
 62
     7
370
    25
100
AcDbLine
 10
-72.5
 20
330.5460534123
 30
0.0
 11
-82.0262794416
 21
336.0460534123
 31
0.0
  0
LINE
  5
4DA
330
1F
100
AcDbEntity
  8
0
  6
Continuous
 62
     7
370
    25
100
AcDbLine
 10
-82.0262794416
 20
336.0460534123
 30
0.0
 11
-82.0262794416
 21
347.0460534123
 31
0.0
  0
LINE
  5
4DB
330
1F
100
AcDbEntity
  8
0
  6
Continuous
 62
     7
370
    25
100
AcDbLine
 10
-82.0262794416
 20
347.0460534123
 30
0.0
 11
-72.5
 21
352.5460534123
 31
0.0
  0
LINE
  5
4DC
330
1F
100
AcDbEntity
  8
0
  6
Continuous
 62
     7
370
    25
100
AcDbLine
 10
-72.5
 20
352.5460534123
 30
0.0
 11
-62.9737205584
 21
347.0460534123
 31
0.0
  0
LINE
  5
4DD
330
1F
100
AcDbEntity
  8
0
  6
Continuous
 62
     7
370
    25
100
AcDbLine
 10
-62.9737205584
 20
347.0460534123
 30
0.0
 11
-62.9737205584
 21
336.0460534123
 31
0.0
  0
LINE
  5
4DE
330
1F
100
AcDbEntity
  8
0
  6
Continuous
 62
     7
370
    25
100
AcDbLine
 10
-92.0
 20
401.0723328539
 30
0.0
 11
-86.5
 21
391.5460534123
 31
0.0
  0
LINE
  5
4DF
330
1F
100
AcDbEntity
  8
0
  6
Continuous
 62
     7
370
    25
100
AcDbLine
 10
-86.5
 20
391.5460534123
 30
0.0
 11
-92.0
 21
382.0197739706
 31
0.0
  0
LINE
  5
4E0
330
1F
100
AcDbEntity
  8
0
  6
Continuous
 62
     7
370
    25
100
AcDbLine
 10
-92.0
 20
382.0197739706
 30
0.0
 11
-103.0
 21
382.0197739706
 31
0.0
  0
LINE
  5
4E1
330
1F
100
AcDbEntity
  8
0
  6
Continuous
 62
     7
370
    25
100
AcDbLine
 10
-103.0
 20
382.0197739706
 30
0.0
 11
-108.5
 21
391.5460534123
 31
0.0
  0
LINE
  5
4E2
330
1F
100
AcDbEntity
  8
0
  6
Continuous
 62
     7
370
    25
100
AcDbLine
 10
-108.5
 20
391.5460534123
 30
0.0
 11
-103.0
 21
401.0723328539
 31
0.0
  0
LINE
  5
4E3
330
1F
100
AcDbEntity
  8
0
  6
Continuous
 62
     7
370
    25
100
AcDbLine
 10
-103.0
 20
401.0723328539
 30
0.0
 11
-92.0
 21
401.0723328539
 31
0.0
  0
LINE
  5
4E4
330
1F
100
AcDbEntity
  8
0
  6
Continuous
 62
     7
370
    25
100
AcDbLine
 10
-108.5
 20
436.5460534123
 30
0.0
 11
-103.0
 21
446.0723328539
 31
0.0
  0
LINE
  5
4E5
330
1F
100
AcDbEntity
  8
0
  6
Continuous
 62
     7
370
    25
100
AcDbLine
 10
-103.0
 20
446.0723328539
 30
0.0
 11
-92.0
 21
446.0723328539
 31
0.0
  0
LINE
  5
4E6
330
1F
100
AcDbEntity
  8
0
  6
Continuous
 62
     7
370
    25
100
AcDbLine
 10
-92.0
 20
446.0723328539
 30
0.0
 11
-86.5
 21
436.5460534123
 31
0.0
  0
LINE
  5
4E7
330
1F
100
AcDbEntity
  8
0
  6
Continuous
 62
     7
370
    25
100
AcDbLine
 10
-86.5
 20
436.5460534123
 30
0.0
 11
-92.0
 21
427.0197739706
 31
0.0
  0
LINE
  5
4E8
330
1F
100
AcDbEntity
  8
0
  6
Continuous
 62
     7
370
    25
100
AcDbLine
 10
-92.0
 20
427.0197739706
 30
0.0
 11
-103.0
 21
427.0197739706
 31
0.0
  0
LINE
  5
4E9
330
1F
100
AcDbEntity
  8
0
  6
Continuous
 62
     7
370
    25
100
AcDbLine
 10
-103.0
 20
427.0197739706
 30
0.0
 11
-108.5
 21
436.5460534123
 31
0.0
  0
LINE
  5
4EA
330
1F
100
AcDbEntity
  8
0
  6
Continuous
 62
     7
370
    25
100
AcDbLine
 10
-85.0
 20
453.8954183176
 30
0.0
 11
-94.5262794416
 21
459.3954183176
 31
0.0
  0
LINE
  5
4EB
330
1F
100
AcDbEntity
  8
0
  6
Continuous
 62
     7
370
    25
100
AcDbLine
 10
-94.5262794416
 20
459.3954183176
 30
0.0
 11
-94.5262794416
 21
470.3954183176
 31
0.0
  0
LINE
  5
4EC
330
1F
100
AcDbEntity
  8
0
  6
Continuous
 62
     7
370
    25
100
AcDbLine
 10
-94.5262794416
 20
470.3954183176
 30
0.0
 11
-85.0
 21
475.8954183176
 31
0.0
  0
LINE
  5
4ED
330
1F
100
AcDbEntity
  8
0
  6
Continuous
 62
     7
370
    25
100
AcDbLine
 10
-85.0
 20
475.8954183176
 30
0.0
 11
-75.4737205584
 21
470.3954183176
 31
0.0
  0
LINE
  5
4EE
330
1F
100
AcDbEntity
  8
0
  6
Continuous
 62
     7
370
    25
100
AcDbLine
 10
-75.4737205584
 20
470.3954183176
 30
0.0
 11
-75.4737205584
 21
459.3954183176
 31
0.0
  0
LINE
  5
4EF
330
1F
100
AcDbEntity
  8
0
  6
Continuous
 62
     7
370
    25
100
AcDbLine
 10
-75.4737205584
 20
459.3954183176
 30
0.0
 11
-85.0
 21
453.8954183176
 31
0.0
  0
LINE
  5
4F0
330
1F
100
AcDbEntity
  8
0
  6
Continuous
 62
     7
370
    25
100
AcDbLine
 10
-107.0262794416
 20
492.0460534123
 30
0.0
 11
-97.5
 21
497.5460534123
 31
0.0
  0
LINE
  5
4F1
330
1F
100
AcDbEntity
  8
0
  6
Continuous
 62
     7
370
    25
100
AcDbLine
 10
-97.5
 20
497.5460534123
 30
0.0
 11
-87.9737205584
 21
492.0460534123
 31
0.0
  0
LINE
  5
4F2
330
1F
100
AcDbEntity
  8
0
  6
Continuous
 62
     7
370
    25
100
AcDbLine
 10
-87.9737205584
 20
492.0460534123
 30
0.0
 11
-87.9737205584
 21
481.0460534123
 31
0.0
  0
LINE
  5
4F3
330
1F
100
AcDbEntity
  8
0
  6
Continuous
 62
     7
370
    25
100
AcDbLine
 10
-87.9737205584
 20
481.0460534123
 30
0.0
 11
-97.5
 21
475.5460534123
 31
0.0
  0
LINE
  5
4F4
330
1F
100
AcDbEntity
  8
0
  6
Continuous
 62
     7
370
    25
100
AcDbLine
 10
-97.5
 20
475.5460534123
 30
0.0
 11
-107.0262794416
 21
481.0460534123
 31
0.0
  0
LINE
  5
4F5
330
1F
100
AcDbEntity
  8
0
  6
Continuous
 62
     7
370
    25
100
AcDbLine
 10
-107.0262794416
 20
481.0460534123
 30
0.0
 11
-107.0262794416
 21
492.0460534123
 31
0.0
  0
LINE
  5
4F6
330
1F
100
AcDbEntity
  8
0
  6
Continuous
 62
     7
370
    25
100
AcDbLine
 10
-119.5262794416
 20
502.6966885069
 30
0.0
 11
-119.5262794416
 21
513.6966885069
 31
0.0
  0
LINE
  5
4F7
330
1F
100
AcDbEntity
  8
0
  6
Continuous
 62
     7
370
    25
100
AcDbLine
 10
-119.5262794416
 20
513.6966885069
 30
0.0
 11
-110.0
 21
519.1966885069
 31
0.0
  0
LINE
  5
4F8
330
1F
100
AcDbEntity
  8
0
  6
Continuous
 62
     7
370
    25
100
AcDbLine
 10
-110.0
 20
519.1966885069
 30
0.0
 11
-100.4737205584
 21
513.6966885069
 31
0.0
  0
LINE
  5
4F9
330
1F
100
AcDbEntity
  8
0
  6
Continuous
 62
     7
370
    25
100
AcDbLine
 10
-100.4737205584
 20
513.6966885069
 30
0.0
 11
-100.4737205584
 21
502.6966885069
 31
0.0
  0
LINE
  5
4FA
330
1F
100
AcDbEntity
  8
0
  6
Continuous
 62
     7
370
    25
100
AcDbLine
 10
-100.4737205584
 20
502.6966885069
 30
0.0
 11
-110.0
 21
497.1966885069
 31
0.0
  0
LINE
  5
4FB
330
1F
100
AcDbEntity
  8
0
  6
Continuous
 62
     7
370
    25
100
AcDbLine
 10
-110.0
 20
497.1966885069
 30
0.0
 11
-119.5262794416
 21
502.6966885069
 31
0.0
  0
LINE
  5
4FC
330
1F
100
AcDbEntity
  8
0
  6
Continuous
 62
     7
370
    25
100
AcDbLine
 10
-162.9737205584
 20
492.0460534123
 30
0.0
 11
-162.9737205584
 21
481.0460534123
 31
0.0
  0
LINE
  5
4FD
330
1F
100
AcDbEntity
  8
0
  6
Continuous
 62
     7
370
    25
100
AcDbLine
 10
-162.9737205584
 20
481.0460534123
 30
0.0
 11
-172.5
 21
475.5460534123
 31
0.0
  0
LINE
  5
4FE
330
1F
100
AcDbEntity
  8
0
  6
Continuous
 62
     7
370
    25
100
AcDbLine
 10
-172.5
 20
475.5460534123
 30
0.0
 11
-182.0262794416
 21
481.0460534123
 31
0.0
  0
LINE
  5
4FF
330
1F
100
AcDbEntity
  8
0
  6
Continuous
 62
     7
370
    25
100
AcDbLine
 10
-182.0262794416
 20
481.0460534123
 30
0.0
 11
-182.0262794416
 21
492.0460534123
 31
0.0
  0
LINE
  5
500
330
1F
100
AcDbEntity
  8
0
  6
Continuous
 62
     7
370
    25
100
AcDbLine
 10
-182.0262794416
 20
492.0460534123
 30
0.0
 11
-172.5
 21
497.5460534123
 31
0.0
  0
LINE
  5
501
330
1F
100
AcDbEntity
  8
0
  6
Continuous
 62
     7
370
    25
100
AcDbLine
 10
-172.5
 20
497.5460534123
 30
0.0
 11
-162.9737205584
 21
492.0460534123
 31
0.0
  0
LINE
  5
502
330
1F
100
AcDbEntity
  8
0
  6
Continuous
 62
     7
370
    25
100
AcDbLine
 10
-184.2976514445
 20
532.5265765608
 30
0.0
 11
-176.5194768515
 21
524.7484019677
 31
0.0
  0
LINE
  5
503
330
1F
100
AcDbEntity
  8
0
  6
Continuous
 62
     7
370
    25
100
AcDbLine
 10
-176.5194768515
 20
524.7484019677
 30
0.0
 11
-179.3664863476
 21
514.1232178785
 31
0.0
  0
LINE
  5
504
330
1F
100
AcDbEntity
  8
0
  6
Continuous
 62
     7
370
    25
100
AcDbLine
 10
-179.3664863476
 20
514.1232178785
 30
0.0
 11
-189.9916704368
 21
511.2762083824
 31
0.0
  0
LINE
  5
505
330
1F
100
AcDbEntity
  8
0
  6
Continuous
 62
     7
370
    25
100
AcDbLine
 10
-189.9916704368
 20
511.2762083824
 30
0.0
 11
-197.7698450299
 21
519.0543829755
 31
0.0
  0
LINE
  5
506
330
1F
100
AcDbEntity
  8
0
  6
Continuous
 62
     7
370
    25
100
AcDbLine
 10
-197.7698450299
 20
519.0543829755
 30
0.0
 11
-194.9228355337
 21
529.6795670646
 31
0.0
  0
LINE
  5
507
330
1F
100
AcDbEntity
  8
0
  6
Continuous
 62
     7
370
    25
100
AcDbLine
 10
-194.9228355337
 20
529.6795670646
 30
0.0
 11
-184.2976514445
 21
532.5265765608
 31
0.0
  0
LINE
  5
508
330
1F
100
AcDbEntity
  8
0
  6
Continuous
 62
     7
370
    25
100
AcDbLine
 10
-272.5
 20
475.5460534123
 30
0.0
 11
-282.0262794416
 21
481.0460534123
 31
0.0
  0
LINE
  5
509
330
1F
100
AcDbEntity
  8
0
  6
Continuous
 62
     7
370
    25
100
AcDbLine
 10
-282.0262794416
 20
481.0460534123
 30
0.0
 11
-282.0262794416
 21
492.0460534123
 31
0.0
  0
LINE
  5
50A
330
1F
100
AcDbEntity
  8
0
  6
Continuous
 62
     7
370
    25
100
AcDbLine
 10
-282.0262794416
 20
492.0460534123
 30
0.0
 11
-272.5
 21
497.5460534123
 31
0.0
  0
LINE
  5
50B
330
1F
100
AcDbEntity
  8
0
  6
Continuous
 62
     7
370
    25
100
AcDbLine
 10
-272.5
 20
497.5460534123
 30
0.0
 11
-262.9737205584
 21
492.0460534123
 31
0.0
  0
LINE
  5
50C
330
1F
100
AcDbEntity
  8
0
  6
Continuous
 62
     7
370
    25
100
AcDbLine
 10
-262.9737205584
 20
492.0460534123
 30
0.0
 11
-262.9737205584
 21
481.0460534123
 31
0.0
  0
LINE
  5
50D
330
1F
100
AcDbEntity
  8
0
  6
Continuous
 62
     7
370
    25
100
AcDbLine
 10
-262.9737205584
 20
481.0460534123
 30
0.0
 11
-272.5
 21
475.5460534123
 31
0.0
  0
LINE
  5
50E
330
1F
100
AcDbEntity
  8
0
  6
Continuous
 62
     7
370
    25
100
AcDbLine
 10
-189.9916704368
 20
461.8158984421
 30
0.0
 11
-179.3664863476
 21
458.968888946
 31
0.0
  0
LINE
  5
50F
330
1F
100
AcDbEntity
  8
0
  6
Continuous
 62
     7
370
    25
100
AcDbLine
 10
-179.3664863476
 20
458.968888946
 30
0.0
 11
-176.5194768515
 21
448.3437048568
 31
0.0
  0
LINE
  5
510
330
1F
100
AcDbEntity
  8
0
  6
Continuous
 62
     7
370
    25
100
AcDbLine
 10
-176.5194768515
 20
448.3437048568
 30
0.0
 11
-184.2976514445
 21
440.5655302638
 31
0.0
  0
LINE
  5
511
330
1F
100
AcDbEntity
  8
0
  6
Continuous
 62
     7
370
    25
100
AcDbLine
 10
-184.2976514445
 20
440.5655302638
 30
0.0
 11
-194.9228355337
 21
443.4125397599
 31
0.0
  0
LINE
  5
512
330
1F
100
AcDbEntity
  8
0
  6
Continuous
 62
     7
370
    25
100
AcDbLine
 10
-194.9228355337
 20
443.4125397599
 30
0.0
 11
-197.7698450299
 21
454.0377238491
 31
0.0
  0
LINE
  5
513
330
1F
100
AcDbEntity
  8
0
  6
Continuous
 62
     7
370
    25
100
AcDbLine
 10
-197.7698450299
 20
454.0377238491
 30
0.0
 11
-189.9916704368
 21
461.8158984421
 31
0.0
  0
LINE
  5
514
330
1F
100
AcDbEntity
  8
0
  6
Continuous
 62
     7
370
    25
100
AcDbLine
 10
-313.4648232238
 20
186.0314466524
 30
0.0
 11
-308.9393398242
 21
190.556930052
 31
0.0
  0
LINE
  5
515
330
1F
100
AcDbEntity
  8
0
  6
Continuous
 62
     7
370
    25
100
AcDbLine
 10
-311.0606601677
 20
183.6272835964
 30
0.0
 11
-306.5351767681
 21
188.152766996
 31
0.0
  0
LINE
  5
516
330
1F
100
AcDbEntity
  8
0
  6
Continuous
 62
     7
370
    25
100
AcDbLine
 10
-11.0606601759
 20
190.556930052
 30
0.0
 11
-6.5351767763
 21
186.0314466524
 31
0.0
  0
LINE
  5
517
330
1F
100
AcDbEntity
  8
0
  6
Continuous
 62
     7
370
    25
100
AcDbLine
 10
-13.4648232319
 20
188.152766996
 30
0.0
 11
-8.9393398323
 21
183.6272835964
 31
0.0
  0
LINE
  5
518
330
1F
100
AcDbEntity
  8
0
  6
Continuous
 62
     7
370
    25
100
AcDbLine
 10
-6.5351767763
 20
631.1527669966
 30
0.0
 11
-11.0606601758
 21
626.627283597
 31
0.0
  0
LINE
  5
519
330
1F
100
AcDbEntity
  8
0
  6
Continuous
 62
     7
370
    25
100
AcDbLine
 10
-8.9393398323
 20
633.5569300527
 30
0.0
 11
-13.4648232319
 21
629.0314466531
 31
0.0
  0
LINE
  5
51A
330
1F
100
AcDbEntity
  8
0
  6
Continuous
 62
     7
370
    25
100
AcDbLine
 10
-308.9393398242
 20
626.627283597
 30
0.0
 11
-313.4648232237
 21
631.1527669966
 31
0.0
  0
LINE
  5
51B
330
1F
100
AcDbEntity
  8
0
  6
Continuous
 62
     7
370
    25
100
AcDbLine
 10
-306.5351767681
 20
629.0314466531
 30
0.0
 11
-311.0606601677
 21
633.5569300527
 31
0.0
  0
LINE
  5
51C
330
1F
100
AcDbEntity
  8
0
  6
Continuous
 62
     7
370
    25
100
AcDbLine
 10
-322.8391918945
 20
634.7891630997
 30
0.0
 11
-314.6970562708
 21
642.9312987234
 31
0.0
  0
LINE
  5
51D
330
1F
100
AcDbEntity
  8
0
  6
Continuous
 62
     7
370
    25
100
AcDbLine
 10
-329.3999999959
 20
198.2342424479
 30
0.0
 11
-329.3999999959
 21
618.9499712011
 31
0.0
  0
LINE
  5
51E
330
1F
100
AcDbEntity
  8
0
  6
Continuous
 62
     7
370
    25
100
AcDbLine
 10
-314.6970562708
 20
174.2529149256
 30
0.0
 11
-322.8391918945
 21
182.3950505493
 31
0.0
  0
LINE
  5
51F
330
1F
100
AcDbEntity
  8
0
  6
Continuous
 62
     7
370
    25
100
AcDbLine
 10
-21.1421356278
 20
167.6921068242
 30
0.0
 11
-298.8578643722
 21
167.6921068242
 31
0.0
  0
LINE
  5
520
330
1F
100
AcDbEntity
  8
0
  6
Continuous
 62
     7
370
    25
100
AcDbLine
 10
2.8391918945
 20
182.3950505493
 30
0.0
 11
-5.3029437292
 21
174.2529149256
 31
0.0
  0
LINE
  5
521
330
1F
100
AcDbEntity
  8
0
  6
Continuous
 62
     7
370
    25
100
AcDbLine
 10
9.3999999959
 20
618.9499712011
 30
0.0
 11
9.3999999959
 21
198.2342424479
 31
0.0
  0
LINE
  5
522
330
1F
100
AcDbEntity
  8
0
  6
Continuous
 62
     7
370
    25
100
AcDbLine
 10
-5.3029437292
 20
642.9312987234
 30
0.0
 11
2.8391918945
 21
634.7891630997
 31
0.0
  0
LINE
  5
523
330
1F
100
AcDbEntity
  8
0
  6
Continuous
 62
     7
370
    25
100
AcDbLine
 10
-298.8578643722
 20
649.4921068249
 30
0.0
 11
-21.1421356278
 21
649.4921068249
 31
0.0
  0
ARC
  5
524
330
1F
100
AcDbEntity
  8
0
  6
Continuous
 62
     7
370
    25
100
AcDbCircle
 10
-222.5
 20
486.5460534122
 30
0.0
 40
59.77982890722343
100
AcDbArc
 50
63.6633466371
 51
71.3366533629
  0
ARC
  5
525
330
1F
100
AcDbEntity
  8
0
  6
Continuous
 62
     7
370
    25
100
AcDbCircle
 10
-222.4999999999
 20
486.5460534125
 30
0.0
 40
59.77982890734444
100
AcDbArc
 50
243.6633466371
 51
251.3366533629
  0
ARC
  5
526
330
1F
100
AcDbEntity
  8
0
  6
Continuous
 62
     7
370
    25
100
AcDbCircle
 10
-222.4999999999
 20
341.5460534123
 30
0.0
 40
59.77982890723167
100
AcDbArc
 50
198.6633466371
 51
206.3366533629
  0
ARC
  5
527
330
1F
100
AcDbEntity
  8
0
  6
Continuous
 62
     7
370
    25
100
AcDbCircle
 10
-222.5000000001
 20
341.5460534122
 30
0.0
 40
59.7798289072
100
AcDbArc
 50
18.6633466371
 51
26.3366533629
  0
ARC
  5
528
330
1F
100
AcDbEntity
  8
0
  6
Continuous
 62
     7
370
    25
100
AcDbCircle
 10
-97.5
 20
341.5460534122
 30
0.0
 40
59.77982890704063
100
AcDbArc
 50
243.6633466371
 51
251.3366533629
  0
ARC
  5
529
330
1F
100
AcDbEntity
  8
0
  6
Continuous
 62
     7
370
    25
100
AcDbCircle
 10
-97.5
 20
341.5460534123
 30
0.0
 40
59.77982890709975
100
AcDbArc
 50
63.6633466371
 51
71.3366533629
  0
ARC
  5
52A
330
1F
100
AcDbEntity
  8
0
  6
Continuous
 62
     7
370
    25
100
AcDbCircle
 10
-97.4999999999
 20
486.5460534125
 30
0.0
 40
59.7798289073573
100
AcDbArc
 50
243.6633466371
 51
251.3366533629
  0
ARC
  5
52B
330
1F
100
AcDbEntity
  8
0
  6
Continuous
 62
     7
370
    25
100
AcDbCircle
 10
-97.5
 20
486.5460534123
 30
0.0
 40
59.77982890703806
100
AcDbArc
 50
63.6633466371
 51
71.3366533629
  0
ARC
  5
52C
330
1F
100
AcDbEntity
  8
0
  6
Continuous
 62
     7
370
    25
100
AcDbCircle
 10
-97.4999999999
 20
486.5460534121
 30
0.0
 40
59.77982890723344
100
AcDbArc
 50
108.6633466371
 51
116.3366533629
  0
ARC
  5
52D
330
1F
100
AcDbEntity
  8
0
  6
Continuous
 62
     7
370
    25
100
AcDbCircle
 10
-97.4999999999
 20
486.5460534121
 30
0.0
 40
59.77982890692137
100
AcDbArc
 50
288.6633466371
 51
296.3366533629
  0
ARC
  5
52E
330
1F
100
AcDbEntity
  8
0
  6
Continuous
 62
     7
370
    25
100
AcDbCircle
 10
-97.5
 20
341.5460534124
 30
0.0
 40
59.77982890699408
100
AcDbArc
 50
108.6633466371
 51
116.3366533629
  0
ARC
  5
52F
330
1F
100
AcDbEntity
  8
0
  6
Continuous
 62
     7
370
    25
100
AcDbCircle
 10
-97.5
 20
341.5460534124
 30
0.0
 40
59.77982890721717
100
AcDbArc
 50
288.6633466371
 51
296.3366533629
  0
ARC
  5
530
330
1F
100
AcDbEntity
  8
0
  6
Continuous
 62
     7
370
    25
100
AcDbCircle
 10
-222.5
 20
341.5460534123
 30
0.0
 40
59.77982890701686
100
AcDbArc
 50
63.6633466371
 51
71.3366533629
  0
ARC
  5
531
330
1F
100
AcDbEntity
  8
0
  6
Continuous
 62
     7
370
    25
100
AcDbCircle
 10
-222.5
 20
341.5460534122
 30
0.0
 40
59.77982890700881
100
AcDbArc
 50
243.6633466371
 51
251.3366533629
  0
ARC
  5
532
330
1F
100
AcDbEntity
  8
0
  6
Continuous
 62
     7
370
    25
100
AcDbCircle
 10
-222.4999999999
 20
486.5460534123
 30
0.0
 40
59.77982890723915
100
AcDbArc
 50
198.6633466371
 51
206.3366533629
  0
ARC
  5
533
330
1F
100
AcDbEntity
  8
0
  6
Continuous
 62
     7
370
    25
100
AcDbCircle
 10
-222.5000000001
 20
486.5460534122
 30
0.0
 40
59.77982890725585
100
AcDbArc
 50
18.6633466371
 51
26.3366533629
  0
ARC
  5
534
330
1F
100
AcDbEntity
  8
0
  6
Continuous
 62
     7
370
    25
100
AcDbCircle
 10
-222.4999999999
 20
486.5460534121
 30
0.0
 40
59.77982890727958
100
AcDbArc
 50
108.6633466371
 51
116.3366533629
  0
ARC
  5
535
330
1F
100
AcDbEntity
  8
0
  6
Continuous
 62
     7
370
    25
100
AcDbCircle
 10
-222.4999999999
 20
486.546053412
 30
0.0
 40
59.77982890685071
100
AcDbArc
 50
288.6633466371
 51
296.3366533629
  0
ARC
  5
536
330
1F
100
AcDbEntity
  8
0
  6
Continuous
 62
     7
370
    25
100
AcDbCircle
 10
-222.5000000001
 20
341.5460534123
 30
0.0
 40
59.77982890698474
100
AcDbArc
 50
153.6633466371
 51
161.3366533629
  0
ARC
  5
537
330
1F
100
AcDbEntity
  8
0
  6
Continuous
 62
     7
370
    25
100
AcDbCircle
 10
-222.4999999999
 20
341.5460534122
 30
0.0
 40
59.77982890701254
100
AcDbArc
 50
333.6633466371
 51
341.3366533629
  0
ARC
  5
538
330
1F
100
AcDbEntity
  8
0
  6
Continuous
 62
     7
370
    25
100
AcDbCircle
 10
-97.5000000001
 20
341.5460534122
 30
0.0
 40
59.77982890698852
100
AcDbArc
 50
198.6633466371
 51
206.3366533629
  0
ARC
  5
539
330
1F
100
AcDbEntity
  8
0
  6
Continuous
 62
     7
370
    25
100
AcDbCircle
 10
-97.5
 20
341.5460534123
 30
0.0
 40
59.77982890705361
100
AcDbArc
 50
18.6633466371
 51
26.3366533629
  0
ARC
  5
53A
330
1F
100
AcDbEntity
  8
0
  6
Continuous
 62
     7
370
    25
100
AcDbCircle
 10
-97.5000000001
 20
486.5460534122
 30
0.0
 40
59.77982890696514
100
AcDbArc
 50
198.6633466371
 51
206.3366533629
  0
ARC
  5
53B
330
1F
100
AcDbEntity
  8
0
  6
Continuous
 62
     7
370
    25
100
AcDbCircle
 10
-97.5
 20
486.5460534123
 30
0.0
 40
59.77982890712509
100
AcDbArc
 50
18.6633466371
 51
26.3366533629
  0
ARC
  5
53C
330
1F
100
AcDbEntity
  8
0
  6
Continuous
 62
     7
370
    25
100
AcDbCircle
 10
-97.4999999999
 20
486.5460534122
 30
0.0
 40
59.77982890725741
100
AcDbArc
 50
153.6633466371
 51
161.3366533629
  0
ARC
  5
53D
330
1F
100
AcDbEntity
  8
0
  6
Continuous
 62
     7
370
    25
100
AcDbCircle
 10
-97.5
 20
486.5460534123
 30
0.0
 40
59.77982890710523
100
AcDbArc
 50
333.6633466371
 51
341.3366533629
  0
ARC
  5
53E
330
1F
100
AcDbEntity
  8
0
  6
Continuous
 62
     7
370
    25
100
AcDbCircle
 10
-97.5000000001
 20
341.5460534123
 30
0.0
 40
59.77982890703359
100
AcDbArc
 50
153.6633466371
 51
161.3366533629
  0
ARC
  5
53F
330
1F
100
AcDbEntity
  8
0
  6
Continuous
 62
     7
370
    25
100
AcDbCircle
 10
-97.5
 20
341.5460534123
 30
0.0
 40
59.77982890708978
100
AcDbArc
 50
333.6633466371
 51
341.3366533629
  0
ARC
  5
540
330
1F
100
AcDbEntity
  8
0
  6
Continuous
 62
     7
370
    25
100
AcDbCircle
 10
-222.5000000001
 20
341.5460534124
 30
0.0
 40
59.77982890694717
100
AcDbArc
 50
108.6633466371
 51
116.3366533629
  0
ARC
  5
541
330
1F
100
AcDbEntity
  8
0
  6
Continuous
 62
     7
370
    25
100
AcDbCircle
 10
-222.5
 20
341.5460534124
 30
0.0
 40
59.77982890721017
100
AcDbArc
 50
288.6633466371
 51
296.3366533629
  0
ARC
  5
542
330
1F
100
AcDbEntity
  8
0
  6
Continuous
 62
     7
370
    25
100
AcDbCircle
 10
-222.5000000001
 20
486.5460534123
 30
0.0
 40
59.77982890704854
100
AcDbArc
 50
153.6633466371
 51
161.3366533629
  0
ARC
  5
543
330
1F
100
AcDbEntity
  8
0
  6
Continuous
 62
     7
370
    25
100
AcDbCircle
 10
-222.4999999999
 20
486.5460534122
 30
0.0
 40
59.77982890703124
100
AcDbArc
 50
333.6633466371
 51
341.3366533629
  0
ARC
  5
544
330
1F
100
AcDbEntity
  8
0
  6
Continuous
 62
     7
370
    25
100
AcDbCircle
 10
-312.2627416957
 20
184.8293651244
 30
0.0
 40
1.699999999999881
100
AcDbArc
 50
135.0
 51
315.0
  0
ARC
  5
545
330
1F
100
AcDbEntity
  8
0
  6
Continuous
 62
     7
370
    25
100
AcDbCircle
 10
-307.7372582961
 20
189.354848524
 30
0.0
 40
1.700000000000162
100
AcDbArc
 50
315.0
 51
135.0
  0
ARC
  5
546
330
1F
100
AcDbEntity
  8
0
  6
Continuous
 62
     7
370
    25
100
AcDbCircle
 10
-12.2627417039
 20
189.354848524
 30
0.0
 40
1.700000000000402
100
AcDbArc
 50
45.0
 51
225.0
  0
ARC
  5
547
330
1F
100
AcDbEntity
  8
0
  6
Continuous
 62
     7
370
    25
100
AcDbCircle
 10
-7.7372583043
 20
184.8293651244
 30
0.0
 40
1.700000000000325
100
AcDbArc
 50
225.0
 51
45.0
  0
ARC
  5
548
330
1F
100
AcDbEntity
  8
0
  6
Continuous
 62
     7
370
    25
100
AcDbCircle
 10
-7.7372583043
 20
632.3548485246
 30
0.0
 40
1.700000000000017
100
AcDbArc
 50
315.0
 51
135.0
  0
ARC
  5
549
330
1F
100
AcDbEntity
  8
0
  6
Continuous
 62
     7
370
    25
100
AcDbCircle
 10
-12.2627417039
 20
627.8293651251
 30
0.0
 40
1.700000000000039
100
AcDbArc
 50
135.0
 51
315.0
  0
ARC
  5
54A
330
1F
100
AcDbEntity
  8
0
  6
Continuous
 62
     7
370
    25
100
AcDbCircle
 10
-307.7372582961
 20
627.8293651251
 30
0.0
 40
1.700000000000343
100
AcDbArc
 50
225.0
 51
45.0
  0
ARC
  5
54B
330
1F
100
AcDbEntity
  8
0
  6
Continuous
 62
     7
370
    25
100
AcDbCircle
 10
-312.2627416957
 20
632.3548485247
 30
0.0
 40
1.700000000000544
100
AcDbArc
 50
45.0
 51
225.0
  0
ARC
  5
54C
330
1F
100
AcDbEntity
  8
0
  6
Continuous
 62
     7
370
    25
100
AcDbCircle
 10
-298.8578643722
 20
627.0921068248
 30
0.0
 40
22.40000000000534
100
AcDbArc
 50
90.0
 51
135.0
  0
ARC
  5
54D
330
1F
100
AcDbEntity
  8
0
  6
Continuous
 62
     7
370
    25
100
AcDbCircle
 10
-306.9999999959
 20
618.9499712011
 30
0.0
 40
22.39999999999895
100
AcDbArc
 50
135.0
 51
180.0
  0
ARC
  5
54E
330
1F
100
AcDbEntity
  8
0
  6
Continuous
 62
     7
370
    25
100
AcDbCircle
 10
-306.9999999959
 20
198.2342424479
 30
0.0
 40
22.39999999999617
100
AcDbArc
 50
180.0
 51
225.0
  0
ARC
  5
54F
330
1F
100
AcDbEntity
  8
0
  6
Continuous
 62
     7
370
    25
100
AcDbCircle
 10
-298.8578643722
 20
190.0921068242
 30
0.0
 40
22.40000000000355
100
AcDbArc
 50
225.0
 51
270.0
  0
ARC
  5
550
330
1F
100
AcDbEntity
  8
0
  6
Continuous
 62
     7
370
    25
100
AcDbCircle
 10
-21.1421356278
 20
190.0921068242
 30
0.0
 40
22.40000000000393
100
AcDbArc
 50
270.0
 51
315.0
  0
ARC
  5
551
330
1F
100
AcDbEntity
  8
0
  6
Continuous
 62
     7
370
    25
100
AcDbCircle
 10
-13.0000000041
 20
198.2342424479
 30
0.0
 40
22.40000000000098
100
AcDbArc
 50
315.0
 51
0.0
  0
ARC
  5
552
330
1F
100
AcDbEntity
  8
0
  6
Continuous
 62
     7
370
    25
100
AcDbCircle
 10
-13.0000000041
 20
618.9499712011
 30
0.0
 40
22.39999999999842
100
AcDbArc
 50
360.0
 51
45.0
  0
ARC
  5
553
330
1F
100
AcDbEntity
  8
0
  6
Continuous
 62
     7
370
    25
100
AcDbCircle
 10
-21.1421356278
 20
627.0921068248
 30
0.0
 40
22.40000000000305
100
AcDbArc
 50
45.0
 51
90.0
  0
ENDSEC
  0
SECTION
  2
OBJECTS
  0
DICTIONARY
  5
C
330
0
100
AcDbDictionary
281
     1
  3
ACAD_GROUP
350
D
  3
ACAD_LAYOUT
350
1A
  3
ACAD_MLINESTYLE
350
17
  3
ACAD_PLOTSETTINGS
350
19
  3
ACAD_PLOTSTYLENAME
350
E
  3
ACAD_SCALELIST
350
47
  3
DWGPROPS
350
554
  0
DICTIONARY
  5
D
102
{ACAD_REACTORS
330
C
102
}
330
C
100
AcDbDictionary
281
     1
  0
DICTIONARY
  5
1A
102
{ACAD_REACTORS
330
C
102
}
330
C
100
AcDbDictionary
281
     1
  3
Layout1
350
1E
  3
Layout2
350
26
  3
Model
350
22
  0
DICTIONARY
  5
17
102
{ACAD_REACTORS
330
C
102
}
330
C
100
AcDbDictionary
281
     1
  3
Standard
350
18
  0
DICTIONARY
  5
19
102
{ACAD_REACTORS
330
C
102
}
330
C
100
AcDbDictionary
281
     1
  0
ACDBDICTIONARYWDFLT
  5
E
102
{ACAD_REACTORS
330
C
102
}
330
C
100
AcDbDictionary
281
     1
  3
Normal
350
F
100
AcDbDictionaryWithDefault
340
F
  0
DICTIONARY
  5
47
102
{ACAD_REACTORS
330
C
102
}
330
C
100
AcDbDictionary
281
     1
  3
A0
350
48
  3
A1
350
49
  3
A2
350
4A
  3
A3
350
4B
  3
A4
350
4C
  3
A5
350
4D
  3
A6
350
4E
  3
A7
350
4F
  3
A8
350
50
  3
A9
350
51
  3
B0
350
52
  3
B1
350
53
  3
B2
350
54
  3
B3
350
55
  3
B4
350
56
  3
B5
350
57
  3
B6
350
58
  3
B7
350
59
  3
B8
350
5A
  3
B9
350
5B
  3
C0
350
5C
  3
C1
350
5D
  3
C2
350
5E
  3
C3
350
5F
  3
C4
350
60
  3
C5
350
61
  3
C6
350
62
  3
C7
350
63
  3
C8
350
64
  3
C9
350
65
  3
D0
350
66
  3
D1
350
67
  3
D2
350
68
  0
XRECORD
  5
554
102
{ACAD_REACTORS
330
C
102
}
330
C
100
AcDbXrecord
280
     1
  1
DWGPROPS COOKIE
  2

  3

  4

  6

  7

  8
HFH75
  9

300
=
301
=
302
=
303
=
304
=
305
=
306
=
307
=
308
=
309
=
 40
0.0
 41
2459694.589962986
 42
2459694.590015254
  1

 90
        0
  0
LAYOUT
  5
1E
102
{ACAD_REACTORS
330
1A
102
}
330
1A
100
AcDbPlotSettings
  1

  2
none_device
  4

  6

 40
0.0
 41
0.0
 42
0.0
 43
0.0
 44
0.0
 45
0.0
 46
0.0
 47
0.0
 48
0.0
 49
0.0
140
0.0
141
0.0
142
1.0
143
1.0
 70
   688
 72
     1
 73
     0
 74
     5
  7

 75
    16
147
1.0
148
0.0
149
0.0
100
AcDbLayout
  1
Layout1
 70
     1
 71
     1
 10
0.0
 20
0.0
 11
420.0
 21
297.0
 12
0.0
 22
0.0
 32
0.0
 14
1.0000000000E+20
 24
1.0000000000E+20
 34
1.0000000000E+20
 15
-1.0000000000E+20
 25
-1.0000000000E+20
 35
-1.0000000000E+20
146
0.0
 13
0.0
 23
0.0
 33
0.0
 16
1.0
 26
0.0
 36
0.0
 17
0.0
 27
1.0
 37
0.0
 76
     0
330
1B
  0
LAYOUT
  5
26
102
{ACAD_REACTORS
330
1A
102
}
330
1A
100
AcDbPlotSettings
  1

  2
none_device
  4

  6

 40
0.0
 41
0.0
 42
0.0
 43
0.0
 44
0.0
 45
0.0
 46
0.0
 47
0.0
 48
0.0
 49
0.0
140
0.0
141
0.0
142
1.0
143
1.0
 70
   688
 72
     1
 73
     0
 74
     5
  7

 75
    16
147
1.0
148
0.0
149
0.0
100
AcDbLayout
  1
Layout2
 70
     1
 71
     2
 10
0.0
 20
0.0
 11
0.0
 21
0.0
 12
0.0
 22
0.0
 32
0.0
 14
0.0
 24
0.0
 34
0.0
 15
0.0
 25
0.0
 35
0.0
146
0.0
 13
0.0
 23
0.0
 33
0.0
 16
1.0
 26
0.0
 36
0.0
 17
0.0
 27
1.0
 37
0.0
 76
     0
330
23
  0
LAYOUT
  5
22
102
{ACAD_REACTORS
330
1A
102
}
330
1A
100
AcDbPlotSettings
  1

  2
none_device
  4
ANSI_A_(11.00_x_8.50_Inches)
  6

 40
6.35
 41
19.05
 42
6.35000508
 43
19.05000254
 44
279.4
 45
215.9
 46
204.3308193777
 47
-92.3637735918
 48
0.0
 49
0.0
140
0.0
141
0.0
142
0.0174657534
143
1.0
 70
  1696
 72
     0
 73
     0
 74
     0
  7

 75
     0
147
0.0179189148
148
-1300.4909072572
149
0.0
100
AcDbLayout
  1
Model
 70
     1
 71
     0
 10
0.0
 20
0.0
 11
420.0
 21
297.0
 12
0.0
 22
0.0
 32
0.0
 14
-329.3999999959
 24
167.6921068242
 34
0.0
 15
9.3999999959
 25
649.4921068249
 35
0.0
146
0.0
 13
0.0
 23
0.0
 33
0.0
 16
1.0
 26
0.0
 36
0.0
 17
0.0
 27
1.0
 37
0.0
 76
     0
330
1F
331
29
  0
MLINESTYLE
  5
18
102
{ACAD_REACTORS
330
17
102
}
330
17
100
AcDbMlineStyle
  2
Standard
 70
     0
  3

 62
   256
 51
90.0
 52
90.0
 71
     2
 49
0.5
 62
   256
  6
BYLAYER
 49
-0.5
 62
   256
  6
BYLAYER
  0
ACDBPLACEHOLDER
  5
F
102
{ACAD_REACTORS
330
E
102
}
330
E
  0
SCALE
  5
48
102
{ACAD_REACTORS
330
47
102
}
330
47
100
AcDbScale
 70
     0
300
1:1
140
1.0
141
1.0
290
     1
  0
SCALE
  5
49
102
{ACAD_REACTORS
330
47
102
}
330
47
100
AcDbScale
 70
     0
300
1:2
140
1.0
141
2.0
290
     0
  0
SCALE
  5
4A
102
{ACAD_REACTORS
330
47
102
}
330
47
100
AcDbScale
 70
     0
300
1:4
140
1.0
141
4.0
290
     0
  0
SCALE
  5
4B
102
{ACAD_REACTORS
330
47
102
}
330
47
100
AcDbScale
 70
     0
300
1:5
140
1.0
141
5.0
290
     0
  0
SCALE
  5
4C
102
{ACAD_REACTORS
330
47
102
}
330
47
100
AcDbScale
 70
     0
300
1:8
140
1.0
141
8.0
290
     0
  0
SCALE
  5
4D
102
{ACAD_REACTORS
330
47
102
}
330
47
100
AcDbScale
 70
     0
300
1:10
140
1.0
141
10.0
290
     0
  0
SCALE
  5
4E
102
{ACAD_REACTORS
330
47
102
}
330
47
100
AcDbScale
 70
     0
300
1:16
140
1.0
141
16.0
290
     0
  0
SCALE
  5
4F
102
{ACAD_REACTORS
330
47
102
}
330
47
100
AcDbScale
 70
     0
300
1:20
140
1.0
141
20.0
290
     0
  0
SCALE
  5
50
102
{ACAD_REACTORS
330
47
102
}
330
47
100
AcDbScale
 70
     0
300
1:30
140
1.0
141
30.0
290
     0
  0
SCALE
  5
51
102
{ACAD_REACTORS
330
47
102
}
330
47
100
AcDbScale
 70
     0
300
1:40
140
1.0
141
40.0
290
     0
  0
SCALE
  5
52
102
{ACAD_REACTORS
330
47
102
}
330
47
100
AcDbScale
 70
     0
300
1:50
140
1.0
141
50.0
290
     0
  0
SCALE
  5
53
102
{ACAD_REACTORS
330
47
102
}
330
47
100
AcDbScale
 70
     0
300
1:100
140
1.0
141
100.0
290
     0
  0
SCALE
  5
54
102
{ACAD_REACTORS
330
47
102
}
330
47
100
AcDbScale
 70
     0
300
2:1
140
2.0
141
1.0
290
     0
  0
SCALE
  5
55
102
{ACAD_REACTORS
330
47
102
}
330
47
100
AcDbScale
 70
     0
300
4:1
140
4.0
141
1.0
290
     0
  0
SCALE
  5
56
102
{ACAD_REACTORS
330
47
102
}
330
47
100
AcDbScale
 70
     0
300
8:1
140
8.0
141
1.0
290
     0
  0
SCALE
  5
57
102
{ACAD_REACTORS
330
47
102
}
330
47
100
AcDbScale
 70
     0
300
10:1
140
10.0
141
1.0
290
     0
  0
SCALE
  5
58
102
{ACAD_REACTORS
330
47
102
}
330
47
100
AcDbScale
 70
     0
300
100:1
140
100.0
141
1.0
290
     0
  0
SCALE
  5
59
102
{ACAD_REACTORS
330
47
102
}
330
47
100
AcDbScale
 70
     0
300
1/128" = 1'-0"
140
0.0078125
141
12.0
290
     0
  0
SCALE
  5
5A
102
{ACAD_REACTORS
330
47
102
}
330
47
100
AcDbScale
 70
     0
300
1/64" = 1'-0"
140
0.015625
141
12.0
290
     0
  0
SCALE
  5
5B
102
{ACAD_REACTORS
330
47
102
}
330
47
100
AcDbScale
 70
     0
300
1/32" = 1'-0"
140
0.03125
141
12.0
290
     0
  0
SCALE
  5
5C
102
{ACAD_REACTORS
330
47
102
}
330
47
100
AcDbScale
 70
     0
300
1/16" = 1'-0"
140
0.0625
141
12.0
290
     0
  0
SCALE
  5
5D
102
{ACAD_REACTORS
330
47
102
}
330
47
100
AcDbScale
 70
     0
300
3/32" = 1'-0"
140
0.09375
141
12.0
290
     0
  0
SCALE
  5
5E
102
{ACAD_REACTORS
330
47
102
}
330
47
100
AcDbScale
 70
     0
300
1/8" = 1'-0"
140
0.125
141
12.0
290
     0
  0
SCALE
  5
5F
102
{ACAD_REACTORS
330
47
102
}
330
47
100
AcDbScale
 70
     0
300
3/16" = 1'-0"
140
0.1875
141
12.0
290
     0
  0
SCALE
  5
60
102
{ACAD_REACTORS
330
47
102
}
330
47
100
AcDbScale
 70
     0
300
1/4" = 1'-0"
140
0.25
141
12.0
290
     0
  0
SCALE
  5
61
102
{ACAD_REACTORS
330
47
102
}
330
47
100
AcDbScale
 70
     0
300
3/8" = 1'-0"
140
0.375
141
12.0
290
     0
  0
SCALE
  5
62
102
{ACAD_REACTORS
330
47
102
}
330
47
100
AcDbScale
 70
     0
300
1/2" = 1'-0"
140
0.5
141
12.0
290
     0
  0
SCALE
  5
63
102
{ACAD_REACTORS
330
47
102
}
330
47
100
AcDbScale
 70
     0
300
3/4" = 1'-0"
140
0.75
141
12.0
290
     0
  0
SCALE
  5
64
102
{ACAD_REACTORS
330
47
102
}
330
47
100
AcDbScale
 70
     0
300
1" = 1'-0"
140
1.0
141
12.0
290
     0
  0
SCALE
  5
65
102
{ACAD_REACTORS
330
47
102
}
330
47
100
AcDbScale
 70
     0
300
1-1/2" = 1'-0"
140
1.5
141
12.0
290
     0
  0
SCALE
  5
66
102
{ACAD_REACTORS
330
47
102
}
330
47
100
AcDbScale
 70
     0
300
3" = 1'-0"
140
3.0
141
12.0
290
     0
  0
SCALE
  5
67
102
{ACAD_REACTORS
330
47
102
}
330
47
100
AcDbScale
 70
     0
300
6" = 1'-0"
140
6.0
141
12.0
290
     0
  0
SCALE
  5
68
102
{ACAD_REACTORS
330
47
102
}
330
47
100
AcDbScale
 70
     0
300
1'-0" = 1'-0"
140
12.0
141
12.0
290
     0
  0
ENDSEC
  0
EOF
